<?xml version="1.0" encoding="UTF-8"?>
<!DOCTYPE svg PUBLIC "-//W3C//DTD SVG 1.1//EN" "http://www.w3.org/Graphics/SVG/1.1/DTD/svg11.dtd">
<svg version="1.1" id="Layer_1" xmlns="http://www.w3.org/2000/svg" xmlns:xlink="http://www.w3.org/1999/xlink" x="0px" y="0px" width="24px" height="24px" viewBox="0 0 24 24" enable-background="new 0 0 24 24" xml:space="preserve">
  <g id="main">
    <clipPath id="clip_mask">
      <path d="M17.2877,23.7612c-0.1662,-0.0172,-0.3327,-0.0359,-0.4969,-0.0567c-1.7181,-0.2175,-2.424,-0.5199,-2.6978,-1.1558c-0.1767,-0.4104,-0.0992,-0.8736,0.2005,-1.2245c0.0964,-0.1247,0.1976,-0.2479,0.3043,-0.3778c0.5644,-0.6869,1.1479,-1.3972,1.1479,-2.4428c0,-1.3466,0.7584,-2.5517,1.9429,-3.1718c0.2378,-0.7979,0.9637,-1.3801,1.8198,-1.3801c0.8829,0,1.6272,0.6189,1.8407,1.4553c1.1039,0.6422,1.8093,1.8172,1.8093,3.0966c0,0.4992,0.3702,1.2624,0.8416,1.9482V0H0v24h17.4305C17.3784,23.9236,17.3302,23.8443,17.2877,23.7612z"/>
    </clipPath>
    <g id="icon" clip-path="url(#clip_mask)">
      <g id="transformed_icon" transform="translate(-1 -1)">
        <path d="M21.99,21.01H2.01c-0.5555,0,-1.01,-0.4545,-1.01,-1.01V4.88c0,-0.484,0.396,-0.88,0.88,-0.88h20.24c0.484,0,0.88,0.396,0.88,0.88V20C23,20.5555,22.5455,21.01,21.99,21.01z" fill="#E6E9EE"/>
        <circle cx="6.8033" cy="10.8027" r="4.1929" fill="#CCD0D9"/>
        <path d="M10.136,13.3532c-0.1838,-0.9322,-0.4858,-0.8776,-2.0843,-1.443c-0.2551,-0.096,-0.3222,-0.2357,-0.2959,-0.4375c0.4629,-0.5691,0.7392,-1.4683,0.7392,-2.1018c0,-0.9942,-0.3152,-1.6204,-1.6873,-1.6204c-1.3875,0,-1.7025,0.6262,-1.7025,1.6204c0,0.642,0.2846,1.5568,0.7587,2.1245c0.0184,0.1896,-0.0515,0.3224,-0.2969,0.4148c-1.6015,0.5664,-1.9068,0.5104,-2.0923,1.4482c0.7672,0.9978,1.9727,1.641,3.3287,1.641C8.1616,14.9994,9.369,14.3539,10.136,13.3532z" fill-rule="evenodd" fill="#4B89DC"/>
        <path d="M12.5,7.5h8" fill="#536880" stroke="#536880" stroke-width="1" stroke-linecap="round" stroke-miterlimit="1"/>
        <path d="M15,9.5h3.5M14,11.5h4.5" fill="none" stroke="#8E949C" stroke-width="1" stroke-linecap="round" stroke-miterlimit="1"/>
        <path d="M20,9.5h0.5M20,11.5h0.5" fill="none" stroke="#8E949C" stroke-width="1" stroke-linecap="round" stroke-miterlimit="1"/>
        <path d="M11.5,15.5h9" fill="none" stroke="#AAB2BD" stroke-width="1" stroke-linecap="round" stroke-miterlimit="1"/>
        <path d="M3.5,17.5h17" fill="none" stroke="#AAB2BD" stroke-width="1" stroke-linecap="round" stroke-miterlimit="1"/>
        <path d="M22.12,4H18.5l-8,17.01h11.49c0.5555,0,1.01,-0.4545,1.01,-1.01V4.88C23,4.396,22.604,4,22.12,4z" fill="#231F20" opacity="0.06"/>
      </g>
    </g>
    <g id="overlay">
      <path d="M20.7962,22.7039c0,0.7847,-0.6445,1.2961,-1.3909,1.2961c-0.7463,0,-1.3711,-0.5115,-1.3711,-1.2961C19.1173,22.8083,19.6508,22.8083,20.7962,22.7039z" fill-rule="evenodd" fill="#C18F36"/>
      <path d="M23.8836,21.9314c-0.6454,-0.7084,-1.7348,-2.2438,-1.7348,-3.4277c0,-1.1189,-0.7321,-2.0727,-1.7598,-2.4415c0.0088,-0.0531,0.0143,-0.1075,0.0143,-0.1632c0,-0.5231,-0.4034,-0.9472,-0.9009,-0.9472c-0.4976,0,-0.9009,0.4241,-0.9009,0.9472c0,0.0433,0.0037,0.0857,0.0091,0.1275c-1.0836,0.3392,-1.8672,1.3198,-1.8672,2.4773c0,1.6576,-1.0749,2.668,-1.6781,3.4574c-0.6086,0.6438,3.1831,0.929,4.409,0.929C20.7001,22.89,24.529,22.6398,23.8836,21.9314z" fill-rule="evenodd" fill="#FFCE55"/>
      <path d="M23.8836,21.9314c-0.6454,-0.7084,-1.7348,-2.2438,-1.7348,-3.4277c0,-1.1189,-0.7321,-2.0727,-1.7598,-2.4415c0.0088,-0.0531,0.0143,-0.1075,0.0143,-0.1632c0,-0.5231,-0.3752,-0.9472,-0.8728,-0.9472c-0.0197,0,-0.0305,0.0009,-0.0305,0.0022v7.936c0,0,-0.0075,0.0001,0.0024,0.0001C20.7282,22.89,24.529,22.6398,23.8836,21.9314z" fill-rule="evenodd" fill="#F6BB43"/>
    </g>
  </g>
</svg>
