<?xml version="1.0" encoding="UTF-8"?>
<!DOCTYPE svg PUBLIC "-//W3C//DTD SVG 1.1//EN" "http://www.w3.org/Graphics/SVG/1.1/DTD/svg11.dtd">
<svg version="1.1" id="Layer_1" xmlns="http://www.w3.org/2000/svg" xmlns:xlink="http://www.w3.org/1999/xlink" x="0px" y="0px" width="24px" height="24px" viewBox="0 0 24 24" enable-background="new 0 0 24 24" xml:space="preserve">
  <g id="main">
    <clipPath id="clip_mask">
      <path d="M17.2877,23.7612c-0.1662,-0.0172,-0.3327,-0.0359,-0.4969,-0.0567c-1.7181,-0.2175,-2.424,-0.5199,-2.6978,-1.1558c-0.1767,-0.4104,-0.0992,-0.8736,0.2005,-1.2245c0.0964,-0.1247,0.1976,-0.2479,0.3043,-0.3778c0.5644,-0.6869,1.1479,-1.3972,1.1479,-2.4428c0,-1.3466,0.7584,-2.5517,1.9429,-3.1718c0.2378,-0.7979,0.9637,-1.3801,1.8198,-1.3801c0.8829,0,1.6272,0.6189,1.8407,1.4553c1.1039,0.6422,1.8093,1.8172,1.8093,3.0966c0,0.4992,0.3702,1.2624,0.8416,1.9482V0H0v24h17.4305C17.3784,23.9236,17.3302,23.8443,17.2877,23.7612z"/>
    </clipPath>
    <g id="icon" clip-path="url(#clip_mask)">
      <g id="transformed_icon" transform="translate(-1 -1)">
        <path d="M19.0526,15.8284c-1.104,0,-1.9989,0.935,-1.9989,2.0884c0,1.1534,0.8949,2.0884,1.9989,2.0884c1.104,0,1.9989,-0.935,1.9989,-2.0884C21.0515,16.7634,20.1565,15.8284,19.0526,15.8284zM4.6022,15.8284c-1.104,0,-1.9989,0.935,-1.9989,2.0884c0,1.1534,0.8949,2.0884,1.9989,2.0884c1.104,0,1.9989,-0.935,1.9989,-2.0884C6.6011,16.7634,5.7061,15.8284,4.6022,15.8284z" fill-rule="evenodd" fill="#656D78"/>
        <path d="M19.0526,17.1118c-0.4255,0,-0.7704,0.3604,-0.7704,0.8049c0,0.4445,0.3449,0.8049,0.7704,0.8049c0.4255,0,0.7704,-0.3604,0.7704,-0.8049C19.823,17.4722,19.478,17.1118,19.0526,17.1118zM4.6022,17.1118c-0.4255,0,-0.7704,0.3604,-0.7704,0.8049c0,0.4445,0.3449,0.8049,0.7704,0.8049c0.4255,0,0.7704,-0.3604,0.7704,-0.8049C5.3726,17.4722,5.0277,17.1118,4.6022,17.1118z" fill-rule="evenodd" fill="#CCD0D9"/>
        <path d="M23,6.9528V17.9h-1.2406c0,-1.6,-1.2119,-2.828,-2.7068,-2.828c-1.495,0,-2.7069,1.228,-2.7069,2.828H8V6.9528C8,6.3761,8.6061,6,9.1581,6h12.8929C22.6029,6,23,6.3761,23,6.9528zM7.5,9.0412v8.3535c0,0.2153,-0.0918,0.4311,-0.2523,0.5294c0,-0.0042,-0.0012,-0.0134,-0.0012,-0.0176c0,-1.5498,-1.2026,-2.8165,-2.686,-2.8165c-1.4835,0,-2.686,1.2359,-2.686,2.7857c0,0.022,0.0027,0.0243,0.0032,0.0243h-0.3155c-0.276,0,-0.5622,-0.217,-0.5622,-0.5053c0,0,0,-2.8426,0,-4.6553c0,-0.2343,0.0312,-0.5454,0.096,-0.6795c0.8745,-1.7838,1.2158,-2.6302,1.424,-2.9782C2.7282,8.7336,2.7437,8.6,3.0197,8.6h4.0395C7.3352,8.6,7.5,8.7528,7.5,9.0412zM6.4,9.6H3.0614l-1.0612,2.5476L2.0203,13H6.4V9.6z" fill-rule="evenodd" fill="#79828E"/>
        <polygon points="6.4,9.6 3,9.6 1.9,12.1 1.9,13 6.4,13" fill="#71E1FF" stroke-linejoin="miter"/>
        <polygon points="5.41,9.6 6.4,9.6 6.4,13 4.53,13" fill="#3BAEDA" stroke-linejoin="miter" opacity="0.3"/>
        <path d="M22.0509,6h-5.185l-3.6759,11.9h3.1557c0,-1.6,1.2119,-2.828,2.7069,-2.828c1.4949,0,2.7068,1.228,2.7068,2.828H23V6.9528C23,6.3761,22.6029,6,22.0509,6z" fill="#24282D" opacity="0.1"/>
      </g>
    </g>
    <g id="overlay">
      <path d="M20.7962,22.7039c0,0.7847,-0.6445,1.2961,-1.3909,1.2961c-0.7463,0,-1.3711,-0.5115,-1.3711,-1.2961C19.1173,22.8083,19.6508,22.8083,20.7962,22.7039z" fill-rule="evenodd" fill="#C18F36"/>
      <path d="M23.8836,21.9314c-0.6454,-0.7084,-1.7348,-2.2438,-1.7348,-3.4277c0,-1.1189,-0.7321,-2.0727,-1.7598,-2.4415c0.0088,-0.0531,0.0143,-0.1075,0.0143,-0.1632c0,-0.5231,-0.4034,-0.9472,-0.9009,-0.9472c-0.4976,0,-0.9009,0.4241,-0.9009,0.9472c0,0.0433,0.0037,0.0857,0.0091,0.1275c-1.0836,0.3392,-1.8672,1.3198,-1.8672,2.4773c0,1.6576,-1.0749,2.668,-1.6781,3.4574c-0.6086,0.6438,3.1831,0.929,4.409,0.929C20.7001,22.89,24.529,22.6398,23.8836,21.9314z" fill-rule="evenodd" fill="#FFCE55"/>
      <path d="M23.8836,21.9314c-0.6454,-0.7084,-1.7348,-2.2438,-1.7348,-3.4277c0,-1.1189,-0.7321,-2.0727,-1.7598,-2.4415c0.0088,-0.0531,0.0143,-0.1075,0.0143,-0.1632c0,-0.5231,-0.3752,-0.9472,-0.8728,-0.9472c-0.0197,0,-0.0305,0.0009,-0.0305,0.0022v7.936c0,0,-0.0075,0.0001,0.0024,0.0001C20.7282,22.89,24.529,22.6398,23.8836,21.9314z" fill-rule="evenodd" fill="#F6BB43"/>
    </g>
  </g>
</svg>
