<?xml version="1.0" encoding="UTF-8"?>
<!DOCTYPE svg PUBLIC "-//W3C//DTD SVG 1.1//EN" "http://www.w3.org/Graphics/SVG/1.1/DTD/svg11.dtd">
<svg version="1.1" id="Layer_1" xmlns="http://www.w3.org/2000/svg" xmlns:xlink="http://www.w3.org/1999/xlink" x="0px" y="0px" width="24px" height="24px" viewBox="0 0 24 24" enable-background="new 0 0 24 24" xml:space="preserve">
  <g id="main">
    <clipPath id="clip_mask">
      <path d="M17.2877,23.7612c-0.1662,-0.0172,-0.3327,-0.0359,-0.4969,-0.0567c-1.7181,-0.2175,-2.424,-0.5199,-2.6978,-1.1558c-0.1767,-0.4104,-0.0992,-0.8736,0.2005,-1.2245c0.0964,-0.1247,0.1976,-0.2479,0.3043,-0.3778c0.5644,-0.6869,1.1479,-1.3972,1.1479,-2.4428c0,-1.3466,0.7584,-2.5517,1.9429,-3.1718c0.2378,-0.7979,0.9637,-1.3801,1.8198,-1.3801c0.8829,0,1.6272,0.6189,1.8407,1.4553c1.1039,0.6422,1.8093,1.8172,1.8093,3.0966c0,0.4992,0.3702,1.2624,0.8416,1.9482V0H0v24h17.4305C17.3784,23.9236,17.3302,23.8443,17.2877,23.7612z"/>
    </clipPath>
    <g id="icon" clip-path="url(#clip_mask)">
      <g id="transformed_icon" transform="translate(-1 -1)">
        <path d="M15.3125,2h-6.625C7.7594,2,7,2.7594,7,3.6875v1.525c0,0.8647,0.6594,1.5822,1.5,1.6763V3.9c0,-0.33,0.27,-0.4,0.6,-0.4h5.8c0.33,0,0.6,0.07,0.6,0.4v2.9888c0.8406,-0.0941,1.5,-0.8116,1.5,-1.6763v-1.525C17,2.7594,16.2406,2,15.3125,2z" fill="#656D78"/>
        <path d="M8.5091,4.5C8.5035,4.5098,8.5,4.5198,8.5,4.53V5H7v-0.5H8.5091zM17,5v-0.5h-1.5091c0.0055,0.0098,0.0091,0.0198,0.0091,0.03V5H17z" fill="#F6BB43"/>
        <path d="M8.5091,4.2C8.5035,4.2098,8.5,4.2198,8.5,4.23V4.5H7v-0.3H8.5091zM17,4.5v-0.3h-1.5091c0.0055,0.0098,0.0091,0.0198,0.0091,0.03V4.5H17z" fill="#FFCE55"/>
        <path d="M21.8,22H2.2c-0.66,0,-1.2,-0.54,-1.2,-1.2v-8.6c0,-0.66,0.54,-1.2,1.2,-1.2h19.6c0.66,0,1.2,0.54,1.2,1.2v8.6C23,21.46,22.46,22,21.8,22z" fill="#8E949C"/>
        <path d="M10.2626,22H21.8c0.66,0,1.2,-0.54,1.2,-1.2v-8.6c0,-0.66,-0.54,-1.2,-1.2,-1.2h-6.3058L10.2626,22z" fill="#231F20" opacity="0.15"/>
        <rect x="1" y="12" width="22" height="1.975" fill="#231F20" opacity="0.1"/>
        <path d="M22.5375,13H1.4625c-0.2544,0,-0.4625,-0.2081,-0.4625,-0.4625V6.2c0,-0.66,0.54,-1.2,1.2,-1.2h19.6c0.66,0,1.2,0.54,1.2,1.2v6.3375C23,12.7919,22.7919,13,22.5375,13z" fill="#656D78"/>
        <path d="M12.4295,13h10.108c0.2544,0,0.4625,-0.2081,0.4625,-0.4625V6.2c0,-0.66,-0.54,-1.2,-1.2,-1.2h-5.3475L12.4295,13z" fill="#231F20" opacity="0.15"/>
        <path d="M14,14.5125v-3.025c0,-0.2692,-0.2183,-0.4875,-0.4875,-0.4875h-3.025c-0.2692,0,-0.4875,0.2183,-0.4875,0.4875v3.025c0,0.2692,0.2183,0.4875,0.4875,0.4875h3.025C13.7817,15,14,14.7817,14,14.5125z" fill="#FFCE55"/>
        <path d="M10,12v2.5125c0,0.2692,0.291,0.4875,0.65,0.4875h2.7c0.359,0,0.65,-0.2183,0.65,-0.4875V12H10z" fill="#F6BB43"/>
      </g>
    </g>
    <g id="overlay">
      <path d="M20.7962,22.7039c0,0.7847,-0.6445,1.2961,-1.3909,1.2961c-0.7463,0,-1.3711,-0.5115,-1.3711,-1.2961C19.1173,22.8083,19.6508,22.8083,20.7962,22.7039z" fill-rule="evenodd" fill="#C18F36"/>
      <path d="M23.8836,21.9314c-0.6454,-0.7084,-1.7348,-2.2438,-1.7348,-3.4277c0,-1.1189,-0.7321,-2.0727,-1.7598,-2.4415c0.0088,-0.0531,0.0143,-0.1075,0.0143,-0.1632c0,-0.5231,-0.4034,-0.9472,-0.9009,-0.9472c-0.4976,0,-0.9009,0.4241,-0.9009,0.9472c0,0.0433,0.0037,0.0857,0.0091,0.1275c-1.0836,0.3392,-1.8672,1.3198,-1.8672,2.4773c0,1.6576,-1.0749,2.668,-1.6781,3.4574c-0.6086,0.6438,3.1831,0.929,4.409,0.929C20.7001,22.89,24.529,22.6398,23.8836,21.9314z" fill-rule="evenodd" fill="#FFCE55"/>
      <path d="M23.8836,21.9314c-0.6454,-0.7084,-1.7348,-2.2438,-1.7348,-3.4277c0,-1.1189,-0.7321,-2.0727,-1.7598,-2.4415c0.0088,-0.0531,0.0143,-0.1075,0.0143,-0.1632c0,-0.5231,-0.3752,-0.9472,-0.8728,-0.9472c-0.0197,0,-0.0305,0.0009,-0.0305,0.0022v7.936c0,0,-0.0075,0.0001,0.0024,0.0001C20.7282,22.89,24.529,22.6398,23.8836,21.9314z" fill-rule="evenodd" fill="#F6BB43"/>
    </g>
  </g>
</svg>
