<?xml version="1.0" encoding="UTF-8"?>
<!DOCTYPE svg PUBLIC "-//W3C//DTD SVG 1.1//EN" "http://www.w3.org/Graphics/SVG/1.1/DTD/svg11.dtd">
<svg version="1.1" id="Layer_1" xmlns="http://www.w3.org/2000/svg" xmlns:xlink="http://www.w3.org/1999/xlink" x="0px" y="0px" width="24px" height="24px" viewBox="0 0 24 24" enable-background="new 0 0 24 24" xml:space="preserve">
  <g id="main">
    <clipPath id="clip_mask">
      <path d="M14,19.5c0,-3.0327,2.4673,-5.5,5.5,-5.5c1.8588,0,3.5039,0.9278,4.5,2.3436V0H0v24h16.3436C14.9278,23.0039,14,21.3588,14,19.5z"/>
    </clipPath>
    <g id="icon" clip-path="url(#clip_mask)">
      <g id="transformed_icon" transform="translate(-1 -1)">
        <path d="M15.3125,2h-6.625C7.7594,2,7,2.7594,7,3.6875v1.525c0,0.8647,0.6594,1.5822,1.5,1.6763V3.9c0,-0.33,0.27,-0.4,0.6,-0.4h5.8c0.33,0,0.6,0.07,0.6,0.4v2.9888c0.8406,-0.0941,1.5,-0.8116,1.5,-1.6763v-1.525C17,2.7594,16.2406,2,15.3125,2z" fill="#656D78"/>
        <path d="M8.5091,4.5C8.5035,4.5098,8.5,4.5198,8.5,4.53V5H7v-0.5H8.5091zM17,5v-0.5h-1.5091c0.0055,0.0098,0.0091,0.0198,0.0091,0.03V5H17z" fill="#F6BB43"/>
        <path d="M8.5091,4.2C8.5035,4.2098,8.5,4.2198,8.5,4.23V4.5H7v-0.3H8.5091zM17,4.5v-0.3h-1.5091c0.0055,0.0098,0.0091,0.0198,0.0091,0.03V4.5H17z" fill="#FFCE55"/>
        <path d="M21.8,22H2.2c-0.66,0,-1.2,-0.54,-1.2,-1.2v-8.6c0,-0.66,0.54,-1.2,1.2,-1.2h19.6c0.66,0,1.2,0.54,1.2,1.2v8.6C23,21.46,22.46,22,21.8,22z" fill="#8E949C"/>
        <path d="M10.2626,22H21.8c0.66,0,1.2,-0.54,1.2,-1.2v-8.6c0,-0.66,-0.54,-1.2,-1.2,-1.2h-6.3058L10.2626,22z" fill="#231F20" opacity="0.15"/>
        <rect x="1" y="12" width="22" height="1.975" fill="#231F20" opacity="0.1"/>
        <path d="M22.5375,13H1.4625c-0.2544,0,-0.4625,-0.2081,-0.4625,-0.4625V6.2c0,-0.66,0.54,-1.2,1.2,-1.2h19.6c0.66,0,1.2,0.54,1.2,1.2v6.3375C23,12.7919,22.7919,13,22.5375,13z" fill="#656D78"/>
        <path d="M12.4295,13h10.108c0.2544,0,0.4625,-0.2081,0.4625,-0.4625V6.2c0,-0.66,-0.54,-1.2,-1.2,-1.2h-5.3475L12.4295,13z" fill="#231F20" opacity="0.15"/>
        <path d="M14,14.5125v-3.025c0,-0.2692,-0.2183,-0.4875,-0.4875,-0.4875h-3.025c-0.2692,0,-0.4875,0.2183,-0.4875,0.4875v3.025c0,0.2692,0.2183,0.4875,0.4875,0.4875h3.025C13.7817,15,14,14.7817,14,14.5125z" fill="#FFCE55"/>
        <path d="M10,12v2.5125c0,0.2692,0.291,0.4875,0.65,0.4875h2.7c0.359,0,0.65,-0.2183,0.65,-0.4875V12H10z" fill="#F6BB43"/>
      </g>
    </g>
    <g id="overlay">
      <circle cx="19.5" cy="19.5" r="4.4899" fill="#5D9CEC"/>
      <path d="M22.6826,16.37c-0.0061,-0.0061,-0.0124,-0.012,-0.0185,-0.0181l-6.3121,6.3121c0.0061,0.0061,0.0119,0.0124,0.0181,0.0185c1.7432,1.7432,4.5694,1.7432,6.3126,0S24.4257,18.1131,22.6826,16.37z" fill="#4B89DC" opacity="0.7"/>
      <path d="M19.2,19h0.6c0.1105,0,0.2,0.0895,0.2,0.2v2.9c0,0.1105,-0.0895,0.2,-0.2,0.2h-0.6c-0.1105,0,-0.2,-0.0895,-0.2,-0.2v-2.9C19,19.0895,19.0895,19,19.2,19zM19,16.9v0.9c0,0.1105,0.0895,0.2,0.2,0.2h0.6c0.1105,0,0.2,-0.0895,0.2,-0.2v-0.9c0,-0.1105,-0.0895,-0.2,-0.2,-0.2h-0.6C19.0895,16.7,19,16.7895,19,16.9z" fill="#FFFFFF"/>
    </g>
  </g>
</svg>
