<?xml version="1.0" encoding="UTF-8"?>
<!DOCTYPE svg PUBLIC "-//W3C//DTD SVG 1.1//EN" "http://www.w3.org/Graphics/SVG/1.1/DTD/svg11.dtd">
<svg version="1.1" id="Layer_1" xmlns="http://www.w3.org/2000/svg" xmlns:xlink="http://www.w3.org/1999/xlink" x="0px" y="0px" width="24px" height="24px" viewBox="0 0 24 24" enable-background="new 0 0 24 24" xml:space="preserve">
  <g id="main">
    <clipPath id="clip_mask">
      <path d="M14,19.5c0,-3.0327,2.4673,-5.5,5.5,-5.5c1.8588,0,3.5039,0.9278,4.5,2.3436V0H0v24h16.3436C14.9278,23.0039,14,21.3588,14,19.5z"/>
    </clipPath>
    <g id="icon" clip-path="url(#clip_mask)">
      <g id="transformed_icon" transform="translate(-1 -1)">
        <path d="M19.725,23H3.275C2.5708,23,2,22.4292,2,21.725V2.275C2,1.5708,2.5708,1,3.275,1h16.45c0.7042,0,1.275,0.5708,1.275,1.275v19.45C21,22.4292,20.4292,23,19.725,23z" fill="#8E949C"/>
        <path d="M18.4375,9H4.5625C4.2518,9,4,8.7482,4,8.4375v-4.875C4,3.2518,4.2518,3,4.5625,3h13.875c0.3107,0,0.5625,0.2518,0.5625,0.5625v4.875C19,8.7482,18.7482,9,18.4375,9z" fill="#7DE2C7"/>
        <path d="M10.275,15h-5.55c-0.4004,0,-0.725,-0.3246,-0.725,-0.725v-3.55c0,-0.4004,0.3246,-0.725,0.725,-0.725h5.55c0.4004,0,0.725,0.3246,0.725,0.725v3.55C11,14.6754,10.6754,15,10.275,15zM11,20.275v-3.55c0,-0.4004,-0.3246,-0.725,-0.725,-0.725h-5.55c-0.4004,0,-0.725,0.3246,-0.725,0.725v3.55c0,0.4004,0.3246,0.725,0.725,0.725h5.55C10.6754,21,11,20.6754,11,20.275zM19,14.275v-3.55c0,-0.4004,-0.3246,-0.725,-0.725,-0.725h-5.55c-0.4004,0,-0.725,0.3246,-0.725,0.725v3.55c0,0.4004,0.3246,0.725,0.725,0.725h5.55C18.6754,15,19,14.6754,19,14.275z" fill="#E6E9EE"/>
        <path d="M18.275,21h-5.55c-0.4004,0,-0.725,-0.3246,-0.725,-0.725v-3.55c0,-0.4004,0.3246,-0.725,0.725,-0.725h5.55c0.4004,0,0.725,0.3246,0.725,0.725v3.55C19,20.6754,18.6754,21,18.275,21z" fill="#F6BB43"/>
        <path d="M17.9661,5.9812c0,1.1609,-0.4701,1.9677,-1.4278,1.9677c-0.9752,0,-1.4047,-0.8765,-1.4105,-1.9445c0,-1.0971,0.4586,-1.9561,1.4337,-1.9561C17.5656,4.0483,17.9661,4.9479,17.9661,5.9812zM16.0101,6.0044c0,0.8648,0.209,1.277,0.5456,1.277c0.3425,0,0.5282,-0.4295,0.5282,-1.2886c0,-0.8358,-0.18,-1.277,-0.534,-1.277C16.2307,4.7158,16.0101,5.1221,16.0101,6.0044zM9.3,12H8v-1.3H7v1.3H5.7v1h1.3v1.3h1v-1.3h1.3V12zM9.3,18H5.7v1h3.6V18zM17.1263,13.4192L16.2071,12.5l0.9192,-0.9192l-0.7071,-0.7071L15.5,11.7929l-0.9192,-0.9192l-0.7071,0.7071l0.9192,0.9192l-0.9192,0.9192l0.7071,0.7071l0.9192,-0.9192l0.9192,0.9192L17.1263,13.4192z" fill="#434A54"/>
        <path d="M19.775,1h-3.7898L9.8667,23H19.8c0.6627,0,1.2,-0.5373,1.2,-1.2V2.225C21,1.5485,20.4515,1,19.775,1z" fill="#24282D" opacity="0.1"/>
        <path d="M17.3,18h-3.6v-1h3.6V18zM17.3,19h-3.6v1h3.6V19z" fill="#FFFFFF"/>
      </g>
    </g>
    <g id="overlay">
      <circle cx="19.5" cy="19.5" r="4.4899" fill="#ED5564"/>
      <path d="M22.6749,16.3251c-0.0061,-0.0061,-0.0124,-0.0121,-0.0186,-0.0182l-6.3493,6.3493c0.0061,0.0062,0.012,0.0125,0.0182,0.0186c1.7534,1.7534,4.5963,1.7534,6.3497,0S24.4283,18.0786,22.6749,16.3251z" fill="#DB4453"/>
      <path d="M21.5799,20.8728L20.2071,19.5l1.3728,-1.3728c0.0781,-0.0781,0.0781,-0.2047,0,-0.2828l-0.4243,-0.4243c-0.0781,-0.0781,-0.2047,-0.0781,-0.2828,0L19.5,18.7929l-1.3728,-1.3728c-0.0781,-0.0781,-0.2047,-0.0781,-0.2828,0l-0.4243,0.4243c-0.0781,0.0781,-0.0781,0.2047,0,0.2828L18.7929,19.5l-1.3728,1.3728c-0.0781,0.0781,-0.0781,0.2047,0,0.2828l0.4243,0.4243c0.0781,0.0781,0.2047,0.0781,0.2828,0L19.5,20.2071l1.3728,1.3728c0.0781,0.0781,0.2047,0.0781,0.2828,0l0.4243,-0.4243C21.658,21.0775,21.658,20.9509,21.5799,20.8728z" fill="#FFFFFF"/>
    </g>
  </g>
</svg>
