<?xml version="1.0" encoding="UTF-8"?>
<!DOCTYPE svg PUBLIC "-//W3C//DTD SVG 1.1//EN" "http://www.w3.org/Graphics/SVG/1.1/DTD/svg11.dtd">
<svg version="1.1" id="Layer_1" xmlns="http://www.w3.org/2000/svg" xmlns:xlink="http://www.w3.org/1999/xlink" x="0px" y="0px" width="24px" height="24px" viewBox="0 0 24 24" enable-background="new 0 0 24 24" xml:space="preserve">
  <g id="icon">
    <path d="M0.134,8.281l1.881,1.883c0.179,0.179,0.468,0.179,0.647,0l5.497,-5.5c0.179,-0.179,0.179,-0.468,0,-0.647L6.277,2.134c-0.179,-0.179,-0.468,-0.179,-0.647,0l-5.497,5.5C-0.045,7.813,-0.045,8.103,0.134,8.281z" fill="#656D78"/>
    <ellipse cx="2.554" cy="8.389" rx="0.665" ry="0.665" fill="#FFFFFF"/>
    <path d="M23.874,7.634l-5.497,-5.5c-0.179,-0.179,-0.468,-0.179,-0.647,0L15.85,4.017c-0.179,0.179,-0.179,0.468,0,0.647l5.497,5.5c0.179,0.179,0.468,0.179,0.647,0l1.881,-1.883C24.053,8.103,24.053,7.813,23.874,7.634z" fill="#3D73AD"/>
    <ellipse cx="21.454" cy="8.389" rx="0.665" ry="0.665" fill="#FFFFFF"/>
    <path d="M10.969,9.254l0.236,-0.06c0.207,0.285,0.53,0.872,0.758,1.287c0.249,0.453,0.507,0.922,0.754,1.303c0.829,1.276,1.67,1.423,2.23,1.423c0.216,0,0.427,-0.042,0.628,-0.124c0.788,-0.322,1.056,-1.186,0.669,-2.152c-0.16,-0.457,-1.341,-3.799,-2.057,-4.783c0.352,-0.29,0.622,-0.473,0.778,-0.512c0.249,0,0.582,-0.098,0.765,0.085l4.735,4.738c0.172,0.172,0.181,0.444,0.027,0.632c-0.369,0.452,-0.905,1.355,-1.562,2.419c-0.225,-0.113,-0.474,-0.174,-0.734,-0.174c-0.448,0,-0.882,0.186,-1.191,0.511l-0.041,0.043c-0.239,0.25,-0.384,0.558,-0.435,0.878c-0.156,-0.038,-0.315,-0.057,-0.472,-0.057c-0.445,0,-0.838,0.16,-1.109,0.449l-0.039,0.042c-0.391,0.418,-0.522,0.994,-0.395,1.517c-0.293,0.069,-0.562,0.219,-0.781,0.438l-0.063,0.063c-0.31,0.31,-0.481,0.724,-0.481,1.163c0,0.096,0.008,0.191,0.024,0.284c-0.362,0.044,-0.697,0.207,-0.959,0.47l-0.02,0.02c-0.642,0.643,-0.642,1.687,-0.001,2.328l0.008,0.008l-0.516,0.517c-0.388,0.388,-1.018,0.388,-1.406,0c-0.388,-0.388,-0.313,-0.926,0.075,-1.315l2.53,-2.616c0.078,-0.078,0.078,-0.37,0,-0.448v0c-0.078,-0.078,-0.204,-0.078,-0.281,0l-3.041,3.126c-0.388,0.388,-1.318,0.688,-1.706,0.3l0,0c-0.388,-0.388,-0.305,-0.935,0.083,-1.324l2.964,-2.966c0.078,-0.078,-0.006,-0.287,-0.083,-0.365v0c-0.078,-0.078,-0.204,-0.078,-0.281,0l-3.258,3.26c-0.388,0.388,-1.018,0.388,-1.406,0l0,0c-0.388,-0.388,-0.305,-1.009,0.083,-1.398l3.264,-3.191c0.078,-0.078,-0.005,-0.287,-0.083,-0.365v0c-0.078,-0.078,-0.204,-0.078,-0.281,0l-2.3,2.159c-0.388,0.388,-1.018,0.388,-1.406,0c-0.388,-0.388,-0.388,-1.018,0,-1.407C5.191,15.461,7.851,12.476,10.969,9.254z" fill="#DEBDAD"/>
    <path d="M15.434,15.614c0.378,-0.405,1.183,-0.251,1.575,0.142c0.634,0.634,1.783,1.784,1.783,1.784c0.388,0.388,0.388,1.018,0,1.407l0,0c-0.388,0.388,-0.935,0.305,-1.323,-0.083l-1.959,-1.916c-0.384,-0.373,-0.481,-0.901,-0.115,-1.291C15.407,15.642,15.421,15.628,15.434,15.614zM17.441,14.353c-0.368,0.385,-0.279,0.91,0.098,1.287l1.343,1.261c0.348,0.348,0.82,0.498,1.218,0.209c0.509,-0.37,0.551,-1.087,0.125,-1.513l-1.323,-1.296c-0.387,-0.402,-1.03,-0.4,-1.415,0.004C17.471,14.322,17.456,14.337,17.441,14.353zM12.723,19.606c-0.007,0.007,-0.014,0.014,-0.021,0.021c-0.382,0.383,-0.299,0.92,0.083,1.303l0.604,0.604c0.426,0.426,1.059,0.468,1.429,-0.041c0.289,-0.398,0.222,-0.954,-0.126,-1.302l-0.584,-0.584C13.726,19.223,13.106,19.223,12.723,19.606zM14.14,17.689c-0.382,0.383,-0.299,0.92,0.083,1.302l1.182,1.349c0.388,0.388,1.239,0.167,1.406,0l0,0c0.388,-0.388,0.388,-1.018,0,-1.49l0,0l-1.223,-1.224c-0.382,-0.383,-1.002,-0.383,-1.385,0C14.182,17.647,14.161,17.668,14.14,17.689zM11.371,8.464c0.416,0.083,1.229,1.919,1.903,2.956c0.674,1.037,1.279,1.121,1.672,1.121c0.126,0,0.253,-0.024,0.377,-0.074c0.51,-0.208,0.506,-0.791,0.297,-1.302c0,0,-1.321,-3.788,-1.995,-4.659s-2.766,-0.262,-3.258,-0.358c-0.492,-0.096,-0.995,-0.43,-1.324,-0.512c-0.249,0,-0.582,-0.098,-0.765,0.085l-4.735,4.738c-0.172,0.172,-0.181,0.444,-0.027,0.632c0.379,0.464,1.173,1.642,2.037,2.925c0.852,-0.938,1.896,-2.078,2.965,-3.219c0.763,-0.815,1.43,-1.516,2.014,-2.118" fill="#CEA699"/>
  </g>
</svg>
