<?xml version="1.0" encoding="UTF-8"?>
<!DOCTYPE svg PUBLIC "-//W3C//DTD SVG 1.1//EN" "http://www.w3.org/Graphics/SVG/1.1/DTD/svg11.dtd">
<svg version="1.1" id="Layer_1" xmlns="http://www.w3.org/2000/svg" xmlns:xlink="http://www.w3.org/1999/xlink" x="0px" y="0px" width="24px" height="24px" viewBox="0 0 24 24" enable-background="new 0 0 24 24" xml:space="preserve">
  <g id="main">
    <clipPath id="clip_mask">
      <path d="M14,19.5c0,-3.0327,2.4673,-5.5,5.5,-5.5c1.8588,0,3.5039,0.9278,4.5,2.3436V0H0v24h16.3436C14.9278,23.0039,14,21.3588,14,19.5z"/>
    </clipPath>
    <g id="icon" clip-path="url(#clip_mask)">
      <g id="transformed_icon" transform="translate(-1 -1)">
        <path d="M17,5l-2,-4H4.2c-0.66,0,-1.2,0.54,-1.2,1.2v19.6c0,0.66,0.54,1.2,1.2,1.2h15.6c0.66,0,1.2,-0.54,1.2,-1.2V7L17,5z" fill="#E6E9EE"/>
        <path d="M21,21.8V7l-3.337,-1.6685L7.5958,22.7685C7.794,22.9133,8.0371,23,8.3,23h11.5C20.46,23,21,22.46,21,21.8z" fill="#24282D" opacity="0.06"/>
        <path d="M15,1v4.8c0,0.66,0.54,1.2,1.2,1.2h4.8L15,1z" fill="#AAB2BD"/>
        <path d="M6,14.5h7.5M6,11.5h11M6,8.5h11" fill="none" stroke="#8E949C" stroke-width="1" stroke-linecap="round" stroke-miterlimit="1" opacity="0.7"/>
        <path d="M14,5.475c0,0.2899,-0.2351,0.525,-0.525,0.525h-7.45C5.7351,6,5.5,5.7649,5.5,5.475v-0.95c0,-0.2899,0.2351,-0.525,0.525,-0.525h7.45c0.2899,0,0.525,0.2351,0.525,0.525V5.475z" fill="#8E949C"/>
        <path d="M5.3909,20.7c-0.0648,0,-0.1353,-0.0096,-0.204,-0.0278c-0.0939,-0.0248,-0.1595,-0.0826,-0.1801,-0.1586c-0.0202,-0.0745,0.0049,-0.1518,0.0706,-0.2178c0.0857,-0.086,0.1861,-0.155,0.2832,-0.2216l0.0513,-0.0354c0.0667,-0.0464,0.1426,-0.0993,0.2296,-0.1181c0.2122,-0.046,0.2493,-0.1672,0.2487,-0.4048c-0.0007,-0.2781,0.0637,-0.5556,0.1915,-0.8246c0.1279,-0.2691,0.3239,-0.4606,0.5994,-0.5854c0.0503,-0.0228,0.1087,-0.0349,0.1689,-0.0349c0.121,0,0.2383,0.0486,0.3062,0.127c0.1759,0.2032,0.1275,0.369,0.0558,0.4723c-0.0656,0.0945,-0.1403,0.1812,-0.2126,0.265l-0.0446,0.0521c-0.082,0.096,-0.1579,0.1797,-0.2323,0.2561c-0.0402,0.0414,-0.0904,0.0754,-0.1411,0.096c-0.0104,0.0042,-0.021,0.0062,-0.032,0.0062c-0.0552,0,-0.1125,-0.0584,-0.1238,-0.0749c-0.0158,-0.0231,-0.0195,-0.0507,-0.0099,-0.0756c0.0208,-0.0539,0.0456,-0.11,0.0862,-0.1556c0.0693,-0.0779,0.141,-0.1558,0.2106,-0.2313l0.0084,-0.0091c0.0794,-0.0861,0.1614,-0.1751,0.24,-0.2643c0.0288,-0.0326,0.0447,-0.0713,0.0416,-0.1012c-0.0018,-0.0163,-0.0092,-0.029,-0.0236,-0.0397c-0.0355,-0.0264,-0.0979,-0.0449,-0.1518,-0.0449c-0.0178,0,-0.0331,0.0019,-0.0456,0.0057c-0.1842,0.0558,-0.3265,0.1864,-0.435,0.3995c-0.1408,0.2764,-0.2143,0.6505,-0.1869,0.9345l0.1049,-0.047c0.1428,-0.0637,0.2905,-0.1296,0.433,-0.1996c0.1325,-0.0651,0.2658,-0.1343,0.3948,-0.2013c0.1325,-0.0689,0.2665,-0.1385,0.3999,-0.2041l0.0139,-0.0068c0.0403,-0.0202,0.0909,-0.0456,0.1457,-0.0456c0.0575,0,0.1347,0.027,0.1765,0.1552l0.0237,0.0725l-0.0722,0.0246c-0.1785,0.0607,-0.2785,0.2067,-0.3843,0.3611c-0.023,0.0335,-0.046,0.067,-0.0697,0.0997c-0.0038,0.0053,-0.0067,0.015,-0.0092,0.0263c0.0135,-0.0006,0.018,-0.0023,0.0192,-0.003c0.0588,-0.0351,0.1197,-0.0694,0.1786,-0.1025c0.3078,-0.1735,0.5981,-0.3372,0.7375,-0.6764c0.023,-0.0557,0.0824,-0.07,0.1303,-0.0815c0.0138,-0.0033,0.0271,-0.0064,0.0372,-0.0101l0.0896,-0.0331l0.0136,0.0945c0.0014,0.01,0.0043,0.021,0.0074,0.0325c0.0107,0.0402,0.0238,0.0901,-0.0004,0.1373c-0.032,0.0627,-0.0661,0.1241,-0.1006,0.1841l0.5485,-0.3867c0.0052,-0.0037,0.0104,-0.0087,0.0161,-0.0138c0.0188,-0.0174,0.0425,-0.0392,0.0753,-0.0499c0.0367,-0.0121,0.0725,-0.0167,0.1073,-0.0212c0.0136,-0.0017,0.0261,-0.0032,0.0386,-0.0053l0.077,-0.0125l0.0116,0.077c0.0019,0.0127,0.0054,0.0261,0.0089,0.0402c0.0108,0.0436,0.0228,0.0918,0.0076,0.142c-0.0198,0.0641,-0.0492,0.1222,-0.0778,0.1783c-0.0018,0.0038,-0.0038,0.0076,-0.0057,0.0114c0.1529,-0.1035,0.3102,-0.2097,0.4641,-0.307c0.0471,-0.0297,0.101,-0.0338,0.1485,-0.0373c0.0176,-0.0014,0.0338,-0.0024,0.0488,-0.0051l0.0784,-0.0131l0.011,0.0785c0.0023,0.0156,0.0064,0.0321,0.0106,0.0497c0.012,0.0498,0.0257,0.1064,0.007,0.1625c-0.0237,0.0714,-0.0566,0.1384,-0.0883,0.2031c-0.0234,0.0475,-0.0459,0.0933,-0.0645,0.1391c-0.0136,0.0336,-0.023,0.0706,-0.0329,0.1124l0.2259,-0.0215l-0.047,0.1174c-0.0486,0.122,-0.1241,0.184,-0.2244,0.184c-0.0247,0,-0.0509,-0.0041,-0.0777,-0.0122c-0.0743,-0.0223,-0.1289,-0.0646,-0.1578,-0.1222c-0.029,-0.0575,-0.0304,-0.1265,-0.0041,-0.1996c0.0289,-0.0799,0.0632,-0.1597,0.0935,-0.2299c0,0,0.0189,-0.0443,0.0261,-0.0613l-0.0328,0.0256c-0.1479,0.1152,-0.2955,0.2302,-0.4435,0.34l-0.0147,0.0109c-0.0677,0.0506,-0.152,0.1137,-0.2251,0.1137c-0.0168,0,-0.0328,-0.0031,-0.0474,-0.0092c-0.052,-0.0219,-0.0865,-0.0545,-0.1026,-0.0967c-0.0262,-0.0689,0.0054,-0.1351,0.0307,-0.1884c0.009,-0.0191,0.017,-0.0353,0.021,-0.0498c0.0099,-0.0347,0.0217,-0.0692,0.0332,-0.1026c0.0041,-0.0117,0.0081,-0.0235,0.0122,-0.0355c-0.0316,0.0203,-0.0624,0.0411,-0.0913,0.063c-0.0896,0.068,-0.1798,0.1387,-0.267,0.2072c-0.1121,0.0881,-0.228,0.179,-0.3445,0.2655c-0.046,0.0342,-0.1145,0.0368,-0.1343,0.0368c-0.0516,0,-0.0876,-0.0156,-0.1073,-0.0463c-0.0187,-0.0294,-0.0288,-0.0609,-0.0357,-0.0929l-0.027,0.016c-0.1052,0.0623,-0.2141,0.1267,-0.3238,0.1888c-0.0635,0.0358,-0.1309,0.0663,-0.2002,0.0905c-0.0694,0.0243,-0.1223,0.0355,-0.1664,0.0355c-0.0546,0,-0.0993,-0.0174,-0.1328,-0.0516c-0.0343,-0.0353,-0.0545,-0.0845,-0.0633,-0.1583c-0.0692,0.0474,-0.1322,0.0904,-0.196,0.1322c-0.0413,0.0272,-0.0865,0.057,-0.1405,0.0609c-0.0051,0.0004,-0.0102,0.0005,-0.0152,0.0005c-0.038,0,-0.0728,-0.0094,-0.1036,-0.0177c-0.012,-0.0032,-0.024,-0.0065,-0.0359,-0.0089l-0.0885,-0.0184l0.0316,-0.0843c0.004,-0.0106,0.0071,-0.0218,0.0103,-0.033c0.0037,-0.013,0.0075,-0.0263,0.0121,-0.0396c-0.0996,0.0473,-0.2052,0.098,-0.3073,0.1505c-0.0044,0.0082,-0.0104,0.0251,-0.0102,0.0366c0.0074,0.4193,-0.2473,0.6662,-0.7171,0.6953C5.4176,20.6996,5.4043,20.7,5.3909,20.7zM5.3058,20.4421c0.0374,0.0119,0.0762,0.018,0.1156,0.018c0.1108,0,0.2224,-0.0491,0.3063,-0.1346c0.0636,-0.065,0.1062,-0.1434,0.1253,-0.2299c-0.0219,0.009,-0.0416,0.018,-0.059,0.0288c-0.1677,0.1035,-0.3314,0.2056,-0.4899,0.3171C5.3046,20.4417,5.3052,20.4419,5.3058,20.4421zM10.5075,20.0975c0.0087,-0.0161,0.016,-0.0335,0.0238,-0.052c0.0222,-0.0523,0.046,-0.1086,0.0929,-0.1485c0.2835,-0.2409,0.5746,-0.4826,0.8561,-0.7163c0.112,-0.0929,0.2219,-0.1841,0.3315,-0.2753c-0.1269,0.0133,-0.2389,0.025,-0.3535,0.0349l-0.0349,0.0035c-0.0321,0.0034,-0.0653,0.0067,-0.098,0.0067c-0.0408,0,-0.0756,-0.0053,-0.1062,-0.0161l-0.009,-0.0031c-0.1074,-0.0377,-0.2411,-0.0845,-0.2858,-0.1854c-0.0459,-0.1035,-0.0029,-0.2704,0.0661,-0.3615c0.2859,-0.3773,0.6456,-0.6618,1.0693,-0.8454c0.1823,-0.0789,0.3729,-0.1416,0.5572,-0.2021c0.0801,-0.0263,0.1627,-0.0535,0.2433,-0.0816c0.0196,-0.0066,0.0424,-0.0138,0.0681,-0.0138l0.0879,-0.0006c0.0765,0,0.2557,0,0.2971,0.168c0.0273,0.1106,-0.0779,0.2346,-0.1786,0.3423c-0.0496,0.0529,-0.1083,0.0925,-0.1649,0.1307c-0.038,0.0258,-0.0773,0.0522,-0.1103,0.0809c-0.0384,0.0335,-0.0713,0.0772,-0.1061,0.1234c-0.0119,0.016,-0.0237,0.0316,-0.0357,0.0469c-0.013,0.0166,-0.024,0.0352,-0.0356,0.0547c-0.0063,0.0103,-0.0125,0.0208,-0.019,0.0311l-0.0915,0.1444l-0.0477,-0.1642c-0.0035,-0.0122,-0.0091,-0.0255,-0.0149,-0.0394c-0.0197,-0.0473,-0.0433,-0.1038,-0.0224,-0.1601c0.0243,-0.0654,0.0752,-0.1304,0.1514,-0.1934c0.0558,-0.046,0.1145,-0.0895,0.1715,-0.1317c0.0658,-0.0486,0.1295,-0.0957,0.189,-0.1458c-0.0003,-0.0015,0.0027,-0.0154,0.0031,-0.0329c-0.0033,-0.0015,-0.0068,-0.003,-0.0089,-0.0034l-0.0149,0.0002c-0.0575,0,-0.1241,0.0023,-0.1809,0.0192c-0.6988,0.207,-1.1631,0.4869,-1.5054,0.9074c-0.0073,0.0091,-0.0158,0.018,-0.0245,0.0269c-0.0068,0.0071,-0.0163,0.0169,-0.0184,0.021c-0.0078,0.0216,-0.0181,0.0456,-0.0282,0.0689c-0.013,0.03,-0.0402,0.0927,-0.0372,0.1113c0.0097,0.0105,0.0806,0.039,0.1505,0.039c0.1763,-0.0054,0.3505,-0.0281,0.5189,-0.0501l0.0717,-0.0093c0.0229,-0.003,0.0433,-0.0043,0.0621,-0.0043c0.1235,0,0.2076,0.0603,0.2644,0.1898l0.0242,0.0549l-1.0676,0.8348c0.1736,-0.0976,0.3505,-0.1973,0.524,-0.2974l0.0831,-0.0475c0.2679,-0.153,0.5444,-0.3111,0.7498,-0.5509c0.0421,-0.049,0.108,-0.0532,0.166,-0.0569c0.0189,-0.0012,0.0367,-0.0022,0.0519,-0.005l0.1512,-0.0279l-0.0678,0.1378c-0.0067,0.0137,-0.0124,0.0285,-0.0184,0.0441c-0.0171,0.0442,-0.036,0.0935,-0.0768,0.1299c-0.1716,0.1529,-0.2411,0.2314,-0.2763,0.3365c0.0048,-0.0039,0.0094,-0.0078,0.0139,-0.0117c0.1035,-0.0903,0.2064,-0.181,0.3094,-0.2717l0.0262,-0.0231c0.1673,-0.1477,0.3404,-0.3003,0.5125,-0.4485c0.0522,-0.045,0.1277,-0.0518,0.168,-0.0518l0.013,0.0002c0.063,0.0026,0.1025,0.0715,0.1166,0.1011c0.0054,0.0121,0.0085,0.0231,0.0098,0.0331c0.1124,-0.0919,0.2459,-0.1742,0.4058,-0.2511c0.042,-0.0202,0.0807,-0.0301,0.1184,-0.0301c0.1109,0,0.1718,0.0856,0.212,0.1422c0.0097,0.0136,0.0164,0.0231,0.0234,0.0318c0.049,0.0624,0.0102,0.1519,-0.0414,0.254c-0.0095,0.0187,-0.0197,0.0371,-0.0302,0.0551c0.2766,-0.1637,0.4953,-0.3673,0.6657,-0.6188c0.0322,-0.0474,0.0837,-0.0692,0.129,-0.0883c0.0172,-0.0072,0.0314,-0.0131,0.0439,-0.0199l0.1262,-0.0694l-0.0122,0.1434c-0.0012,0.0138,-0.001,0.0283,-0.0009,0.0438c0.0002,0.0444,0.0005,0.0943,-0.0234,0.141c-0.0353,0.0687,-0.0736,0.1361,-0.1122,0.2022c0.1133,-0.087,0.2379,-0.1824,0.3601,-0.2715c0.0411,-0.03,0.0883,-0.0462,0.13,-0.0605c0.0169,-0.0057,0.0332,-0.0113,0.049,-0.0178l0.0869,-0.0358l0.0181,0.0922c0.003,0.0151,0.0067,0.0304,0.0103,0.0457c0.0094,0.0397,0.0196,0.0827,0.0219,0.1273c0.0034,0.0629,0.0031,0.1282,0.0025,0.1875c0.1292,-0.069,0.2194,-0.1733,0.3071,-0.2746c0.0402,-0.0465,0.0805,-0.0929,0.1239,-0.1361c0.0203,-0.0202,0.0679,-0.069,0.0679,-0.069c0.0641,-0.0657,0.1304,-0.1337,0.2043,-0.1944c0.0536,-0.0439,0.1169,-0.0672,0.1831,-0.0672c0.1005,0,0.1948,0.0542,0.2524,0.145c0.1567,0.2472,0.0731,0.6838,-0.1626,0.8494c-0.0466,0.0328,-0.1026,0.0401,-0.1476,0.0459c-0.0171,0.0022,-0.0313,0.0041,-0.0438,0.0068l-0.1642,0.0377l0.0789,-0.149l0.0649,-0.1212c0.0541,-0.1007,0.1022,-0.1901,0.1453,-0.2793c0.0078,-0.016,0.0102,-0.0443,0.0052,-0.0607c-0.0155,-0.0508,-0.0374,-0.1025,-0.059,-0.1529c-0.0402,0.0201,-0.0773,0.0395,-0.1036,0.0644c-0.08,0.0759,-0.1592,0.1557,-0.236,0.2331c-0.1119,0.1129,-0.2226,0.2246,-0.3383,0.3284c-0.0588,0.0528,-0.1653,0.1062,-0.2552,0.1062c-0.025,0,-0.0478,-0.0042,-0.0678,-0.0124c-0.0783,-0.032,-0.1095,-0.1265,-0.137,-0.2099c-0.0073,-0.0222,-0.014,-0.0426,-0.0214,-0.061c-0.0042,-0.0105,-0.0072,-0.021,-0.0094,-0.0316c-0.0152,0.0102,-0.0293,0.0199,-0.043,0.0299c-0.0515,0.0376,-0.1027,0.0756,-0.154,0.1136c-0.1065,0.0792,-0.2167,0.161,-0.3288,0.2372c-0.0434,0.0295,-0.0933,0.0369,-0.1374,0.0435c-0.0162,0.0024,-0.0314,0.0047,-0.0456,0.008l-0.0865,0.0207c0,0,-0.0143,-0.1612,-0.0157,-0.1761l-0.0495,0.0334c-0.1299,0.0881,-0.2489,0.1687,-0.3757,0.2442c-0.0724,0.0432,-0.1629,0.0689,-0.2423,0.0689c-0.0114,0,-0.0224,-0.0005,-0.0334,-0.0015c-0.0677,-0.0064,-0.0859,-0.0683,-0.1053,-0.1562c-0.055,0.0359,-0.1163,0.0737,-0.1849,0.0976c-0.0769,0.0268,-0.1886,0.0623,-0.2704,0.0623c-0.0517,0,-0.0901,-0.0133,-0.1175,-0.0407c-0.0408,-0.0405,-0.061,-0.0851,-0.06,-0.1322c0.0016,-0.0797,0.0632,-0.1362,0.1128,-0.1817c0.015,-0.0136,0.0309,-0.0282,0.0424,-0.041c-0.0162,0.0114,-0.0322,0.0229,-0.0484,0.0343c-0.0873,0.0619,-0.1776,0.1259,-0.2596,0.1952c-0.1138,0.0963,-0.227,0.1973,-0.3365,0.2952c-0.1086,0.0971,-0.2211,0.1974,-0.3342,0.2933c-0.0429,0.0363,-0.1158,0.0627,-0.1732,0.0627c-0.0303,0,-0.056,-0.0073,-0.0764,-0.0216c-0.0706,-0.049,-0.0864,-0.1689,-0.0748,-0.2344c0.0058,-0.0331,0.015,-0.0651,0.0263,-0.0976l-0.0017,0.001c-0.1287,0.0749,-0.2502,0.1457,-0.3711,0.2144c-0.3091,0.1758,-0.618,0.3498,-0.9081,0.5127c-0.0284,0.0161,-0.0607,0.0258,-0.0908,0.0271c-0.0488,0.0025,-0.0985,0.0034,-0.1467,0.0042l-0.1982,0.0039L10.5075,20.0975zM14.0174,18.7541c-0.0821,0.0383,-0.1713,0.1041,-0.241,0.1773C13.8698,18.8842,13.9583,18.8191,14.0174,18.7541z" fill="#656D78"/>
        <path d="M18.7863,17.0464c-0.8516,-1.475,-2.7376,-1.9804,-4.2127,-1.1288c-1.475,0.8516,-1.9804,2.7377,-1.1288,4.2127c0.8516,1.475,2.7377,1.9804,4.2127,1.1288C19.1325,20.4075,19.6379,18.5214,18.7863,17.0464zM17.4645,20.8562c-1.2456,0.7191,-2.8382,0.2924,-3.5574,-0.9532c-0.7191,-1.2456,-0.2924,-2.8382,0.9532,-3.5574c1.2456,-0.7191,2.8382,-0.2924,3.5574,0.9532C19.1368,18.5444,18.7101,20.1371,17.4645,20.8562zM14.2493,18.1228l2.4148,-1.3942l0.2741,0.4748l-2.4148,1.3942L14.2493,18.1228zM14.3636,19.323l3.3236,-1.9189l0.2741,0.4748l-3.3236,1.9189L14.3636,19.323zM15.6003,19.9146l1.94,-1.1201l0.2056,0.3561l-1.94,1.1201L15.6003,19.9146z" fill-rule="evenodd" fill="#ED5564" opacity="0.5"/>
      </g>
    </g>
    <g id="overlay">
      <circle cx="19.5" cy="19.5" r="4.4899" fill="#48CFAE"/>
      <path d="M22.6749,16.3251c-0.0061,-0.0061,-0.0124,-0.0121,-0.0186,-0.0182l-6.3493,6.3493c0.0061,0.0062,0.012,0.0125,0.0182,0.0186c1.7534,1.7534,4.5963,1.7534,6.3497,0S24.4283,18.0786,22.6749,16.3251z" fill="#36BC9B" opacity="0.7"/>
      <path d="M21.8,19h-1.8v-1.8c0,-0.1105,-0.0895,-0.2,-0.2,-0.2h-0.6c-0.1105,0,-0.2,0.0895,-0.2,0.2v1.8h-1.8c-0.1105,0,-0.2,0.0895,-0.2,0.2v0.6c0,0.1105,0.0895,0.2,0.2,0.2h1.8v1.8c0,0.1105,0.0895,0.2,0.2,0.2h0.6c0.1105,0,0.2,-0.0895,0.2,-0.2v-1.8h1.8c0.1105,0,0.2,-0.0895,0.2,-0.2v-0.6C22,19.0895,21.9105,19,21.8,19z" fill="#FFFFFF"/>
    </g>
  </g>
</svg>
