<?xml version="1.0" encoding="UTF-8"?>
<!DOCTYPE svg PUBLIC "-//W3C//DTD SVG 1.1//EN" "http://www.w3.org/Graphics/SVG/1.1/DTD/svg11.dtd">
<svg version="1.1" id="Layer_1" xmlns="http://www.w3.org/2000/svg" xmlns:xlink="http://www.w3.org/1999/xlink" x="0px" y="0px" width="24px" height="24px" viewBox="0 0 24 24" enable-background="new 0 0 24 24" xml:space="preserve">
  <g id="main">
    <clipPath id="clip_mask">
      <path d="M17.2877,23.7612c-0.1662,-0.0172,-0.3327,-0.0359,-0.4969,-0.0567c-1.7181,-0.2175,-2.424,-0.5199,-2.6978,-1.1558c-0.1767,-0.4104,-0.0992,-0.8736,0.2005,-1.2245c0.0964,-0.1247,0.1976,-0.2479,0.3043,-0.3778c0.5644,-0.6869,1.1479,-1.3972,1.1479,-2.4428c0,-1.3466,0.7584,-2.5517,1.9429,-3.1718c0.2378,-0.7979,0.9637,-1.3801,1.8198,-1.3801c0.8829,0,1.6272,0.6189,1.8407,1.4553c1.1039,0.6422,1.8093,1.8172,1.8093,3.0966c0,0.4992,0.3702,1.2624,0.8416,1.9482V0H0v24h17.4305C17.3784,23.9236,17.3302,23.8443,17.2877,23.7612z"/>
    </clipPath>
    <g id="icon" clip-path="url(#clip_mask)">
      <g id="transformed_icon" transform="translate(-1 -1)">
        <path d="M19.725,23H3.275C2.5708,23,2,22.4292,2,21.725V2.275C2,1.5708,2.5708,1,3.275,1h16.45c0.7042,0,1.275,0.5708,1.275,1.275v19.45C21,22.4292,20.4292,23,19.725,23z" fill="#8E949C"/>
        <path d="M18.4375,9H4.5625C4.2518,9,4,8.7482,4,8.4375v-4.875C4,3.2518,4.2518,3,4.5625,3h13.875c0.3107,0,0.5625,0.2518,0.5625,0.5625v4.875C19,8.7482,18.7482,9,18.4375,9z" fill="#7DE2C7"/>
        <path d="M10.275,15h-5.55c-0.4004,0,-0.725,-0.3246,-0.725,-0.725v-3.55c0,-0.4004,0.3246,-0.725,0.725,-0.725h5.55c0.4004,0,0.725,0.3246,0.725,0.725v3.55C11,14.6754,10.6754,15,10.275,15zM11,20.275v-3.55c0,-0.4004,-0.3246,-0.725,-0.725,-0.725h-5.55c-0.4004,0,-0.725,0.3246,-0.725,0.725v3.55c0,0.4004,0.3246,0.725,0.725,0.725h5.55C10.6754,21,11,20.6754,11,20.275zM19,14.275v-3.55c0,-0.4004,-0.3246,-0.725,-0.725,-0.725h-5.55c-0.4004,0,-0.725,0.3246,-0.725,0.725v3.55c0,0.4004,0.3246,0.725,0.725,0.725h5.55C18.6754,15,19,14.6754,19,14.275z" fill="#E6E9EE"/>
        <path d="M18.275,21h-5.55c-0.4004,0,-0.725,-0.3246,-0.725,-0.725v-3.55c0,-0.4004,0.3246,-0.725,0.725,-0.725h5.55c0.4004,0,0.725,0.3246,0.725,0.725v3.55C19,20.6754,18.6754,21,18.275,21z" fill="#F6BB43"/>
        <path d="M17.9661,5.9812c0,1.1609,-0.4701,1.9677,-1.4278,1.9677c-0.9752,0,-1.4047,-0.8765,-1.4105,-1.9445c0,-1.0971,0.4586,-1.9561,1.4337,-1.9561C17.5656,4.0483,17.9661,4.9479,17.9661,5.9812zM16.0101,6.0044c0,0.8648,0.209,1.277,0.5456,1.277c0.3425,0,0.5282,-0.4295,0.5282,-1.2886c0,-0.8358,-0.18,-1.277,-0.534,-1.277C16.2307,4.7158,16.0101,5.1221,16.0101,6.0044zM9.3,12H8v-1.3H7v1.3H5.7v1h1.3v1.3h1v-1.3h1.3V12zM9.3,18H5.7v1h3.6V18zM17.1263,13.4192L16.2071,12.5l0.9192,-0.9192l-0.7071,-0.7071L15.5,11.7929l-0.9192,-0.9192l-0.7071,0.7071l0.9192,0.9192l-0.9192,0.9192l0.7071,0.7071l0.9192,-0.9192l0.9192,0.9192L17.1263,13.4192z" fill="#434A54"/>
        <path d="M19.775,1h-3.7898L9.8667,23H19.8c0.6627,0,1.2,-0.5373,1.2,-1.2V2.225C21,1.5485,20.4515,1,19.775,1z" fill="#24282D" opacity="0.1"/>
        <path d="M17.3,18h-3.6v-1h3.6V18zM17.3,19h-3.6v1h3.6V19z" fill="#FFFFFF"/>
      </g>
    </g>
    <g id="overlay">
      <path d="M20.7962,22.7039c0,0.7847,-0.6445,1.2961,-1.3909,1.2961c-0.7463,0,-1.3711,-0.5115,-1.3711,-1.2961C19.1173,22.8083,19.6508,22.8083,20.7962,22.7039z" fill-rule="evenodd" fill="#C18F36"/>
      <path d="M23.8836,21.9314c-0.6454,-0.7084,-1.7348,-2.2438,-1.7348,-3.4277c0,-1.1189,-0.7321,-2.0727,-1.7598,-2.4415c0.0088,-0.0531,0.0143,-0.1075,0.0143,-0.1632c0,-0.5231,-0.4034,-0.9472,-0.9009,-0.9472c-0.4976,0,-0.9009,0.4241,-0.9009,0.9472c0,0.0433,0.0037,0.0857,0.0091,0.1275c-1.0836,0.3392,-1.8672,1.3198,-1.8672,2.4773c0,1.6576,-1.0749,2.668,-1.6781,3.4574c-0.6086,0.6438,3.1831,0.929,4.409,0.929C20.7001,22.89,24.529,22.6398,23.8836,21.9314z" fill-rule="evenodd" fill="#FFCE55"/>
      <path d="M23.8836,21.9314c-0.6454,-0.7084,-1.7348,-2.2438,-1.7348,-3.4277c0,-1.1189,-0.7321,-2.0727,-1.7598,-2.4415c0.0088,-0.0531,0.0143,-0.1075,0.0143,-0.1632c0,-0.5231,-0.3752,-0.9472,-0.8728,-0.9472c-0.0197,0,-0.0305,0.0009,-0.0305,0.0022v7.936c0,0,-0.0075,0.0001,0.0024,0.0001C20.7282,22.89,24.529,22.6398,23.8836,21.9314z" fill-rule="evenodd" fill="#F6BB43"/>
    </g>
  </g>
</svg>
