<?xml version="1.0" encoding="UTF-8"?>
<!DOCTYPE svg PUBLIC "-//W3C//DTD SVG 1.1//EN" "http://www.w3.org/Graphics/SVG/1.1/DTD/svg11.dtd">
<svg version="1.1" id="Layer_1" xmlns="http://www.w3.org/2000/svg" xmlns:xlink="http://www.w3.org/1999/xlink" x="0px" y="0px" width="24px" height="24px" viewBox="0 0 24 24" enable-background="new 0 0 24 24" xml:space="preserve">
  <g id="main">
    <clipPath id="clip_mask">
      <path d="M17.2877,23.7612c-0.1662,-0.0172,-0.3327,-0.0359,-0.4969,-0.0567c-1.7181,-0.2175,-2.424,-0.5199,-2.6978,-1.1558c-0.1767,-0.4104,-0.0992,-0.8736,0.2005,-1.2245c0.0964,-0.1247,0.1976,-0.2479,0.3043,-0.3778c0.5644,-0.6869,1.1479,-1.3972,1.1479,-2.4428c0,-1.3466,0.7584,-2.5517,1.9429,-3.1718c0.2378,-0.7979,0.9637,-1.3801,1.8198,-1.3801c0.8829,0,1.6272,0.6189,1.8407,1.4553c1.1039,0.6422,1.8093,1.8172,1.8093,3.0966c0,0.4992,0.3702,1.2624,0.8416,1.9482V0H0v24h17.4305C17.3784,23.9236,17.3302,23.8443,17.2877,23.7612z"/>
    </clipPath>
    <g id="icon" clip-path="url(#clip_mask)">
      <path d="M0.129,7.034l1.807,1.808c0.172,0.172,0.45,0.172,0.621,0l5.28,-5.283c0.172,-0.172,0.172,-0.45,0,-0.622L6.03,1.129c-0.172,-0.172,-0.45,-0.172,-0.621,0L0.129,6.412C-0.043,6.584,-0.043,6.862,0.129,7.034z" fill="#656D78"/>
      <ellipse cx="2.454" cy="7.137" rx="0.639" ry="0.639" fill="#FFFFFF"/>
      <path d="M22.933,6.412l-5.28,-5.283c-0.172,-0.172,-0.45,-0.172,-0.621,0l-1.807,1.808c-0.172,0.172,-0.172,0.45,0,0.622l5.28,5.283c0.172,0.172,0.45,0.172,0.621,0l1.807,-1.808C23.105,6.862,23.105,6.584,22.933,6.412z" fill="#3D73AD"/>
      <ellipse cx="20.609" cy="7.137" rx="0.639" ry="0.639" fill="#FFFFFF"/>
      <path d="M10.537,7.968l0.226,-0.058c0.199,0.274,0.509,0.838,0.728,1.236c0.239,0.436,0.487,0.886,0.725,1.251c0.797,1.225,1.604,1.367,2.142,1.367c0.207,0,0.41,-0.04,0.603,-0.119c0.757,-0.309,1.014,-1.139,0.642,-2.068c-0.154,-0.439,-1.288,-3.649,-1.975,-4.595c0.338,-0.279,0.597,-0.454,0.747,-0.492c0.24,0,0.559,-0.094,0.735,0.081l4.548,4.551c0.165,0.165,0.174,0.427,0.026,0.608c-0.355,0.435,-0.87,1.302,-1.5,2.323c-0.216,-0.108,-0.455,-0.167,-0.705,-0.167c-0.43,0,-0.847,0.179,-1.144,0.49l-0.039,0.041c-0.23,0.24,-0.369,0.536,-0.418,0.844c-0.149,-0.036,-0.302,-0.055,-0.454,-0.055c-0.427,0,-0.805,0.153,-1.065,0.432l-0.038,0.04c-0.376,0.401,-0.501,0.954,-0.38,1.457c-0.282,0.067,-0.54,0.21,-0.75,0.42l-0.061,0.061c-0.298,0.298,-0.462,0.695,-0.462,1.117c0,0.092,0.008,0.183,0.023,0.272c-0.348,0.043,-0.67,0.199,-0.921,0.451l-0.019,0.019c-0.617,0.618,-0.617,1.62,-0.001,2.237l0.008,0.008l-0.496,0.497c-0.373,0.373,-0.978,0.373,-1.35,0s-0.301,-0.89,0.072,-1.263l2.43,-2.513c0.075,-0.075,0.075,-0.355,0,-0.43v0c-0.075,-0.075,-0.196,-0.075,-0.27,0l-2.921,3.003c-0.373,0.373,-1.266,0.661,-1.639,0.288l0,0c-0.373,-0.373,-0.293,-0.898,0.08,-1.271l2.847,-2.849c0.075,-0.075,-0.005,-0.276,-0.08,-0.35v0c-0.075,-0.075,-0.196,-0.075,-0.27,0l-3.129,3.131c-0.373,0.373,-0.978,0.373,-1.35,0l0,0c-0.373,-0.373,-0.293,-0.97,0.08,-1.343l3.135,-3.065c0.075,-0.075,-0.005,-0.276,-0.08,-0.35v0c-0.075,-0.075,-0.196,-0.075,-0.27,0l-2.209,2.074c-0.373,0.373,-0.978,0.373,-1.35,0c-0.373,-0.373,-0.373,-0.978,0,-1.351C4.986,13.931,7.542,11.063,10.537,7.968z" fill="#DEBDAD"/>
      <path d="M14.826,14.077c0.363,-0.389,1.136,-0.241,1.513,0.136c0.609,0.609,1.713,1.714,1.713,1.714c0.373,0.373,0.373,0.978,0,1.351v0c-0.373,0.373,-0.898,0.293,-1.271,-0.08l-1.882,-1.84c-0.369,-0.358,-0.462,-0.865,-0.111,-1.24C14.8,14.105,14.813,14.091,14.826,14.077zM16.754,12.866c-0.354,0.37,-0.268,0.874,0.094,1.237l1.29,1.211c0.334,0.334,0.788,0.479,1.17,0.201c0.489,-0.355,0.529,-1.044,0.12,-1.453l-1.271,-1.245c-0.372,-0.386,-0.99,-0.384,-1.359,0.004C16.783,12.836,16.768,12.851,16.754,12.866zM12.222,17.912c-0.007,0.007,-0.014,0.014,-0.02,0.02c-0.367,0.368,-0.287,0.884,0.08,1.251l0.58,0.58c0.409,0.41,1.018,0.45,1.373,-0.04c0.277,-0.383,0.213,-0.916,-0.121,-1.251l-0.561,-0.561C13.185,17.544,12.589,17.544,12.222,17.912zM13.583,16.071c-0.367,0.368,-0.287,0.884,0.08,1.251l1.135,1.296c0.373,0.373,1.191,0.16,1.35,0l0,0c0.373,-0.373,0.373,-0.978,0,-1.431l0,0l-1.175,-1.176c-0.367,-0.368,-0.963,-0.368,-1.33,0C13.623,16.031,13.603,16.051,13.583,16.071zM10.923,7.209c0.399,0.08,1.18,1.844,1.828,2.84c0.648,0.996,1.229,1.076,1.606,1.076c0.121,0,0.243,-0.023,0.362,-0.071c0.49,-0.2,0.486,-0.76,0.286,-1.25c0,0,-1.269,-3.639,-1.917,-4.475c-0.648,-0.836,-2.657,-0.252,-3.13,-0.344s-0.956,-0.413,-1.272,-0.492c-0.24,0,-0.559,-0.094,-0.735,0.081L3.404,9.125c-0.165,0.165,-0.174,0.427,-0.026,0.608c0.364,0.446,1.127,1.577,1.956,2.81c0.818,-0.901,1.822,-1.996,2.848,-3.092c0.733,-0.783,1.374,-1.456,1.935,-2.034" fill="#CEA699"/>
    </g>
    <g id="overlay">
      <path d="M20.7962,22.7039c0,0.7847,-0.6445,1.2961,-1.3909,1.2961c-0.7463,0,-1.3711,-0.5115,-1.3711,-1.2961C19.1173,22.8083,19.6508,22.8083,20.7962,22.7039z" fill-rule="evenodd" fill="#C18F36"/>
      <path d="M23.8836,21.9314c-0.6454,-0.7084,-1.7348,-2.2438,-1.7348,-3.4277c0,-1.1189,-0.7321,-2.0727,-1.7598,-2.4415c0.0088,-0.0531,0.0143,-0.1075,0.0143,-0.1632c0,-0.5231,-0.4034,-0.9472,-0.9009,-0.9472c-0.4976,0,-0.9009,0.4241,-0.9009,0.9472c0,0.0433,0.0037,0.0857,0.0091,0.1275c-1.0836,0.3392,-1.8672,1.3198,-1.8672,2.4773c0,1.6576,-1.0749,2.668,-1.6781,3.4574c-0.6086,0.6438,3.1831,0.929,4.409,0.929C20.7001,22.89,24.529,22.6398,23.8836,21.9314z" fill-rule="evenodd" fill="#FFCE55"/>
      <path d="M23.8836,21.9314c-0.6454,-0.7084,-1.7348,-2.2438,-1.7348,-3.4277c0,-1.1189,-0.7321,-2.0727,-1.7598,-2.4415c0.0088,-0.0531,0.0143,-0.1075,0.0143,-0.1632c0,-0.5231,-0.3752,-0.9472,-0.8728,-0.9472c-0.0197,0,-0.0305,0.0009,-0.0305,0.0022v7.936c0,0,-0.0075,0.0001,0.0024,0.0001C20.7282,22.89,24.529,22.6398,23.8836,21.9314z" fill-rule="evenodd" fill="#F6BB43"/>
    </g>
  </g>
</svg>
