<?xml version="1.0" encoding="UTF-8"?>
<!DOCTYPE svg PUBLIC "-//W3C//DTD SVG 1.1//EN" "http://www.w3.org/Graphics/SVG/1.1/DTD/svg11.dtd">
<svg version="1.1" id="Layer_1" xmlns="http://www.w3.org/2000/svg" xmlns:xlink="http://www.w3.org/1999/xlink" x="0px" y="0px" width="24px" height="24px" viewBox="0 0 24 24" enable-background="new 0 0 24 24" xml:space="preserve">
  <g id="icon">
    <g>
      <path d="M4.717,6.3058l14.4757,-0.1193l-0.0218,13.296H4.6471L4.717,6.3058z" fill-rule="evenodd" fill="#E6E9EE"/>
      <path d="M9.5125,11h4.975c0.283,0,0.5125,0.2295,0.5125,0.5125v7.475c0,0.283,-0.2295,0.5125,-0.5125,0.5125h-4.975c-0.283,0,-0.5125,-0.2295,-0.5125,-0.5125v-7.475C9,11.2295,9.2295,11,9.5125,11z" fill-rule="evenodd" fill="#F6BB43"/>
      <g>
        <path d="M7.2,17h-0.2v-7h0.2c0.5523,0,1,-0.4477,1,-1c0,-0.5523,-0.4477,-1,-1,-1H3.8c-0.5523,0,-1,0.4477,-1,1c0,0.5523,0.4477,1,1,1h0.2v7h-0.2c-0.5523,0,-1,0.4477,-1,1c0,0.5523,0.4477,1,1,1h3.4c0.5523,0,1,-0.4477,1,-1C8.2,17.4477,7.7523,17,7.2,17z" fill-rule="evenodd" fill="#AAB2BD"/>
        <path d="M7.2,17h-0.2v-7h0.2c0.5523,0,1,-0.4477,1,-1c0,-0.5523,-0.4477,-1,-1,-1H5.5v11h1.7c0.5523,0,1,-0.4477,1,-1C8.2,17.4477,7.7523,17,7.2,17z" fill-rule="evenodd" fill="#24282D" opacity="0.08"/>
      </g>
      <g>
        <path d="M20.2,17h-0.2v-7h0.2c0.5523,0,1,-0.4477,1,-1c0,-0.5523,-0.4477,-1,-1,-1h-3.4c-0.5523,0,-1,0.4477,-1,1c0,0.5523,0.4477,1,1,1h0.2v7h-0.2c-0.5523,0,-1,0.4477,-1,1c0,0.5523,0.4477,1,1,1h3.4c0.5523,0,1,-0.4477,1,-1C21.2,17.4477,20.7523,17,20.2,17z" fill-rule="evenodd" fill="#AAB2BD"/>
        <path d="M20.2,17h-0.2v-7h0.2c0.5523,0,1,-0.4477,1,-1c0,-0.5523,-0.4477,-1,-1,-1h-1.7v11h1.7c0.5523,0,1,-0.4477,1,-1C21.2,17.4477,20.7523,17,20.2,17z" fill-rule="evenodd" fill="#24282D" opacity="0.08"/>
      </g>
      <path d="M23,21.4375c0,0.3107,-0.2518,0.5625,-0.5625,0.5625H1.5625c-0.3107,0,-0.5625,-0.2518,-0.5625,-0.5625v-0.375c0,-0.3107,0.2518,-0.5625,0.5625,-0.5625h20.875c0.3107,0,0.5625,0.2518,0.5625,0.5625V21.4375z" fill-rule="evenodd" fill="#8E949C"/>
      <path d="M22.1,19.9375c0,0.3107,-0.2518,0.5625,-0.5625,0.5625H2.5625c-0.3107,0,-0.5625,-0.2518,-0.5625,-0.5625v-0.375c0,-0.3107,0.2518,-0.5625,0.5625,-0.5625h18.975c0.3107,0,0.5625,0.2518,0.5625,0.5625V19.9375z" fill-rule="evenodd" fill="#8E949C"/>
      <g>
        <path d="M12.4153,1.1966l10.1909,5.5309C23.1627,7.024,22.9822,8,22.3708,8H1.6188c-0.61,0,-0.7918,-0.9727,-0.2376,-1.2713L11.4557,1.199C11.7601,1.035,12.1103,1.0341,12.4153,1.1966z" fill-rule="evenodd" fill="#8E949C"/>
        <circle cx="12" cy="4.9" r="1.6" fill-rule="evenodd" fill="#E6E9EE"/>
      </g>
      <path d="M22.4375,20.5h-0.9c0.3107,0,0.5625,-0.2518,0.5625,-0.5625v-0.375c0,-0.3107,-0.2518,-0.5625,-0.5625,-0.5625H20.2c0.5523,0,1,-0.4477,1,-1c0,-0.5523,-0.4477,-1,-1,-1h-0.2v-7h0.2c0.5523,0,1,-0.4477,1,-1c0,-0.5523,-0.4477,-1,-1,-1h2.1708c0.6114,0,0.7919,-0.976,0.2354,-1.2725L12.4153,1.1966c-0.1324,-0.0705,-0.2733,-0.3084,-0.4153,0.1826V22h10.4375c0.3107,0,0.5625,-0.2518,0.5625,-0.5625v-0.375C23,20.7518,22.7482,20.5,22.4375,20.5z" fill-rule="evenodd" fill="#24282D" opacity="0.06"/>
    </g>
  </g>
</svg>
