<?xml version="1.0" encoding="UTF-8"?>
<!DOCTYPE svg PUBLIC "-//W3C//DTD SVG 1.1//EN" "http://www.w3.org/Graphics/SVG/1.1/DTD/svg11.dtd">
<svg version="1.1" id="Layer_1" xmlns="http://www.w3.org/2000/svg" xmlns:xlink="http://www.w3.org/1999/xlink" x="0px" y="0px" width="24px" height="24px" viewBox="0 0 24 24" enable-background="new 0 0 24 24" xml:space="preserve">
  <g id="main">
    <clipPath id="clip_mask">
      <path d="M14,19.5c0,-3.0327,2.4673,-5.5,5.5,-5.5c1.8588,0,3.5039,0.9278,4.5,2.3436V0H0v24h16.3436C14.9278,23.0039,14,21.3588,14,19.5z"/>
    </clipPath>
    <g id="icon" clip-path="url(#clip_mask)">
      <g id="transformed_icon" transform="translate(-1 -1)">
        <path d="M19.0526,15.8284c-1.104,0,-1.9989,0.935,-1.9989,2.0884c0,1.1534,0.8949,2.0884,1.9989,2.0884c1.104,0,1.9989,-0.935,1.9989,-2.0884C21.0515,16.7634,20.1565,15.8284,19.0526,15.8284zM4.6022,15.8284c-1.104,0,-1.9989,0.935,-1.9989,2.0884c0,1.1534,0.8949,2.0884,1.9989,2.0884c1.104,0,1.9989,-0.935,1.9989,-2.0884C6.6011,16.7634,5.7061,15.8284,4.6022,15.8284z" fill-rule="evenodd" fill="#656D78"/>
        <path d="M19.0526,17.1118c-0.4255,0,-0.7704,0.3604,-0.7704,0.8049c0,0.4445,0.3449,0.8049,0.7704,0.8049c0.4255,0,0.7704,-0.3604,0.7704,-0.8049C19.823,17.4722,19.478,17.1118,19.0526,17.1118zM4.6022,17.1118c-0.4255,0,-0.7704,0.3604,-0.7704,0.8049c0,0.4445,0.3449,0.8049,0.7704,0.8049c0.4255,0,0.7704,-0.3604,0.7704,-0.8049C5.3726,17.4722,5.0277,17.1118,4.6022,17.1118z" fill-rule="evenodd" fill="#CCD0D9"/>
        <path d="M23,6.9528V17.9h-1.2406c0,-1.6,-1.2119,-2.828,-2.7068,-2.828c-1.495,0,-2.7069,1.228,-2.7069,2.828H8V6.9528C8,6.3761,8.6061,6,9.1581,6h12.8929C22.6029,6,23,6.3761,23,6.9528zM7.5,9.0412v8.3535c0,0.2153,-0.0918,0.4311,-0.2523,0.5294c0,-0.0042,-0.0012,-0.0134,-0.0012,-0.0176c0,-1.5498,-1.2026,-2.8165,-2.686,-2.8165c-1.4835,0,-2.686,1.2359,-2.686,2.7857c0,0.022,0.0027,0.0243,0.0032,0.0243h-0.3155c-0.276,0,-0.5622,-0.217,-0.5622,-0.5053c0,0,0,-2.8426,0,-4.6553c0,-0.2343,0.0312,-0.5454,0.096,-0.6795c0.8745,-1.7838,1.2158,-2.6302,1.424,-2.9782C2.7282,8.7336,2.7437,8.6,3.0197,8.6h4.0395C7.3352,8.6,7.5,8.7528,7.5,9.0412zM6.4,9.6H3.0614l-1.0612,2.5476L2.0203,13H6.4V9.6z" fill-rule="evenodd" fill="#79828E"/>
        <polygon points="6.4,9.6 3,9.6 1.9,12.1 1.9,13 6.4,13" fill="#71E1FF" stroke-linejoin="miter"/>
        <polygon points="5.41,9.6 6.4,9.6 6.4,13 4.53,13" fill="#3BAEDA" stroke-linejoin="miter" opacity="0.3"/>
        <path d="M22.0509,6h-5.185l-3.6759,11.9h3.1557c0,-1.6,1.2119,-2.828,2.7069,-2.828c1.4949,0,2.7068,1.228,2.7068,2.828H23V6.9528C23,6.3761,22.6029,6,22.0509,6z" fill="#24282D" opacity="0.1"/>
      </g>
    </g>
    <g id="overlay">
      <circle cx="19.5" cy="19.5" r="4.4899" fill="#48CFAE"/>
      <path d="M22.6749,16.3251c-0.0061,-0.0061,-0.0124,-0.0121,-0.0186,-0.0182l-6.3493,6.3493c0.0061,0.0062,0.012,0.0125,0.0182,0.0186c1.7534,1.7534,4.5963,1.7534,6.3497,0S24.4283,18.0786,22.6749,16.3251z" fill="#36BC9B" opacity="0.7"/>
      <path d="M21.8,19h-1.8v-1.8c0,-0.1105,-0.0895,-0.2,-0.2,-0.2h-0.6c-0.1105,0,-0.2,0.0895,-0.2,0.2v1.8h-1.8c-0.1105,0,-0.2,0.0895,-0.2,0.2v0.6c0,0.1105,0.0895,0.2,0.2,0.2h1.8v1.8c0,0.1105,0.0895,0.2,0.2,0.2h0.6c0.1105,0,0.2,-0.0895,0.2,-0.2v-1.8h1.8c0.1105,0,0.2,-0.0895,0.2,-0.2v-0.6C22,19.0895,21.9105,19,21.8,19z" fill="#FFFFFF"/>
    </g>
  </g>
</svg>
