<?xml version="1.0" encoding="UTF-8"?>
<!DOCTYPE svg PUBLIC "-//W3C//DTD SVG 1.1//EN" "http://www.w3.org/Graphics/SVG/1.1/DTD/svg11.dtd">
<svg version="1.1" id="Layer_1" xmlns="http://www.w3.org/2000/svg" xmlns:xlink="http://www.w3.org/1999/xlink" x="0px" y="0px" width="24px" height="24px" viewBox="0 0 24 24" enable-background="new 0 0 24 24" xml:space="preserve">
  <g id="main">
    <clipPath id="clip_mask">
      <path d="M14,19.5c0,-3.0327,2.4673,-5.5,5.5,-5.5c1.8588,0,3.5039,0.9278,4.5,2.3436V0H0v24h16.3436C14.9278,23.0039,14,21.3588,14,19.5z"/>
    </clipPath>
    <g id="icon" clip-path="url(#clip_mask)">
      <g id="transformed_icon" transform="translate(-1 -1)">
        <path d="M22.05,2H2.025C1.4589,2,1,2.4589,1,3.025v18.95c0,0.5661,0.4589,1.025,1.025,1.025H22.05c0.5225,0,0.95,-0.4275,0.95,-0.95v-19.1C23,2.4275,22.5725,2,22.05,2z" fill="#E6E9EE"/>
        <path d="M1,6.5h22M1,10.5h22M1,14.5h22M1,18.5h22" fill="none" stroke="#231F20" stroke-width="1" stroke-miterlimit="1" opacity="0.15"/>
        <path d="M22.05,2h-3.8918l-6.943,21H22.05c0.5225,0,0.95,-0.4275,0.95,-0.95v-19.1C23,2.4275,22.5725,2,22.05,2z" fill="#24282D" opacity="0.06"/>
        <path d="M19.763,4.847l-2.5504,1.685c-0.1277,0.0952,-0.0868,0.288,0.0565,0.3576l0.8207,0.3781L15.849,12.152l-3.3055,-1.3614c-0.2066,-0.1213,-0.4727,-0.0377,-0.5728,0.1799l-1.9114,4.1542l-3.3055,-1.3614c-0.2066,-0.1213,-0.4727,-0.0377,-0.5728,0.1799l-2.5339,5.5212c-0.0935,0.2031,-0.0046,0.4436,0.1986,0.537l0.5414,0.2491c0.2031,0.0935,0.4436,0.0046,0.537,-0.1986l2.0716,-4.5165l3.3055,1.3614c0.2065,0.1213,0.4727,0.0377,0.5728,-0.1799l1.9114,-4.1542l3.3055,1.3614c0.2066,0.1213,0.4727,0.0377,0.5728,-0.1799l2.7031,-5.8889l0.8207,0.3781c0.1474,0.0715,0.3207,-0.0263,0.3083,-0.1897l-0.3943,-3.0423C20.089,4.8343,19.8972,4.747,19.763,4.847z" fill="#38BA92"/>
      </g>
    </g>
    <g id="overlay">
      <circle cx="19.5" cy="19.5" r="4.4899" fill="#5D9CEC"/>
      <path d="M22.6826,16.37c-0.0061,-0.0061,-0.0124,-0.012,-0.0185,-0.0181l-6.3121,6.3121c0.0061,0.0061,0.0119,0.0124,0.0181,0.0185c1.7432,1.7432,4.5694,1.7432,6.3126,0S24.4257,18.1131,22.6826,16.37z" fill="#4B89DC" opacity="0.7"/>
      <path d="M19.2,19h0.6c0.1105,0,0.2,0.0895,0.2,0.2v2.9c0,0.1105,-0.0895,0.2,-0.2,0.2h-0.6c-0.1105,0,-0.2,-0.0895,-0.2,-0.2v-2.9C19,19.0895,19.0895,19,19.2,19zM19,16.9v0.9c0,0.1105,0.0895,0.2,0.2,0.2h0.6c0.1105,0,0.2,-0.0895,0.2,-0.2v-0.9c0,-0.1105,-0.0895,-0.2,-0.2,-0.2h-0.6C19.0895,16.7,19,16.7895,19,16.9z" fill="#FFFFFF"/>
    </g>
  </g>
</svg>
