<?xml version="1.0" encoding="UTF-8"?>
<!DOCTYPE svg PUBLIC "-//W3C//DTD SVG 1.1//EN" "http://www.w3.org/Graphics/SVG/1.1/DTD/svg11.dtd">
<svg version="1.1" id="Layer_1" xmlns="http://www.w3.org/2000/svg" xmlns:xlink="http://www.w3.org/1999/xlink" x="0px" y="0px" width="24px" height="24px" viewBox="0 0 24 24" enable-background="new 0 0 24 24" xml:space="preserve">
  <g id="icon">
    <path d="M22.05,2H2.025C1.4589,2,1,2.4589,1,3.025v18.95c0,0.5661,0.4589,1.025,1.025,1.025H22.05c0.5225,0,0.95,-0.4275,0.95,-0.95v-19.1C23,2.4275,22.5725,2,22.05,2z" fill="#E6E9EE"/>
    <path d="M1,6.5h22M1,10.5h22M1,14.5h22M1,18.5h22" fill="none" stroke="#231F20" stroke-width="1" stroke-miterlimit="1" opacity="0.15"/>
    <path d="M22.05,2h-3.8918l-6.943,21H22.05c0.5225,0,0.95,-0.4275,0.95,-0.95v-19.1C23,2.4275,22.5725,2,22.05,2z" fill="#24282D" opacity="0.06"/>
    <path d="M19.763,4.847l-2.5504,1.685c-0.1277,0.0952,-0.0868,0.288,0.0565,0.3576l0.8207,0.3781L15.849,12.152l-3.3055,-1.3614c-0.2066,-0.1213,-0.4727,-0.0377,-0.5728,0.1799l-1.9114,4.1542l-3.3055,-1.3614c-0.2066,-0.1213,-0.4727,-0.0377,-0.5728,0.1799l-2.5339,5.5212c-0.0935,0.2031,-0.0046,0.4436,0.1986,0.537l0.5414,0.2491c0.2031,0.0935,0.4436,0.0046,0.537,-0.1986l2.0716,-4.5165l3.3055,1.3614c0.2065,0.1213,0.4727,0.0377,0.5728,-0.1799l1.9114,-4.1542l3.3055,1.3614c0.2066,0.1213,0.4727,0.0377,0.5728,-0.1799l2.7031,-5.8889l0.8207,0.3781c0.1474,0.0715,0.3207,-0.0263,0.3083,-0.1897l-0.3943,-3.0423C20.089,4.8343,19.8972,4.747,19.763,4.847z" fill="#38BA92"/>
  </g>
</svg>
