<?xml version="1.0" encoding="UTF-8"?>
<!DOCTYPE svg PUBLIC "-//W3C//DTD SVG 1.1//EN" "http://www.w3.org/Graphics/SVG/1.1/DTD/svg11.dtd">
<svg version="1.1" id="Layer_1" xmlns="http://www.w3.org/2000/svg" xmlns:xlink="http://www.w3.org/1999/xlink" x="0px" y="0px" width="24px" height="24px" viewBox="0 0 24 24" enable-background="new 0 0 24 24" xml:space="preserve">
  <g id="main">
    <clipPath id="clip_mask">
      <path d="M14,19.5c0,-3.0327,2.4673,-5.5,5.5,-5.5c1.8588,0,3.5039,0.9278,4.5,2.3436V0H0v24h16.3436C14.9278,23.0039,14,21.3588,14,19.5z"/>
    </clipPath>
    <g id="icon" clip-path="url(#clip_mask)">
      <path d="M21.617,4H1.383C0.619,4,0,4.619,0,5.383v11.233C0,17.381,0.619,18,1.383,18h20.233c0.764,0,1.383,-0.619,1.383,-1.383V5.383C23,4.619,22.381,4,21.617,4z" fill="#666D78"/>
      <path d="M10.177,18h11.439c0.764,0,1.383,-0.619,1.383,-1.383V5.383c0,-0.764,-0.619,-1.383,-1.383,-1.383h-7.149L10.177,18z" fill="#444A54" opacity="0.3"/>
      <circle cx="20" cy="7" r="1" fill="#F6F7FB"/>
      <path d="M5,2.433V3.5H2V2.433c0,-0.239,0.194,-0.433,0.433,-0.433H3V0.3c0,-0.166,0.134,-0.3,0.3,-0.3h0.4c0.166,0,0.3,0.134,0.3,0.3v1.7h0.567C4.806,2,5,2.194,5,2.433zM9,2.433V3.5H6V2.433c0,-0.239,0.194,-0.433,0.433,-0.433H7V0.3c0,-0.166,0.134,-0.3,0.3,-0.3h0.4c0.166,0,0.3,0.134,0.3,0.3v1.7h0.567C8.806,2,9,2.194,9,2.433zM13,2.433V3.5h-3V2.433c0,-0.239,0.194,-0.433,0.433,-0.433H11V0.3c0,-0.166,0.134,-0.3,0.3,-0.3h0.4c0.166,0,0.3,0.134,0.3,0.3v1.7h0.567C12.806,2,13,2.194,13,2.433zM17,2.433V3.5h-3V2.433c0,-0.239,0.194,-0.433,0.433,-0.433H15V0.3c0,-0.166,0.134,-0.3,0.3,-0.3h0.4c0.166,0,0.3,0.134,0.3,0.3v1.7h0.567C16.806,2,17,2.194,17,2.433zM21,2.433V3.5h-3V2.433c0,-0.239,0.194,-0.433,0.433,-0.433H19V0.3c0,-0.166,0.134,-0.3,0.3,-0.3h0.4c0.166,0,0.3,0.134,0.3,0.3v1.7h0.567C20.806,2,21,2.194,21,2.433z" fill="#AAB2BD"/>
      <path d="M4.567,20H4v1.7c0,0.166,-0.134,0.3,-0.3,0.3h-0.4c-0.166,0,-0.3,-0.134,-0.3,-0.3v-1.7h-0.567c-0.239,0,-0.433,-0.194,-0.433,-0.433V18.5h3v1.067C5,19.806,4.806,20,4.567,20zM8.567,20H8v1.7c0,0.166,-0.134,0.3,-0.3,0.3h-0.4c-0.166,0,-0.3,-0.134,-0.3,-0.3v-1.7h-0.567c-0.239,0,-0.433,-0.194,-0.433,-0.433V18.5h3v1.067C9,19.806,8.806,20,8.567,20zM12.567,20H12v1.7c0,0.166,-0.134,0.3,-0.3,0.3h-0.4c-0.166,0,-0.3,-0.134,-0.3,-0.3v-1.7h-0.567c-0.239,0,-0.433,-0.194,-0.433,-0.433V18.5h3v1.067C13,19.806,12.806,20,12.567,20zM16.567,20H16v1.7c0,0.166,-0.134,0.3,-0.3,0.3h-0.4c-0.166,0,-0.3,-0.134,-0.3,-0.3v-1.7h-0.567c-0.239,0,-0.433,-0.194,-0.433,-0.433V18.5h3v1.067C17,19.806,16.806,20,16.567,20zM20.567,20H20v1.7c0,0.166,-0.134,0.3,-0.3,0.3h-0.4c-0.166,0,-0.3,-0.134,-0.3,-0.3v-1.7h-0.567c-0.239,0,-0.433,-0.194,-0.433,-0.433V18.5h3v1.067C21,19.806,20.806,20,20.567,20z" fill="#AAB2BD"/>
    </g>
    <g id="overlay">
      <circle cx="19.5" cy="19.5" r="4.4899" fill="#48CFAE"/>
      <path d="M22.6749,16.3251c-0.0061,-0.0061,-0.0124,-0.0121,-0.0186,-0.0182l-6.3493,6.3493c0.0061,0.0062,0.012,0.0125,0.0182,0.0186c1.7534,1.7534,4.5963,1.7534,6.3497,0S24.4283,18.0786,22.6749,16.3251z" fill="#36BC9B" opacity="0.7"/>
      <path d="M21.8,19h-1.8v-1.8c0,-0.1105,-0.0895,-0.2,-0.2,-0.2h-0.6c-0.1105,0,-0.2,0.0895,-0.2,0.2v1.8h-1.8c-0.1105,0,-0.2,0.0895,-0.2,0.2v0.6c0,0.1105,0.0895,0.2,0.2,0.2h1.8v1.8c0,0.1105,0.0895,0.2,0.2,0.2h0.6c0.1105,0,0.2,-0.0895,0.2,-0.2v-1.8h1.8c0.1105,0,0.2,-0.0895,0.2,-0.2v-0.6C22,19.0895,21.9105,19,21.8,19z" fill="#FFFFFF"/>
    </g>
  </g>
</svg>
