<?xml version="1.0" encoding="UTF-8"?>
<!DOCTYPE svg PUBLIC "-//W3C//DTD SVG 1.1//EN" "http://www.w3.org/Graphics/SVG/1.1/DTD/svg11.dtd">
<svg version="1.1" id="Layer_1" xmlns="http://www.w3.org/2000/svg" xmlns:xlink="http://www.w3.org/1999/xlink" x="0px" y="0px" width="24px" height="24px" viewBox="0 0 24 24" enable-background="new 0 0 24 24" xml:space="preserve">
  <g id="main">
    <clipPath id="clip_mask">
      <path d="M14.7207,23.9925c-0.5738,-0.6097,-0.6845,-0.9473,-0.7137,-1.1971c-0.0744,-0.6281,0.3924,-0.9527,0.6167,-1.1087c0.1577,-0.1098,0.3738,-0.2601,0.6071,-0.5021c0.0619,-0.0643,0.0954,-0.1019,0.1116,-0.1208c0.1002,-0.1807,0.2162,-0.3173,0.4884,-0.581c0.2072,-0.2008,0.3844,-0.3622,0.5428,-0.4925c-0.5537,-0.0737,-1.0516,-0.3039,-1.4038,-0.6561c-0.6199,-0.6198,-1.1922,-1.8251,-0.7641,-3.1813c0.0165,-0.0523,0.0374,-0.1033,0.0623,-0.1523c0.0283,-0.0558,0.0567,-0.0995,0.072,-0.1229c0.1592,-0.2454,0.4198,-0.412,0.709,-0.4508c0.0529,-0.2906,0.2319,-0.544,0.4901,-0.6906c0.0303,-0.0173,0.0771,-0.044,0.1358,-0.0699c0.0455,-0.0201,0.0924,-0.0367,0.1403,-0.0498c0.2837,-0.0773,0.5734,-0.1166,0.8614,-0.1166c0.7796,0,1.4448,0.2887,1.9027,0.6258c0.0011,-0.0008,0.0023,-0.0014,0.0034,-0.0022c0.4908,-0.3397,1.4191,-0.5173,2.1188,-0.5173c0.8392,0,1.5095,0.2376,1.94,0.6873l0.9027,0.9025c0.0736,0.0738,0.1354,0.1551,0.1854,0.2413c0.0962,0.0378,0.1865,0.0897,0.2702,0.1523V0H0v24h14.7271C14.7251,23.9974,14.7227,23.9951,14.7207,23.9925z"/>
    </clipPath>
    <g id="icon" clip-path="url(#clip_mask)">
      <g id="transformed_icon" transform="translate(-1 -1)">
        <path d="M21.509,1H2.491C1.668,1,1,1.668,1,2.491v19.018c0,0.824,0.668,1.491,1.491,1.491h19.018c0.824,0,1.491,-0.668,1.491,-1.491V2.491C23,1.668,22.332,1,21.509,1zM12,21.533c-5.265,0,-9.533,-4.268,-9.533,-9.533S6.735,2.467,12,2.467s9.533,4.268,9.533,9.533S17.265,21.533,12,21.533z" fill="#666D78"/>
        <path d="M10.991,20.433c-0.077,0,-0.149,-0.008,-0.202,-0.014c-0.737,-0.083,-2.882,-0.812,-3.428,-1.357c-0.012,-0.012,-0.025,-0.025,-0.038,-0.037c-0.225,-0.214,-0.43,-0.481,-0.249,-1.165l0.021,-0.079c0.169,-0.647,0.606,-2.322,2.224,-3.76c-0.226,-0.301,-0.4,-0.64,-0.515,-0.999c-0.143,0.044,-0.289,0.081,-0.436,0.11c-1.168,0.227,-2.669,1.379,-3.03,2.009c-0.128,0.223,-0.332,0.52,-0.63,0.52c-0.328,0,-0.473,-0.335,-0.543,-0.497c-0.297,-0.685,-0.744,-2.925,-0.55,-3.675c0.004,-0.017,0.008,-0.034,0.013,-0.052c0.071,-0.304,0.197,-0.617,0.875,-0.8l0.078,-0.021c0.394,-0.108,1.129,-0.31,2.097,-0.31c0.753,0,1.501,0.124,2.227,0.37c0.147,-0.351,0.353,-0.675,0.607,-0.957c-0.106,-0.1,-0.207,-0.206,-0.302,-0.317C8.43,8.495,6.692,7.758,5.97,7.758c-0.264,0,-0.632,-0.032,-0.772,-0.312c-0.141,-0.281,0.067,-0.565,0.166,-0.701c0.44,-0.602,2.138,-2.113,2.878,-2.318c0.017,-0.005,0.034,-0.01,0.051,-0.015c0.084,-0.025,0.189,-0.057,0.318,-0.057c0.265,0,0.521,0.134,0.806,0.422l0.057,0.057c0.469,0.469,1.683,1.685,2.111,3.807c0.131,-0.016,0.263,-0.023,0.395,-0.023c0.245,0,0.488,0.027,0.725,0.08c0.033,-0.144,0.074,-0.286,0.122,-0.426c0.389,-1.135,0.152,-3.022,-0.209,-3.653c-0.128,-0.223,-0.28,-0.55,-0.131,-0.811c0.063,-0.11,0.199,-0.24,0.495,-0.24c0.077,0,0.149,0.008,0.202,0.014c0.736,0.083,2.881,0.812,3.428,1.357c0.012,0.012,0.025,0.025,0.038,0.037c0.225,0.214,0.43,0.481,0.249,1.165l-0.021,0.079c-0.169,0.646,-0.606,2.32,-2.22,3.757c0.224,0.304,0.396,0.644,0.508,1.004c0.152,-0.049,0.306,-0.088,0.466,-0.119c1.168,-0.227,2.669,-1.379,3.03,-2.009c0.128,-0.223,0.332,-0.52,0.63,-0.52c0.328,0,0.473,0.335,0.543,0.497c0.297,0.686,0.744,2.925,0.55,3.675c-0.004,0.017,-0.008,0.034,-0.013,0.052c-0.071,0.304,-0.197,0.617,-0.875,0.8l-0.079,0.021c-0.394,0.108,-1.129,0.31,-2.098,0.31c0,0,0,0,0,0c-0.767,0,-1.529,-0.129,-2.267,-0.384c-0.144,0.343,-0.345,0.661,-0.593,0.939c0.117,0.108,0.227,0.223,0.334,0.346c0.779,0.907,2.517,1.644,3.239,1.644c0.264,0,0.632,0.032,0.772,0.312c0.141,0.281,-0.067,0.565,-0.166,0.701c-0.44,0.602,-2.138,2.113,-2.878,2.318c-0.017,0.005,-0.034,0.01,-0.051,0.015c-0.084,0.026,-0.189,0.057,-0.318,0.057c-0.264,0,-0.521,-0.134,-0.806,-0.422l-0.057,-0.058c-0.471,-0.471,-1.691,-1.692,-2.115,-3.828c-0.144,0.019,-0.29,0.029,-0.434,0.029c-0.239,0,-0.476,-0.026,-0.708,-0.076c-0.034,0.15,-0.076,0.299,-0.127,0.448c-0.389,1.135,-0.152,3.022,0.209,3.653c0.128,0.223,0.28,0.55,0.131,0.811C11.423,20.303,11.287,20.433,10.991,20.433z" fill-rule="evenodd" fill="#5D9CEC"/>
        <circle cx="12" cy="12" r="3.5" fill-rule="evenodd" fill="#3E74AE"/>
        <path d="M2.32,3.2c0,-0.486,0.394,-0.88,0.88,-0.88s0.88,0.394,0.88,0.88s-0.394,0.88,-0.88,0.88S2.32,3.686,2.32,3.2zM20.8,4.08c0.486,0,0.88,-0.394,0.88,-0.88s-0.394,-0.88,-0.88,-0.88s-0.88,0.394,-0.88,0.88S20.314,4.08,20.8,4.08zM20.8,21.68c0.486,0,0.88,-0.394,0.88,-0.88s-0.394,-0.88,-0.88,-0.88s-0.88,0.394,-0.88,0.88S20.314,21.68,20.8,21.68zM3.2,21.68c0.486,0,0.88,-0.394,0.88,-0.88s-0.394,-0.88,-0.88,-0.88s-0.88,0.394,-0.88,0.88S2.714,21.68,3.2,21.68z" fill="#FFFFFF"/>
        <path d="M23,2.491v19.018c0,0.824,-0.668,1.491,-1.491,1.491H7.337l0.945,-2.219c1.142,0.484,2.399,0.752,3.717,0.752c5.265,0,9.533,-4.268,9.533,-9.533c0,-3.931,-2.379,-7.305,-5.776,-8.764L16.711,1h4.798C22.332,1,23,1.668,23,2.491zM16.879,6.219L16.9,6.14c0.182,-0.684,-0.023,-0.951,-0.249,-1.165c-0.013,-0.012,-0.026,-0.025,-0.038,-0.037c-0.225,-0.224,-0.721,-0.48,-1.278,-0.708L8.702,19.797c0.781,0.315,1.665,0.575,2.086,0.623c0.053,0.006,0.125,0.014,0.202,0.014c0.296,0,0.433,-0.131,0.495,-0.24c0.149,-0.261,-0.003,-0.588,-0.131,-0.811c-0.361,-0.631,-0.598,-2.519,-0.209,-3.653c0.036,-0.104,0.066,-0.209,0.093,-0.313c0.245,0.054,0.5,0.084,0.761,0.084c0.152,0,0.3,-0.011,0.447,-0.029c0.449,2.046,1.623,3.225,2.083,3.686l0.057,0.058c0.286,0.288,0.542,0.422,0.806,0.422c0.129,0,0.234,-0.032,0.318,-0.057c0.017,-0.005,0.034,-0.01,0.051,-0.015c0.741,-0.206,2.439,-1.716,2.878,-2.318c0.1,-0.136,0.307,-0.42,0.166,-0.701c-0.14,-0.28,-0.508,-0.312,-0.772,-0.312c-0.722,0,-2.46,-0.736,-3.239,-1.644c-0.068,-0.08,-0.139,-0.154,-0.212,-0.227c0.268,-0.293,0.487,-0.631,0.643,-1.003c0.685,0.217,1.388,0.328,2.095,0.328c0,0,0,0,0,0c0.969,0,1.703,-0.202,2.098,-0.31l0.079,-0.021c0.678,-0.183,0.804,-0.496,0.875,-0.8c0.004,-0.018,0.008,-0.035,0.013,-0.052c0.194,-0.75,-0.253,-2.99,-0.55,-3.675c-0.07,-0.161,-0.215,-0.497,-0.543,-0.497c-0.298,0,-0.502,0.297,-0.63,0.52c-0.361,0.631,-1.862,1.782,-3.03,2.009c-0.102,0.02,-0.202,0.045,-0.3,0.071c-0.124,-0.388,-0.315,-0.747,-0.558,-1.063C16.294,8.456,16.715,6.849,16.879,6.219z" fill-rule="evenodd" fill="#231F20" opacity="0.15"/>
      </g>
    </g>
    <g id="overlay">
      <path d="M16.9638,21.2337l3.8088,-3.7678l0.6982,0.6982l-3.8088,3.7678L16.9638,21.2337z" fill-rule="evenodd" fill="#A38671"/>
      <polygon points="17.3059,21.5738 17.6621,21.9299 21.4709,18.1621 21.0827,17.7739" fill-rule="evenodd" fill="#8E725E" stroke-linejoin="miter" opacity="0.7"/>
      <polygon points="19.0995,19.121 18.071,20.1375 18.7606,20.8443 19.8615,19.7561" fill-rule="evenodd" fill="#231F20" stroke-linejoin="miter" opacity="0.2"/>
      <path d="M15.0001,22.6791c-0.0095,-0.0809,0.4365,-0.2671,0.9508,-0.8007c0.4287,-0.4448,0.085,-0.202,0.5758,-0.6775c0.7639,-0.7401,0.8785,-0.6867,0.9433,-0.7021c0.1416,0.0968,0.8498,0.8057,0.9317,0.9622c0.0175,0.0335,0.0583,0.1805,-0.6895,0.9813c-0.4659,0.4988,-0.1944,0.1144,-0.6316,0.5429c-0.5218,0.5116,-0.7296,1.0052,-0.8279,0.9771C15.9399,23.873,15.0299,22.9325,15.0001,22.6791z" fill-rule="evenodd" fill="#5D9CEC"/>
      <path d="M16.2529,23.9624c0.0983,0.0281,0.3061,-0.4656,0.8279,-0.9771c0.4372,-0.4286,0.1657,-0.0441,0.6316,-0.5429c0.7478,-0.8007,0.707,-0.9478,0.6895,-0.9813c-0.0423,-0.0808,-0.2514,-0.3087,-0.4634,-0.5236l-2.424,2.4388C15.7862,23.6565,16.0952,23.9174,16.2529,23.9624z" fill-rule="evenodd" fill="#4B89DC"/>
      <path d="M23.966,17.9506l-0.5429,-0.5429c-0.068,-0.068,-0.1783,-0.068,-0.2463,0l-0.0625,0.0625c-0.1873,-0.1108,-0.3768,-0.2208,-0.3566,-0.2409c0.0588,-0.0588,0.0755,-0.0755,0.0796,-0.0796c0.068,-0.068,0.068,-0.1783,0,-0.2463c0,0,-0.8012,-0.8012,-0.9119,-0.9119c-0.6397,-0.6826,-2.4537,-0.3039,-2.7896,-0.0347c0.6549,0.2093,0.7702,-0.1191,1.7282,0.9082c-0.078,0.1948,-0.2535,0.2535,-0.2535,0.2535c-0.068,0.068,-0.068,0.1783,0,0.2463l0.8826,0.8826c0.068,0.068,0.1783,0.068,0.2463,0l0.2065,-0.2252l0.2719,0.3443l-0.0646,0.0646c-0.068,0.068,-0.068,0.1783,0,0.2463l0.5429,0.5429c0.068,0.068,0.1783,0.068,0.2463,0l1.0235,-1.0235C24.034,18.1289,24.034,18.0186,23.966,17.9506z" fill-rule="evenodd" fill="#CCD0D9"/>
      <path d="M21.1842,16.401c-0.1331,-0.1331,-0.2969,-0.256,-0.4915,-0.3276c-0.1945,-0.0717,-0.3379,-0.1024,-0.5324,-0.1229c-0.143,-0.015,-0.7169,-0.008,-1.0113,-0.0032c-0.0043,0.0031,-0.0093,0.0063,-0.0132,0.0094c0.6549,0.2093,0.7702,-0.1191,1.7282,0.9082c-0.078,0.1948,-0.2535,0.2535,-0.2535,0.2535c-0.068,0.068,-0.068,0.1783,0,0.2463l0.8826,0.8826c0.068,0.068,0.1783,0.068,0.2463,0l0.2065,-0.2252l0.2719,0.3443l-0.0646,0.0646c-0.068,0.068,-0.068,0.1783,0,0.2463l0.5429,0.5429c0.068,0.068,0.1783,0.068,0.2463,0l0.513,-0.513C22.7653,18.0061,21.286,16.5028,21.1842,16.401z" fill-rule="evenodd" fill="#231F20" opacity="0.1"/>
      <path d="M22.7808,17.2616l-0.8021,0.8021l0.2136,0.2705l0.8725,-0.8933C22.9435,17.3692,22.8294,17.3013,22.7808,17.2616z" fill-rule="evenodd" fill="#231F20" opacity="0.1"/>
      <path d="M23.2205,23.282l-0.3981,0.3975c-0.179,0.179,-0.4693,0.179,-0.6483,0l-4.7335,-4.7756c-0.7755,0.2559,-1.4517,0.0351,-1.7635,-0.2767c-0.4088,-0.4088,-0.8127,-1.2388,-0.5176,-2.1732c0.0055,-0.0109,0.0155,-0.0258,0.0245,-0.0397l1.3185,1.3185c0.2847,0.2847,0.4848,0.1881,0.7281,-0.0553c0.2434,-0.2434,0.2893,-0.5848,0.107,-0.767L16.033,15.606c0.0158,-0.009,0.0323,-0.0187,0.0455,-0.0246c0.9739,-0.2656,1.7743,0.1744,2.1162,0.5283c0.4303,0.4455,0.4888,1.0029,0.2357,1.7989l4.7901,4.7252C23.3995,22.8128,23.3995,23.103,23.2205,23.282zM22.6821,22.6884c-0.1274,-0.1274,-0.334,-0.1274,-0.4614,0c-0.1274,0.1274,-0.1274,0.334,0,0.4614c0.1274,0.1274,0.334,0.1274,0.4614,0C22.8095,23.0224,22.8095,22.8158,22.6821,22.6884z" fill-rule="evenodd" fill="#CCD0D9"/>
      <path d="M22.198,23.6795c0.179,0.179,0.4693,0.179,0.6483,0l0.1885,-0.1885l-0.3409,-0.3425c-0.0007,0.0008,-0.0014,0.0016,-0.0021,0.0024c-0.1274,0.1274,-0.334,0.1274,-0.4614,0c-0.1274,-0.1274,-0.1274,-0.334,0,-0.4614c0.0011,-0.0011,0.0024,-0.0021,0.0035,-0.0032l-4.989,-5.0128c-0.0016,0.0017,-0.0031,0.0035,-0.0048,0.0051c-0.2434,0.2434,-0.5254,0.2581,-0.81,-0.0266l-1.2366,-1.2366c-0.0089,0.0139,-0.019,0.0288,-0.0244,0.0397c-0.295,0.9345,0.1088,1.7644,0.5176,2.1732c0.3118,0.3118,1.0022,0.5315,1.7776,0.2756L22.198,23.6795z" fill-rule="evenodd" fill="#AAB2BD" opacity="0.6"/>
    </g>
  </g>
</svg>
