<?xml version="1.0" encoding="UTF-8"?>
<!DOCTYPE svg PUBLIC "-//W3C//DTD SVG 1.1//EN" "http://www.w3.org/Graphics/SVG/1.1/DTD/svg11.dtd">
<svg version="1.1" id="Layer_1" xmlns="http://www.w3.org/2000/svg" xmlns:xlink="http://www.w3.org/1999/xlink" x="0px" y="0px" width="24px" height="24px" viewBox="0 0 24 24" enable-background="new 0 0 24 24" xml:space="preserve">
  <g id="main">
    <clipPath id="clip_mask">
      <path d="M14,19.5c0,-3.0327,2.4673,-5.5,5.5,-5.5c1.8588,0,3.5039,0.9278,4.5,2.3436V0H0v24h16.3436C14.9278,23.0039,14,21.3588,14,19.5z"/>
    </clipPath>
    <g id="icon" clip-path="url(#clip_mask)">
      <g id="transformed_icon" transform="translate(-1 -1)">
        <path d="M12.959,5.539l0.558,10.833H10.5l0.558,-10.833c0.025,-0.491,0.443,-0.877,0.95,-0.877h0C12.516,4.662,12.934,5.048,12.959,5.539z" fill="#8E949C"/>
        <path d="M4.149,11.966c-0.03,0.023,-0.073,0.019,-0.098,-0.009C2.776,10.508,2,8.592,2,6.491c0,-2.097,0.773,-4.009,2.043,-5.457c0.025,-0.029,0.068,-0.033,0.098,-0.01l0.764,0.586c0.034,0.026,0.038,0.076,0.01,0.108C3.785,2.976,3.096,4.652,3.096,6.491c0,1.843,0.692,3.522,1.825,4.779c0.029,0.032,0.025,0.082,-0.009,0.108L4.149,11.966zM6.766,9.952c0.035,-0.027,0.038,-0.079,0.007,-0.111c-0.846,-0.854,-1.37,-2.039,-1.37,-3.349c0,-1.308,0.522,-2.491,1.366,-3.344c0.031,-0.032,0.028,-0.084,-0.007,-0.111l-0.79,-0.606c-0.03,-0.023,-0.071,-0.019,-0.097,0.008C4.891,3.493,4.288,4.92,4.288,6.491c0,1.574,0.606,3.004,1.592,4.06c0.025,0.027,0.067,0.03,0.097,0.008L6.766,9.952zM8.646,8.504c0.038,-0.03,0.038,-0.088,-0.001,-0.117c-0.569,-0.429,-0.938,-1.118,-0.938,-1.895c0,-0.776,0.368,-1.464,0.934,-1.893c0.039,-0.029,0.039,-0.088,0,-0.117l-0.808,-0.62c-0.028,-0.021,-0.067,-0.02,-0.093,0.004c-0.705,0.646,-1.148,1.583,-1.148,2.626c0,1.045,0.445,1.984,1.152,2.63c0.026,0.024,0.065,0.025,0.093,0.004L8.646,8.504zM19.851,11.966c0.03,0.023,0.073,0.019,0.098,-0.009C21.224,10.508,22,8.592,22,6.491c0,-2.097,-0.773,-4.009,-2.043,-5.457c-0.025,-0.029,-0.068,-0.033,-0.098,-0.01l-0.764,0.586c-0.034,0.026,-0.038,0.076,-0.01,0.108c1.129,1.257,1.819,2.932,1.819,4.772c0,1.843,-0.692,3.522,-1.825,4.779c-0.029,0.032,-0.025,0.082,0.009,0.108L19.851,11.966zM18.023,10.559c0.03,0.023,0.071,0.02,0.097,-0.008c0.986,-1.056,1.592,-2.486,1.592,-4.06c0,-1.571,-0.603,-2.998,-1.586,-4.054c-0.025,-0.027,-0.067,-0.031,-0.097,-0.008l-0.79,0.606c-0.035,0.027,-0.038,0.079,-0.007,0.111c0.843,0.853,1.366,2.036,1.366,3.344c0,1.31,-0.524,2.496,-1.37,3.349c-0.031,0.032,-0.028,0.084,0.007,0.111L18.023,10.559zM16.161,9.125c0.028,0.021,0.067,0.02,0.093,-0.004c0.707,-0.647,1.152,-1.585,1.152,-2.63c0,-1.043,-0.444,-1.98,-1.148,-2.626c-0.026,-0.024,-0.065,-0.025,-0.093,-0.004l-0.808,0.62c-0.038,0.03,-0.038,0.088,0,0.117c0.567,0.429,0.934,1.117,0.934,1.893c0,0.777,-0.369,1.466,-0.938,1.895c-0.039,0.029,-0.039,0.088,-0.001,0.117L16.161,9.125z" fill-rule="evenodd" fill="#536980"/>
        <path d="M12,16.372h1.517l-0.558,-10.833c-0.025,-0.491,-0.443,-0.877,-0.95,-0.877c-0.003,0,-0.006,0,-0.009,0V16.372z" fill="#231F20" opacity="0.2"/>
        <path d="M1,21.4v-5.8c0,-0.33,0.27,-0.6,0.6,-0.6h20.8c0.33,0,0.6,0.27,0.6,0.6v5.8c0,0.33,-0.27,0.6,-0.6,0.6H1.6C1.27,22,1,21.73,1,21.4z" fill="#CCD0D9"/>
        <path d="M23,21.3v-2.8H1v2.8c0,0.385,0.27,0.7,0.6,0.7h20.8C22.73,22,23,21.685,23,21.3z" fill="#231F20" opacity="0.1"/>
        <path d="M21.5,20.5H2.5c-0.276,0,-0.5,-0.224,-0.5,-0.5v-3c0,-0.276,0.224,-0.5,0.5,-0.5h19c0.276,0,0.5,0.224,0.5,0.5v3C22,20.276,21.776,20.5,21.5,20.5z" fill="#666D78"/>
        <path d="M5.7,19H3.3c-0.166,0,-0.3,-0.134,-0.3,-0.3v-0.4c0,-0.166,0.134,-0.3,0.3,-0.3h2.4c0.166,0,0.3,0.134,0.3,0.3v0.4C6,18.866,5.866,19,5.7,19z" fill="#39BB9A"/>
        <path d="M17.7,19h-1.4c-0.166,0,-0.3,-0.134,-0.3,-0.3v-0.4c0,-0.166,0.134,-0.3,0.3,-0.3h1.4c0.166,0,0.3,0.134,0.3,0.3v0.4C18,18.866,17.866,19,17.7,19zM11.7,18h-1.4c-0.166,0,-0.3,0.134,-0.3,0.3v0.4c0,0.166,0.134,0.3,0.3,0.3h1.4c0.166,0,0.3,-0.134,0.3,-0.3v-0.4C12,18.134,11.866,18,11.7,18z" fill="#F36E54"/>
        <path d="M14.7,19h-1.4c-0.166,0,-0.3,-0.134,-0.3,-0.3v-0.4c0,-0.166,0.134,-0.3,0.3,-0.3h1.4c0.166,0,0.3,0.134,0.3,0.3v0.4C15,18.866,14.866,19,14.7,19zM20.7,18h-1.4c-0.166,0,-0.3,0.134,-0.3,0.3v0.4c0,0.166,0.134,0.3,0.3,0.3h1.4c0.166,0,0.3,-0.134,0.3,-0.3v-0.4C21,18.134,20.866,18,20.7,18z" fill="#FFCE57"/>
        <path d="M6.5,23H3.5c-0.276,0,-0.5,-0.224,-0.5,-0.5v-0.5h4v0.5C7,22.776,6.776,23,6.5,23zM21,22.5v-0.5h-4v0.5c0,0.276,0.224,0.5,0.5,0.5h3C20.776,23,21,22.776,21,22.5z" fill="#8E949C"/>
      </g>
    </g>
    <g id="overlay">
      <circle cx="19.5" cy="19.5" r="4.4899" fill="#ED5564"/>
      <path d="M22.6749,16.3251c-0.0061,-0.0061,-0.0124,-0.0121,-0.0186,-0.0182l-6.3493,6.3493c0.0061,0.0062,0.012,0.0125,0.0182,0.0186c1.7534,1.7534,4.5963,1.7534,6.3497,0S24.4283,18.0786,22.6749,16.3251z" fill="#DB4453"/>
      <path d="M21.5799,20.8728L20.2071,19.5l1.3728,-1.3728c0.0781,-0.0781,0.0781,-0.2047,0,-0.2828l-0.4243,-0.4243c-0.0781,-0.0781,-0.2047,-0.0781,-0.2828,0L19.5,18.7929l-1.3728,-1.3728c-0.0781,-0.0781,-0.2047,-0.0781,-0.2828,0l-0.4243,0.4243c-0.0781,0.0781,-0.0781,0.2047,0,0.2828L18.7929,19.5l-1.3728,1.3728c-0.0781,0.0781,-0.0781,0.2047,0,0.2828l0.4243,0.4243c0.0781,0.0781,0.2047,0.0781,0.2828,0L19.5,20.2071l1.3728,1.3728c0.0781,0.0781,0.2047,0.0781,0.2828,0l0.4243,-0.4243C21.658,21.0775,21.658,20.9509,21.5799,20.8728z" fill="#FFFFFF"/>
    </g>
  </g>
</svg>
