<?xml version="1.0" encoding="UTF-8"?>
<!DOCTYPE svg PUBLIC "-//W3C//DTD SVG 1.1//EN" "http://www.w3.org/Graphics/SVG/1.1/DTD/svg11.dtd">
<svg version="1.1" id="Layer_1" xmlns="http://www.w3.org/2000/svg" xmlns:xlink="http://www.w3.org/1999/xlink" x="0px" y="0px" width="24px" height="24px" viewBox="0 0 24 24" enable-background="new 0 0 24 24" xml:space="preserve">
  <g id="icon">
    <path d="M22.4,3H1.6c-0.331,0,-0.6,0.269,-0.6,0.6v13.8c0,0.331,0.269,0.6,0.6,0.6h1.4v2.6c0,0.221,0.179,0.4,0.4,0.4h12.2c0.221,0,0.4,-0.179,0.4,-0.4v-2.6h6.4c0.331,0,0.6,-0.269,0.6,-0.6V3.6C23,3.269,22.731,3,22.4,3z" fill="#39BB9A"/>
    <path d="M4.363,18h1.275c0.2,0,0.363,0.162,0.363,0.363V20.5H4v-2.138C4,18.162,4.162,18,4.363,18zM7,20.5h2v-2.138c0,-0.2,-0.162,-0.363,-0.363,-0.363H7.363c-0.2,0,-0.363,0.162,-0.363,0.363V20.5zM10,20.5h2v-2.138c0,-0.2,-0.162,-0.363,-0.363,-0.363h-1.275c-0.2,0,-0.363,0.162,-0.363,0.363V20.5zM13,18.363V20.5h2v-2.138c0,-0.2,-0.162,-0.363,-0.363,-0.363h-1.275C13.162,18,13,18.162,13,18.363z" fill="#FFCE57"/>
    <path d="M10.7,12H3.3c-0.166,0,-0.3,-0.134,-0.3,-0.3V5.3c0,-0.166,0.134,-0.3,0.3,-0.3h7.4c0.166,0,0.3,0.134,0.3,0.3v6.4C11,11.866,10.866,12,10.7,12zM4.7,13H3.3c-0.166,0,-0.3,0.134,-0.3,0.3v2.4c0,0.166,0.134,0.3,0.3,0.3h1.4c0.166,0,0.3,-0.134,0.3,-0.3v-2.4C5,13.134,4.866,13,4.7,13zM7.7,13H6.3c-0.166,0,-0.3,0.134,-0.3,0.3v2.4c0,0.166,0.134,0.3,0.3,0.3h1.4c0.166,0,0.3,-0.134,0.3,-0.3v-2.4C8,13.134,7.866,13,7.7,13zM10.7,13H9.3c-0.166,0,-0.3,0.134,-0.3,0.3v2.4c0,0.166,0.134,0.3,0.3,0.3h1.4c0.166,0,0.3,-0.134,0.3,-0.3v-2.4C11,13.134,10.866,13,10.7,13zM15.7,5h-3.4c-0.166,0,-0.3,0.134,-0.3,0.3v2.4c0,0.166,0.134,0.3,0.3,0.3h3.4c0.166,0,0.3,-0.134,0.3,-0.3V5.3C16,5.134,15.866,5,15.7,5zM20.7,5h-3.4c-0.166,0,-0.3,0.134,-0.3,0.3v2.4c0,0.166,0.134,0.3,0.3,0.3h3.4c0.166,0,0.3,-0.134,0.3,-0.3V5.3C21,5.134,20.866,5,20.7,5zM15.7,9h-3.4c-0.166,0,-0.3,0.134,-0.3,0.3v2.4c0,0.166,0.134,0.3,0.3,0.3h3.4c0.166,0,0.3,-0.134,0.3,-0.3V9.3C16,9.134,15.866,9,15.7,9zM20.7,9h-3.4c-0.166,0,-0.3,0.134,-0.3,0.3v2.4c0,0.166,0.134,0.3,0.3,0.3h3.4c0.166,0,0.3,-0.134,0.3,-0.3V9.3C21,9.134,20.866,9,20.7,9zM15.7,13h-3.4c-0.166,0,-0.3,0.134,-0.3,0.3v2.4c0,0.166,0.134,0.3,0.3,0.3h3.4c0.166,0,0.3,-0.134,0.3,-0.3v-2.4C16,13.134,15.866,13,15.7,13zM20.7,13h-3.4c-0.166,0,-0.3,0.134,-0.3,0.3v2.4c0,0.166,0.134,0.3,0.3,0.3h3.4c0.166,0,0.3,-0.134,0.3,-0.3v-2.4C21,13.134,20.866,13,20.7,13z" fill="#F6F7FB"/>
    <path d="M10.826,21H15.6c0.221,0,0.4,-0.179,0.4,-0.4v-2.6h6.4c0.331,0,0.6,-0.269,0.6,-0.6V3.6c0,-0.331,-0.269,-0.6,-0.6,-0.6h-6.878L10.826,21z" fill="#231F20" opacity="0.1"/>
  </g>
</svg>
