<?xml version="1.0" encoding="UTF-8"?>
<!DOCTYPE svg PUBLIC "-//W3C//DTD SVG 1.1//EN" "http://www.w3.org/Graphics/SVG/1.1/DTD/svg11.dtd">
<svg version="1.1" id="Layer_1" xmlns="http://www.w3.org/2000/svg" xmlns:xlink="http://www.w3.org/1999/xlink" x="0px" y="0px" width="24px" height="24px" viewBox="0 0 24 24" enable-background="new 0 0 24 24" xml:space="preserve">
  <g id="main">
    <clipPath id="clip_mask">
      <path d="M17.2877,23.7612c-0.1662,-0.0172,-0.3327,-0.0359,-0.4969,-0.0567c-1.7181,-0.2175,-2.424,-0.5199,-2.6978,-1.1558c-0.1767,-0.4104,-0.0992,-0.8736,0.2005,-1.2245c0.0964,-0.1247,0.1976,-0.2479,0.3043,-0.3778c0.5644,-0.6869,1.1479,-1.3972,1.1479,-2.4428c0,-1.3466,0.7584,-2.5517,1.9429,-3.1718c0.2378,-0.7979,0.9637,-1.3801,1.8198,-1.3801c0.8829,0,1.6272,0.6189,1.8407,1.4553c1.1039,0.6422,1.8093,1.8172,1.8093,3.0966c0,0.4992,0.3702,1.2624,0.8416,1.9482V0H0v24h17.4305C17.3784,23.9236,17.3302,23.8443,17.2877,23.7612z"/>
    </clipPath>
    <g id="icon" clip-path="url(#clip_mask)">
      <g id="transformed_icon" transform="translate(-1 -1)">
        <path d="M17.613,1H6.388C6.173,1,6,1.193,6,1.431V3.5h0.5h0.25h1.5H9h1.5h0.75h1.5h0.75h1.5h0.75h1.5h0.45h0.3V1.431C18,1.193,17.827,1,17.613,1z" fill="#39BB9A"/>
        <path d="M8,3.5H7V1.5h1V3.5zM10,3.5H9V1.5h1V3.5zM12,3.5h-1V1.5h1V3.5zM14,3.5h-1V1.5h1V3.5zM16,3.5h-1V1.5h1V3.5z" fill="#EAB665"/>
        <path d="M20.096,1H19v2H5V1H3.904C3.407,1,3,1.396,3,1.88v20.24c0,0.484,0.407,0.88,0.904,0.88h16.192c0.497,0,0.904,-0.396,0.904,-0.88V1.88C21,1.396,20.593,1,20.096,1z" fill="#666D78"/>
        <rect x="5" y="5" width="14" height="16" fill="#FFFFFF"/>
        <path d="M19,8H5V5h14V8z" fill="#CD4C32"/>
        <path d="M19,21h-8.556c3.932,-0.959,6.675,-3.009,8.556,-5.818V21z" fill="#CD4C32"/>
        <path d="M11.544,15.012c-0.163,0,-0.325,-0.015,-0.482,-0.045c-0.157,-0.03,-0.31,-0.074,-0.455,-0.13c-0.145,-0.057,-0.282,-0.126,-0.407,-0.206c-0.126,-0.081,-0.24,-0.172,-0.339,-0.27l-0.062,-0.062l0.313,-0.497l0.004,-0.005c0.032,-0.039,0.072,-0.073,0.118,-0.101c0.053,-0.032,0.111,-0.048,0.173,-0.048c0.08,0,0.164,0.029,0.248,0.085c0.064,0.043,0.14,0.091,0.227,0.144c0.082,0.049,0.181,0.096,0.295,0.137c0.108,0.039,0.24,0.059,0.393,0.059c0.229,0,0.406,-0.051,0.526,-0.15c0.115,-0.097,0.172,-0.234,0.172,-0.42c0,-0.096,-0.023,-0.172,-0.072,-0.229c-0.054,-0.065,-0.128,-0.121,-0.221,-0.167c-0.101,-0.049,-0.216,-0.093,-0.343,-0.13l-0.411,-0.119c-0.144,-0.042,-0.288,-0.094,-0.426,-0.156c-0.145,-0.065,-0.277,-0.151,-0.39,-0.256c-0.116,-0.107,-0.21,-0.242,-0.28,-0.4c-0.071,-0.158,-0.106,-0.353,-0.106,-0.58c0,-0.186,0.039,-0.37,0.117,-0.547c0.077,-0.177,0.192,-0.335,0.339,-0.47c0.146,-0.134,0.327,-0.243,0.538,-0.324c0.21,-0.081,0.453,-0.122,0.722,-0.122c0.3,0,0.581,0.047,0.835,0.138c0.256,0.092,0.478,0.224,0.66,0.392l0.064,0.059l-0.268,0.482c-0.033,0.064,-0.077,0.113,-0.129,0.143c-0.05,0.028,-0.108,0.043,-0.172,0.043c-0.065,0,-0.133,-0.021,-0.209,-0.064c-0.056,-0.032,-0.122,-0.068,-0.198,-0.107c-0.071,-0.037,-0.155,-0.071,-0.25,-0.102c-0.09,-0.029,-0.199,-0.044,-0.325,-0.044c-0.112,0,-0.211,0.013,-0.294,0.039c-0.08,0.025,-0.147,0.059,-0.199,0.102c-0.05,0.041,-0.086,0.088,-0.111,0.145c-0.026,0.058,-0.038,0.124,-0.038,0.195c0,0.083,0.022,0.149,0.067,0.201c0.053,0.062,0.125,0.116,0.213,0.162c0.096,0.05,0.209,0.095,0.336,0.135l0.412,0.13c0.144,0.045,0.289,0.1,0.43,0.164c0.147,0.066,0.28,0.15,0.396,0.25c0.119,0.102,0.215,0.23,0.286,0.378c0.072,0.149,0.109,0.331,0.109,0.539c0,0.225,-0.04,0.439,-0.12,0.637c-0.08,0.2,-0.2,0.377,-0.357,0.524c-0.155,0.147,-0.347,0.264,-0.571,0.347C12.083,14.97,11.827,15.012,11.544,15.012zM7.77,15.012c-0.163,0,-0.325,-0.015,-0.482,-0.045c-0.157,-0.03,-0.31,-0.074,-0.455,-0.13c-0.145,-0.057,-0.282,-0.126,-0.407,-0.206c-0.126,-0.081,-0.24,-0.172,-0.339,-0.27l-0.062,-0.062l0.313,-0.497l0.004,-0.005c0.032,-0.039,0.072,-0.073,0.118,-0.101c0.052,-0.032,0.111,-0.048,0.173,-0.048c0.08,0,0.164,0.029,0.248,0.085c0.064,0.043,0.14,0.091,0.227,0.144c0.082,0.049,0.181,0.096,0.295,0.137c0.108,0.039,0.24,0.059,0.393,0.059c0.229,0,0.406,-0.051,0.526,-0.15c0.116,-0.097,0.172,-0.234,0.172,-0.42c0,-0.096,-0.023,-0.172,-0.072,-0.229c-0.054,-0.065,-0.129,-0.121,-0.221,-0.167c-0.101,-0.049,-0.216,-0.093,-0.343,-0.13l-0.411,-0.119c-0.144,-0.042,-0.288,-0.094,-0.426,-0.156c-0.145,-0.065,-0.277,-0.151,-0.39,-0.256c-0.116,-0.107,-0.21,-0.242,-0.28,-0.4c-0.071,-0.158,-0.106,-0.354,-0.106,-0.58c0,-0.186,0.039,-0.37,0.117,-0.547c0.077,-0.177,0.192,-0.335,0.339,-0.47c0.146,-0.134,0.327,-0.243,0.538,-0.324c0.21,-0.081,0.453,-0.122,0.722,-0.122c0.3,0,0.581,0.047,0.835,0.138c0.256,0.092,0.478,0.224,0.66,0.392l0.064,0.059l-0.268,0.482c-0.033,0.064,-0.077,0.113,-0.129,0.143c-0.05,0.028,-0.108,0.043,-0.172,0.043c-0.065,0,-0.133,-0.021,-0.209,-0.064c-0.056,-0.032,-0.122,-0.068,-0.197,-0.107c-0.071,-0.037,-0.155,-0.071,-0.25,-0.102c-0.09,-0.029,-0.199,-0.044,-0.325,-0.044c-0.112,0,-0.211,0.013,-0.294,0.039c-0.08,0.025,-0.147,0.059,-0.199,0.102c-0.05,0.041,-0.086,0.088,-0.111,0.145c-0.025,0.058,-0.038,0.124,-0.038,0.195c0,0.083,0.022,0.149,0.067,0.201c0.053,0.062,0.125,0.116,0.213,0.162c0.096,0.05,0.209,0.095,0.336,0.135l0.412,0.13c0.144,0.045,0.289,0.1,0.43,0.164c0.147,0.066,0.28,0.15,0.396,0.25c0.119,0.103,0.215,0.23,0.286,0.378c0.072,0.149,0.108,0.331,0.108,0.539c0,0.225,-0.04,0.439,-0.12,0.637c-0.08,0.2,-0.2,0.377,-0.357,0.524c-0.156,0.147,-0.348,0.264,-0.571,0.347C8.309,14.97,8.053,15.012,7.77,15.012zM13.801,14.961v-4.911h1.629c0.38,0,0.731,0.061,1.045,0.182c0.314,0.121,0.588,0.291,0.813,0.506c0.226,0.216,0.403,0.478,0.526,0.779c0.123,0.3,0.185,0.633,0.185,0.99s-0.062,0.689,-0.185,0.988c-0.123,0.3,-0.301,0.562,-0.526,0.779c-0.225,0.216,-0.499,0.387,-0.814,0.507c-0.313,0.119,-0.665,0.18,-1.044,0.18H13.801zM15.427,14.046c0.223,0,0.425,-0.036,0.599,-0.106c0.172,-0.07,0.321,-0.17,0.442,-0.299c0.122,-0.13,0.217,-0.291,0.284,-0.479c0.068,-0.191,0.102,-0.411,0.102,-0.655c0,-0.244,-0.034,-0.465,-0.102,-0.657c-0.067,-0.189,-0.162,-0.351,-0.284,-0.481c-0.121,-0.129,-0.27,-0.229,-0.443,-0.299c-0.175,-0.07,-0.376,-0.106,-0.598,-0.106h-0.583v3.081H15.427z" fill="#666D78"/>
        <path d="M20.096,1H19v2h-4.164l-4.717,20h9.977c0.497,0,0.904,-0.396,0.904,-0.88V1.88C21,1.396,20.593,1,20.096,1z" fill="#231F20" opacity="0.08"/>
      </g>
    </g>
    <g id="overlay">
      <path d="M20.7962,22.7039c0,0.7847,-0.6445,1.2961,-1.3909,1.2961c-0.7463,0,-1.3711,-0.5115,-1.3711,-1.2961C19.1173,22.8083,19.6508,22.8083,20.7962,22.7039z" fill-rule="evenodd" fill="#C18F36"/>
      <path d="M23.8836,21.9314c-0.6454,-0.7084,-1.7348,-2.2438,-1.7348,-3.4277c0,-1.1189,-0.7321,-2.0727,-1.7598,-2.4415c0.0088,-0.0531,0.0143,-0.1075,0.0143,-0.1632c0,-0.5231,-0.4034,-0.9472,-0.9009,-0.9472c-0.4976,0,-0.9009,0.4241,-0.9009,0.9472c0,0.0433,0.0037,0.0857,0.0091,0.1275c-1.0836,0.3392,-1.8672,1.3198,-1.8672,2.4773c0,1.6576,-1.0749,2.668,-1.6781,3.4574c-0.6086,0.6438,3.1831,0.929,4.409,0.929C20.7001,22.89,24.529,22.6398,23.8836,21.9314z" fill-rule="evenodd" fill="#FFCE55"/>
      <path d="M23.8836,21.9314c-0.6454,-0.7084,-1.7348,-2.2438,-1.7348,-3.4277c0,-1.1189,-0.7321,-2.0727,-1.7598,-2.4415c0.0088,-0.0531,0.0143,-0.1075,0.0143,-0.1632c0,-0.5231,-0.3752,-0.9472,-0.8728,-0.9472c-0.0197,0,-0.0305,0.0009,-0.0305,0.0022v7.936c0,0,-0.0075,0.0001,0.0024,0.0001C20.7282,22.89,24.529,22.6398,23.8836,21.9314z" fill-rule="evenodd" fill="#F6BB43"/>
    </g>
  </g>
</svg>
