<?xml version="1.0" encoding="UTF-8"?>
<!DOCTYPE svg PUBLIC "-//W3C//DTD SVG 1.1//EN" "http://www.w3.org/Graphics/SVG/1.1/DTD/svg11.dtd">
<svg version="1.1" id="Layer_1" xmlns="http://www.w3.org/2000/svg" xmlns:xlink="http://www.w3.org/1999/xlink" x="0px" y="0px" width="24px" height="24px" viewBox="0 0 24 24" enable-background="new 0 0 24 24" xml:space="preserve">
  <g id="main">
    <clipPath id="clip_mask">
      <path d="M14,19.5c0,-3.0327,2.4673,-5.5,5.5,-5.5c1.8588,0,3.5039,0.9278,4.5,2.3436V0H0v24h16.3436C14.9278,23.0039,14,21.3588,14,19.5z"/>
    </clipPath>
    <g id="icon" clip-path="url(#clip_mask)">
      <g id="transformed_icon" transform="translate(-1 -1)">
        <path d="M2.5,18c-0.999,0,-1.5,-0.75,-1.5,-1.3s0,-4.3,0,-4.3c0,-2.975,0.229,-5.4,1.2,-5.4h19.6c1.027,0,1.2,2.425,1.2,5.4s0,3.735,0,4.2s-0.501,1.4,-1.5,1.4" fill-rule="evenodd" fill="#AAB2BD"/>
        <path d="M1,14v2.51c0,0.951,0.329,1.49,1.328,1.49h19.206c0.999,0,1.466,-0.538,1.466,-1.49V14H1z" fill-rule="evenodd" fill="#8E949C"/>
        <path d="M18.05,18H5.938c-0.518,0,-0.938,-0.42,-0.938,-0.938V16.05c0,-0.58,0.47,-1.05,1.05,-1.05h11.9c0.58,0,1.05,0.47,1.05,1.05v1C19,17.575,18.575,18,18.05,18z" fill-rule="evenodd" fill="#656D78"/>
        <path d="M18,16v6.484c0,0.285,-0.231,0.516,-0.516,0.516H6.527c-0.285,0,-0.515,-0.23,-0.516,-0.515L6,16H18z" fill-rule="evenodd" fill="#E6E9EE"/>
        <path d="M18,16h-2.648l-2.267,7h4.398c0.285,0,0.516,-0.231,0.516,-0.516V16z" fill-rule="evenodd" fill="#231F20" opacity="0.06"/>
        <path d="M19.438,7c0.311,0,0.563,0.252,0.563,0.563v4.018c0,0.784,-0.496,1.419,-1.319,1.419H5.3c-0.823,0,-1.297,-0.635,-1.297,-1.419v-4.02c0,-0.31,0.251,-0.561,0.561,-0.561H19.438z" fill-rule="evenodd" fill="#5486C5"/>
        <path d="M4,10v1.581c0,0.784,0.477,1.419,1.3,1.419h13.381c0.823,0,1.319,-0.635,1.319,-1.419V10H4z" fill-rule="evenodd" fill="#3E74AE"/>
        <path d="M19,7H5V4.6c0,-0.338,0.274,-0.613,0.613,-0.613h12.775c0.338,0,0.613,0.274,0.613,0.613V7z" fill-rule="evenodd" fill="#656D78"/>
        <path d="M6.491,1.009H17.5c0.271,0,0.491,0.22,0.491,0.491L18,7H6V1.5C6,1.229,6.22,1.009,6.491,1.009z" fill-rule="evenodd" fill="#E6E9EE"/>
        <path d="M17.995,7c0.002,-0.03,0.005,-0.06,0.005,-0.091V1.575c0,-0.318,-0.257,-0.575,-0.575,-0.575h-2.058c-0.009,0,-0.016,0.005,-0.019,0.014L13.41,7H17.995z" fill-rule="evenodd" fill="#231F20" opacity="0.06"/>
        <path d="M2.5,13h1c0.276,0,0.5,0.224,0.5,0.5v1c0,0.276,-0.224,0.5,-0.5,0.5H2.5c-0.276,0,-0.5,-0.224,-0.5,-0.5v-1C2,13.224,2.224,13,2.5,13z" fill-rule="evenodd" fill="#ED5564"/>
        <path d="M8.5,20.5h7M8.5,18.5h7" fill="none" stroke="#8E949C" stroke-width="1" stroke-linecap="round" stroke-miterlimit="1"/>
        <path d="M18,17H6v-1h12V17zM18,5H6v2h12V5z" fill="#231F20" opacity="0.1"/>
      </g>
    </g>
    <g id="overlay">
      <circle cx="19.5" cy="19.5" r="4.4899" fill="#5D9CEC"/>
      <path d="M22.6826,16.37c-0.0061,-0.0061,-0.0124,-0.012,-0.0185,-0.0181l-6.3121,6.3121c0.0061,0.0061,0.0119,0.0124,0.0181,0.0185c1.7432,1.7432,4.5694,1.7432,6.3126,0S24.4257,18.1131,22.6826,16.37z" fill="#4B89DC" opacity="0.7"/>
      <path d="M19.2,19h0.6c0.1105,0,0.2,0.0895,0.2,0.2v2.9c0,0.1105,-0.0895,0.2,-0.2,0.2h-0.6c-0.1105,0,-0.2,-0.0895,-0.2,-0.2v-2.9C19,19.0895,19.0895,19,19.2,19zM19,16.9v0.9c0,0.1105,0.0895,0.2,0.2,0.2h0.6c0.1105,0,0.2,-0.0895,0.2,-0.2v-0.9c0,-0.1105,-0.0895,-0.2,-0.2,-0.2h-0.6C19.0895,16.7,19,16.7895,19,16.9z" fill="#FFFFFF"/>
    </g>
  </g>
</svg>
