<?xml version="1.0" encoding="UTF-8"?>
<!DOCTYPE svg PUBLIC "-//W3C//DTD SVG 1.1//EN" "http://www.w3.org/Graphics/SVG/1.1/DTD/svg11.dtd">
<svg version="1.1" id="Layer_1" xmlns="http://www.w3.org/2000/svg" xmlns:xlink="http://www.w3.org/1999/xlink" x="0px" y="0px" width="24px" height="24px" viewBox="0 0 24 24" enable-background="new 0 0 24 24" xml:space="preserve">
  <g id="main">
    <clipPath id="clip_mask">
      <path d="M14,19.5c0,-3.0327,2.4673,-5.5,5.5,-5.5c1.8588,0,3.5039,0.9278,4.5,2.3436V0H0v24h16.3436C14.9278,23.0039,14,21.3588,14,19.5z"/>
    </clipPath>
    <g id="icon" clip-path="url(#clip_mask)">
      <g id="transformed_icon" transform="translate(-1 -1)">
        <path d="M18.84,17.917c-1.874,1.712,-4.119,2.647,-6.794,2.647c-2.684,0,-4.936,-0.943,-6.812,-2.665c-2.107,1.195,-3.576,2.868,-3.576,4.077c0,2.248,4.385,0.081,10.398,0.081S22.3,24.225,22.3,21.977C22.3,20.773,20.888,19.11,18.84,17.917z" fill="#8E949C"/>
        <path d="M12.034,1.008c-5.504,0,-9.966,4.427,-9.966,9.888s4.462,9.888,9.966,9.888S22,16.357,22,10.896S17.538,1.008,12.034,1.008z" fill="#656D78"/>
        <path d="M13.134,3.705c-0.455,-0.176,-1.717,-0.204,-2.323,0c-1.206,0.494,-2.028,-1.578,1.247,-1.59C15.299,2.115,14.215,4.206,13.134,3.705z" fill="#CCD0D9"/>
        <path d="M18.97,17.995c1.868,-1.797,3.03,-4.313,3.03,-7.099c0,-5.461,-4.462,-9.888,-9.966,-9.888c-0.012,0,-0.023,0,-0.034,0v21.05c0.019,0,0.037,0,0.056,0c6.013,0,10.244,2.167,10.244,-0.081C22.3,20.799,20.948,19.182,18.97,17.995z" fill="#231F20" opacity="0.1"/>
        <circle cx="12.002" cy="10.897" r="5.743" fill="#F6F7FB"/>
        <circle cx="12.002" cy="10.897" r="4.601" fill="#5D9CEC"/>
        <circle cx="12.002" cy="10.897" r="2.447" fill="#3D73AD"/>
        <circle cx="11.023" cy="9.918" r="0.685" fill="#F6F7FB"/>
        <circle cx="12" cy="18.6" r="1" fill="#ED5564"/>
      </g>
    </g>
    <g id="overlay">
      <circle cx="19.5" cy="19.5" r="4.4899" fill="#ED5564"/>
      <path d="M22.6749,16.3251c-0.0061,-0.0061,-0.0124,-0.0121,-0.0186,-0.0182l-6.3493,6.3493c0.0061,0.0062,0.012,0.0125,0.0182,0.0186c1.7534,1.7534,4.5963,1.7534,6.3497,0S24.4283,18.0786,22.6749,16.3251z" fill="#DB4453"/>
      <path d="M21.5799,20.8728L20.2071,19.5l1.3728,-1.3728c0.0781,-0.0781,0.0781,-0.2047,0,-0.2828l-0.4243,-0.4243c-0.0781,-0.0781,-0.2047,-0.0781,-0.2828,0L19.5,18.7929l-1.3728,-1.3728c-0.0781,-0.0781,-0.2047,-0.0781,-0.2828,0l-0.4243,0.4243c-0.0781,0.0781,-0.0781,0.2047,0,0.2828L18.7929,19.5l-1.3728,1.3728c-0.0781,0.0781,-0.0781,0.2047,0,0.2828l0.4243,0.4243c0.0781,0.0781,0.2047,0.0781,0.2828,0L19.5,20.2071l1.3728,1.3728c0.0781,0.0781,0.2047,0.0781,0.2828,0l0.4243,-0.4243C21.658,21.0775,21.658,20.9509,21.5799,20.8728z" fill="#FFFFFF"/>
    </g>
  </g>
</svg>
