<?xml version="1.0" encoding="UTF-8"?>
<!DOCTYPE svg PUBLIC "-//W3C//DTD SVG 1.1//EN" "http://www.w3.org/Graphics/SVG/1.1/DTD/svg11.dtd">
<svg version="1.1" id="Layer_1" xmlns="http://www.w3.org/2000/svg" xmlns:xlink="http://www.w3.org/1999/xlink" x="0px" y="0px" width="24px" height="24px" viewBox="0 0 24 24" enable-background="new 0 0 24 24" xml:space="preserve">
  <g id="main">
    <clipPath id="clip_mask">
      <path d="M17.2877,23.7612c-0.1662,-0.0172,-0.3327,-0.0359,-0.4969,-0.0567c-1.7181,-0.2175,-2.424,-0.5199,-2.6978,-1.1558c-0.1767,-0.4104,-0.0992,-0.8736,0.2005,-1.2245c0.0964,-0.1247,0.1976,-0.2479,0.3043,-0.3778c0.5644,-0.6869,1.1479,-1.3972,1.1479,-2.4428c0,-1.3466,0.7584,-2.5517,1.9429,-3.1718c0.2378,-0.7979,0.9637,-1.3801,1.8198,-1.3801c0.8829,0,1.6272,0.6189,1.8407,1.4553c1.1039,0.6422,1.8093,1.8172,1.8093,3.0966c0,0.4992,0.3702,1.2624,0.8416,1.9482V0H0v24h17.4305C17.3784,23.9236,17.3302,23.8443,17.2877,23.7612z"/>
    </clipPath>
    <g id="icon" clip-path="url(#clip_mask)">
      <g id="transformed_icon" transform="translate(-1 -1)">
        <path d="M18.84,17.917c-1.874,1.712,-4.119,2.647,-6.794,2.647c-2.684,0,-4.936,-0.943,-6.812,-2.665c-2.107,1.195,-3.576,2.868,-3.576,4.077c0,2.248,4.385,0.081,10.398,0.081S22.3,24.225,22.3,21.977C22.3,20.773,20.888,19.11,18.84,17.917z" fill="#8E949C"/>
        <path d="M12.034,1.008c-5.504,0,-9.966,4.427,-9.966,9.888s4.462,9.888,9.966,9.888S22,16.357,22,10.896S17.538,1.008,12.034,1.008z" fill="#656D78"/>
        <path d="M13.134,3.705c-0.455,-0.176,-1.717,-0.204,-2.323,0c-1.206,0.494,-2.028,-1.578,1.247,-1.59C15.299,2.115,14.215,4.206,13.134,3.705z" fill="#CCD0D9"/>
        <path d="M18.97,17.995c1.868,-1.797,3.03,-4.313,3.03,-7.099c0,-5.461,-4.462,-9.888,-9.966,-9.888c-0.012,0,-0.023,0,-0.034,0v21.05c0.019,0,0.037,0,0.056,0c6.013,0,10.244,2.167,10.244,-0.081C22.3,20.799,20.948,19.182,18.97,17.995z" fill="#231F20" opacity="0.1"/>
        <circle cx="12.002" cy="10.897" r="5.743" fill="#F6F7FB"/>
        <circle cx="12.002" cy="10.897" r="4.601" fill="#5D9CEC"/>
        <circle cx="12.002" cy="10.897" r="2.447" fill="#3D73AD"/>
        <circle cx="11.023" cy="9.918" r="0.685" fill="#F6F7FB"/>
        <circle cx="12" cy="18.6" r="1" fill="#ED5564"/>
      </g>
    </g>
    <g id="overlay">
      <path d="M20.7962,22.7039c0,0.7847,-0.6445,1.2961,-1.3909,1.2961c-0.7463,0,-1.3711,-0.5115,-1.3711,-1.2961C19.1173,22.8083,19.6508,22.8083,20.7962,22.7039z" fill-rule="evenodd" fill="#C18F36"/>
      <path d="M23.8836,21.9314c-0.6454,-0.7084,-1.7348,-2.2438,-1.7348,-3.4277c0,-1.1189,-0.7321,-2.0727,-1.7598,-2.4415c0.0088,-0.0531,0.0143,-0.1075,0.0143,-0.1632c0,-0.5231,-0.4034,-0.9472,-0.9009,-0.9472c-0.4976,0,-0.9009,0.4241,-0.9009,0.9472c0,0.0433,0.0037,0.0857,0.0091,0.1275c-1.0836,0.3392,-1.8672,1.3198,-1.8672,2.4773c0,1.6576,-1.0749,2.668,-1.6781,3.4574c-0.6086,0.6438,3.1831,0.929,4.409,0.929C20.7001,22.89,24.529,22.6398,23.8836,21.9314z" fill-rule="evenodd" fill="#FFCE55"/>
      <path d="M23.8836,21.9314c-0.6454,-0.7084,-1.7348,-2.2438,-1.7348,-3.4277c0,-1.1189,-0.7321,-2.0727,-1.7598,-2.4415c0.0088,-0.0531,0.0143,-0.1075,0.0143,-0.1632c0,-0.5231,-0.3752,-0.9472,-0.8728,-0.9472c-0.0197,0,-0.0305,0.0009,-0.0305,0.0022v7.936c0,0,-0.0075,0.0001,0.0024,0.0001C20.7282,22.89,24.529,22.6398,23.8836,21.9314z" fill-rule="evenodd" fill="#F6BB43"/>
    </g>
  </g>
</svg>
