<?xml version="1.0" encoding="UTF-8"?>
<!DOCTYPE svg PUBLIC "-//W3C//DTD SVG 1.1//EN" "http://www.w3.org/Graphics/SVG/1.1/DTD/svg11.dtd">
<svg version="1.1" id="Layer_1" xmlns="http://www.w3.org/2000/svg" xmlns:xlink="http://www.w3.org/1999/xlink" x="0px" y="0px" width="24px" height="24px" viewBox="0 0 24 24" enable-background="new 0 0 24 24" xml:space="preserve">
  <g id="main">
    <clipPath id="clip_mask">
      <path d="M17.2877,23.7612c-0.1662,-0.0172,-0.3327,-0.0359,-0.4969,-0.0567c-1.7181,-0.2175,-2.424,-0.5199,-2.6978,-1.1558c-0.1767,-0.4104,-0.0992,-0.8736,0.2005,-1.2245c0.0964,-0.1247,0.1976,-0.2479,0.3043,-0.3778c0.5644,-0.6869,1.1479,-1.3972,1.1479,-2.4428c0,-1.3466,0.7584,-2.5517,1.9429,-3.1718c0.2378,-0.7979,0.9637,-1.3801,1.8198,-1.3801c0.8829,0,1.6272,0.6189,1.8407,1.4553c1.1039,0.6422,1.8093,1.8172,1.8093,3.0966c0,0.4992,0.3702,1.2624,0.8416,1.9482V0H0v24h17.4305C17.3784,23.9236,17.3302,23.8443,17.2877,23.7612z"/>
    </clipPath>
    <g id="icon" clip-path="url(#clip_mask)">
      <g id="transformed_icon" transform="translate(-1 -1)">
        <path d="M2.5,18c-0.999,0,-1.5,-0.75,-1.5,-1.3s0,-4.3,0,-4.3c0,-2.975,0.229,-5.4,1.2,-5.4h19.6c1.027,0,1.2,2.425,1.2,5.4s0,3.735,0,4.2s-0.501,1.4,-1.5,1.4" fill-rule="evenodd" fill="#AAB2BD"/>
        <path d="M1,14v2.51c0,0.951,0.329,1.49,1.328,1.49h19.206c0.999,0,1.466,-0.538,1.466,-1.49V14H1z" fill-rule="evenodd" fill="#8E949C"/>
        <path d="M18.05,18H5.938c-0.518,0,-0.938,-0.42,-0.938,-0.938V16.05c0,-0.58,0.47,-1.05,1.05,-1.05h11.9c0.58,0,1.05,0.47,1.05,1.05v1C19,17.575,18.575,18,18.05,18z" fill-rule="evenodd" fill="#656D78"/>
        <path d="M18,16v6.484c0,0.285,-0.231,0.516,-0.516,0.516H6.527c-0.285,0,-0.515,-0.23,-0.516,-0.515L6,16H18z" fill-rule="evenodd" fill="#E6E9EE"/>
        <path d="M18,16h-2.648l-2.267,7h4.398c0.285,0,0.516,-0.231,0.516,-0.516V16z" fill-rule="evenodd" fill="#231F20" opacity="0.06"/>
        <path d="M19.438,7c0.311,0,0.563,0.252,0.563,0.563v4.018c0,0.784,-0.496,1.419,-1.319,1.419H5.3c-0.823,0,-1.297,-0.635,-1.297,-1.419v-4.02c0,-0.31,0.251,-0.561,0.561,-0.561H19.438z" fill-rule="evenodd" fill="#5486C5"/>
        <path d="M4,10v1.581c0,0.784,0.477,1.419,1.3,1.419h13.381c0.823,0,1.319,-0.635,1.319,-1.419V10H4z" fill-rule="evenodd" fill="#3E74AE"/>
        <path d="M19,7H5V4.6c0,-0.338,0.274,-0.613,0.613,-0.613h12.775c0.338,0,0.613,0.274,0.613,0.613V7z" fill-rule="evenodd" fill="#656D78"/>
        <path d="M6.491,1.009H17.5c0.271,0,0.491,0.22,0.491,0.491L18,7H6V1.5C6,1.229,6.22,1.009,6.491,1.009z" fill-rule="evenodd" fill="#E6E9EE"/>
        <path d="M17.995,7c0.002,-0.03,0.005,-0.06,0.005,-0.091V1.575c0,-0.318,-0.257,-0.575,-0.575,-0.575h-2.058c-0.009,0,-0.016,0.005,-0.019,0.014L13.41,7H17.995z" fill-rule="evenodd" fill="#231F20" opacity="0.06"/>
        <path d="M2.5,13h1c0.276,0,0.5,0.224,0.5,0.5v1c0,0.276,-0.224,0.5,-0.5,0.5H2.5c-0.276,0,-0.5,-0.224,-0.5,-0.5v-1C2,13.224,2.224,13,2.5,13z" fill-rule="evenodd" fill="#ED5564"/>
        <path d="M8.5,20.5h7M8.5,18.5h7" fill="none" stroke="#8E949C" stroke-width="1" stroke-linecap="round" stroke-miterlimit="1"/>
        <path d="M18,17H6v-1h12V17zM18,5H6v2h12V5z" fill="#231F20" opacity="0.1"/>
      </g>
    </g>
    <g id="overlay">
      <path d="M20.7962,22.7039c0,0.7847,-0.6445,1.2961,-1.3909,1.2961c-0.7463,0,-1.3711,-0.5115,-1.3711,-1.2961C19.1173,22.8083,19.6508,22.8083,20.7962,22.7039z" fill-rule="evenodd" fill="#C18F36"/>
      <path d="M23.8836,21.9314c-0.6454,-0.7084,-1.7348,-2.2438,-1.7348,-3.4277c0,-1.1189,-0.7321,-2.0727,-1.7598,-2.4415c0.0088,-0.0531,0.0143,-0.1075,0.0143,-0.1632c0,-0.5231,-0.4034,-0.9472,-0.9009,-0.9472c-0.4976,0,-0.9009,0.4241,-0.9009,0.9472c0,0.0433,0.0037,0.0857,0.0091,0.1275c-1.0836,0.3392,-1.8672,1.3198,-1.8672,2.4773c0,1.6576,-1.0749,2.668,-1.6781,3.4574c-0.6086,0.6438,3.1831,0.929,4.409,0.929C20.7001,22.89,24.529,22.6398,23.8836,21.9314z" fill-rule="evenodd" fill="#FFCE55"/>
      <path d="M23.8836,21.9314c-0.6454,-0.7084,-1.7348,-2.2438,-1.7348,-3.4277c0,-1.1189,-0.7321,-2.0727,-1.7598,-2.4415c0.0088,-0.0531,0.0143,-0.1075,0.0143,-0.1632c0,-0.5231,-0.3752,-0.9472,-0.8728,-0.9472c-0.0197,0,-0.0305,0.0009,-0.0305,0.0022v7.936c0,0,-0.0075,0.0001,0.0024,0.0001C20.7282,22.89,24.529,22.6398,23.8836,21.9314z" fill-rule="evenodd" fill="#F6BB43"/>
    </g>
  </g>
</svg>
