<?xml version="1.0" encoding="UTF-8"?>
<!DOCTYPE svg PUBLIC "-//W3C//DTD SVG 1.1//EN" "http://www.w3.org/Graphics/SVG/1.1/DTD/svg11.dtd">
<svg version="1.1" id="Layer_1" xmlns="http://www.w3.org/2000/svg" xmlns:xlink="http://www.w3.org/1999/xlink" x="0px" y="0px" width="24px" height="24px" viewBox="0 0 24 24" enable-background="new 0 0 24 24" xml:space="preserve">
  <g id="main">
    <clipPath id="clip_mask">
      <path d="M17.2877,23.7612c-0.1662,-0.0172,-0.3327,-0.0359,-0.4969,-0.0567c-1.7181,-0.2175,-2.424,-0.5199,-2.6978,-1.1558c-0.1767,-0.4104,-0.0992,-0.8736,0.2005,-1.2245c0.0964,-0.1247,0.1976,-0.2479,0.3043,-0.3778c0.5644,-0.6869,1.1479,-1.3972,1.1479,-2.4428c0,-1.3466,0.7584,-2.5517,1.9429,-3.1718c0.2378,-0.7979,0.9637,-1.3801,1.8198,-1.3801c0.8829,0,1.6272,0.6189,1.8407,1.4553c1.1039,0.6422,1.8093,1.8172,1.8093,3.0966c0,0.4992,0.3702,1.2624,0.8416,1.9482V0H0v24h17.4305C17.3784,23.9236,17.3302,23.8443,17.2877,23.7612z"/>
    </clipPath>
    <g id="icon" clip-path="url(#clip_mask)">
      <g id="transformed_icon" transform="translate(-1 -1)">
        <path d="M20.5,1H2.5c-0.825,0,-1.5,0.675,-1.5,1.5v18c0,0.825,0.675,1.5,1.5,1.5h18c0.825,0,1.5,-0.675,1.5,-1.5V2.5C22,1.675,21.325,1,20.5,1z" fill="#666D78"/>
        <path d="M17.038,18H5.963c-0.532,0,-0.963,-0.431,-0.963,-0.963V5.963c0,-0.532,0.431,-0.963,0.963,-0.963h11.075c0.532,0,0.963,0.431,0.963,0.963v11.075C18,17.569,17.569,18,17.038,18z" fill="#CDD1DA"/>
        <path d="M20.5,1h-5.954l-4.429,21H20.5c0.825,0,1.5,-0.675,1.5,-1.5V2.5C22,1.675,21.325,1,20.5,1z" fill="#231F20" opacity="0.15"/>
        <path d="M7,2.5H6v2h1V2.5zM9,2.5H8v2h1V2.5zM11,2.5h-1v2h1V2.5zM13,2.5h-1v2h1V2.5zM15,2.5h-1v2h1V2.5zM17,2.5h-1v2h1V2.5zM7,18.5H6v2h1V18.5zM9,18.5H8v2h1V18.5zM11,18.5h-1v2h1V18.5zM13,18.5h-1v2h1V18.5zM15,18.5h-1v2h1V18.5zM17,18.5h-1v2h1V18.5zM4.5,7V6H2.5v1H4.5zM4.5,9V8H2.5v1H4.5zM4.5,11v-1H2.5v1H4.5zM4.5,13v-1H2.5v1H4.5zM4.5,15v-1H2.5v1H4.5zM4.5,17v-1H2.5v1H4.5zM20.5,7V6h-2v1H20.5zM20.5,9V8h-2v1H20.5zM20.5,11v-1h-2v1H20.5zM20.5,13v-1h-2v1H20.5zM20.5,15v-1h-2v1H20.5zM20.5,17v-1h-2v1H20.5z" fill="#FFCE57"/>
        <path d="M9,13v1H6.8c-0.442,0,-0.8,-0.358,-0.8,-0.8V9.8c0,-0.442,0.358,-0.8,0.8,-0.8h2.2v1H7v3H9zM12.2,9c0.442,0,0.8,0.358,0.8,0.8v2.4c0,0.442,-0.358,0.8,-0.8,0.8h-1.2v1h-1V9H12.2zM12,10h-1v2h1V10zM16,9v4h-1V9h-1v4.2c0,0.442,0.358,0.8,0.8,0.8h1.4c0.442,0,0.8,-0.358,0.8,-0.8V9H16z" fill="#444A54"/>
      </g>
    </g>
    <g id="overlay">
      <path d="M20.7962,22.7039c0,0.7847,-0.6445,1.2961,-1.3909,1.2961c-0.7463,0,-1.3711,-0.5115,-1.3711,-1.2961C19.1173,22.8083,19.6508,22.8083,20.7962,22.7039z" fill-rule="evenodd" fill="#C18F36"/>
      <path d="M23.8836,21.9314c-0.6454,-0.7084,-1.7348,-2.2438,-1.7348,-3.4277c0,-1.1189,-0.7321,-2.0727,-1.7598,-2.4415c0.0088,-0.0531,0.0143,-0.1075,0.0143,-0.1632c0,-0.5231,-0.4034,-0.9472,-0.9009,-0.9472c-0.4976,0,-0.9009,0.4241,-0.9009,0.9472c0,0.0433,0.0037,0.0857,0.0091,0.1275c-1.0836,0.3392,-1.8672,1.3198,-1.8672,2.4773c0,1.6576,-1.0749,2.668,-1.6781,3.4574c-0.6086,0.6438,3.1831,0.929,4.409,0.929C20.7001,22.89,24.529,22.6398,23.8836,21.9314z" fill-rule="evenodd" fill="#FFCE55"/>
      <path d="M23.8836,21.9314c-0.6454,-0.7084,-1.7348,-2.2438,-1.7348,-3.4277c0,-1.1189,-0.7321,-2.0727,-1.7598,-2.4415c0.0088,-0.0531,0.0143,-0.1075,0.0143,-0.1632c0,-0.5231,-0.3752,-0.9472,-0.8728,-0.9472c-0.0197,0,-0.0305,0.0009,-0.0305,0.0022v7.936c0,0,-0.0075,0.0001,0.0024,0.0001C20.7282,22.89,24.529,22.6398,23.8836,21.9314z" fill-rule="evenodd" fill="#F6BB43"/>
    </g>
  </g>
</svg>
