<?xml version="1.0" encoding="UTF-8"?>
<!DOCTYPE svg PUBLIC "-//W3C//DTD SVG 1.1//EN" "http://www.w3.org/Graphics/SVG/1.1/DTD/svg11.dtd">
<svg version="1.1" id="Layer_1" xmlns="http://www.w3.org/2000/svg" xmlns:xlink="http://www.w3.org/1999/xlink" x="0px" y="0px" width="24px" height="24px" viewBox="0 0 24 24" enable-background="new 0 0 24 24" xml:space="preserve">
  <g id="icon">
    <path d="M18.84,17.917c-1.874,1.712,-4.119,2.647,-6.794,2.647c-2.684,0,-4.936,-0.943,-6.812,-2.665c-2.107,1.195,-3.576,2.868,-3.576,4.077c0,2.248,4.385,0.081,10.398,0.081S22.3,24.225,22.3,21.977C22.3,20.773,20.888,19.11,18.84,17.917z" fill="#8E949C"/>
    <path d="M12.034,1.008c-5.504,0,-9.966,4.427,-9.966,9.888s4.462,9.888,9.966,9.888S22,16.357,22,10.896S17.538,1.008,12.034,1.008z" fill="#656D78"/>
    <path d="M13.134,3.705c-0.455,-0.176,-1.717,-0.204,-2.323,0c-1.206,0.494,-2.028,-1.578,1.247,-1.59C15.299,2.115,14.215,4.206,13.134,3.705z" fill="#CCD0D9"/>
    <path d="M18.97,17.995c1.868,-1.797,3.03,-4.313,3.03,-7.099c0,-5.461,-4.462,-9.888,-9.966,-9.888c-0.012,0,-0.023,0,-0.034,0v21.05c0.019,0,0.037,0,0.056,0c6.013,0,10.244,2.167,10.244,-0.081C22.3,20.799,20.948,19.182,18.97,17.995z" fill="#231F20" opacity="0.1"/>
    <circle cx="12.002" cy="10.897" r="5.743" fill="#F6F7FB"/>
    <circle cx="12.002" cy="10.897" r="4.601" fill="#5D9CEC"/>
    <circle cx="12.002" cy="10.897" r="2.447" fill="#3D73AD"/>
    <circle cx="11.023" cy="9.918" r="0.685" fill="#F6F7FB"/>
    <circle cx="12" cy="18.6" r="1" fill="#ED5564"/>
  </g>
</svg>
