<?xml version="1.0" encoding="UTF-8"?>
<!DOCTYPE svg PUBLIC "-//W3C//DTD SVG 1.1//EN" "http://www.w3.org/Graphics/SVG/1.1/DTD/svg11.dtd">
<svg version="1.1" id="Layer_1" xmlns="http://www.w3.org/2000/svg" xmlns:xlink="http://www.w3.org/1999/xlink" x="0px" y="0px" width="24px" height="24px" viewBox="0 0 24 24" enable-background="new 0 0 24 24" xml:space="preserve">
  <g id="icon">
    <path d="M20.5,1H2.5c-0.825,0,-1.5,0.675,-1.5,1.5v18c0,0.825,0.675,1.5,1.5,1.5h18c0.825,0,1.5,-0.675,1.5,-1.5V2.5C22,1.675,21.325,1,20.5,1z" fill="#666D78"/>
    <path d="M17.038,18H5.963c-0.532,0,-0.963,-0.431,-0.963,-0.963V5.963c0,-0.532,0.431,-0.963,0.963,-0.963h11.075c0.532,0,0.963,0.431,0.963,0.963v11.075C18,17.569,17.569,18,17.038,18z" fill="#CDD1DA"/>
    <path d="M20.5,1h-5.954l-4.429,21H20.5c0.825,0,1.5,-0.675,1.5,-1.5V2.5C22,1.675,21.325,1,20.5,1z" fill="#231F20" opacity="0.15"/>
    <path d="M7,2.5H6v2h1V2.5zM9,2.5H8v2h1V2.5zM11,2.5h-1v2h1V2.5zM13,2.5h-1v2h1V2.5zM15,2.5h-1v2h1V2.5zM17,2.5h-1v2h1V2.5zM7,18.5H6v2h1V18.5zM9,18.5H8v2h1V18.5zM11,18.5h-1v2h1V18.5zM13,18.5h-1v2h1V18.5zM15,18.5h-1v2h1V18.5zM17,18.5h-1v2h1V18.5zM4.5,7V6H2.5v1H4.5zM4.5,9V8H2.5v1H4.5zM4.5,11v-1H2.5v1H4.5zM4.5,13v-1H2.5v1H4.5zM4.5,15v-1H2.5v1H4.5zM4.5,17v-1H2.5v1H4.5zM20.5,7V6h-2v1H20.5zM20.5,9V8h-2v1H20.5zM20.5,11v-1h-2v1H20.5zM20.5,13v-1h-2v1H20.5zM20.5,15v-1h-2v1H20.5zM20.5,17v-1h-2v1H20.5z" fill="#FFCE57"/>
    <path d="M9,13v1H6.8c-0.442,0,-0.8,-0.358,-0.8,-0.8V9.8c0,-0.442,0.358,-0.8,0.8,-0.8h2.2v1H7v3H9zM12.2,9c0.442,0,0.8,0.358,0.8,0.8v2.4c0,0.442,-0.358,0.8,-0.8,0.8h-1.2v1h-1V9H12.2zM12,10h-1v2h1V10zM16,9v4h-1V9h-1v4.2c0,0.442,0.358,0.8,0.8,0.8h1.4c0.442,0,0.8,-0.358,0.8,-0.8V9H16z" fill="#444A54"/>
  </g>
</svg>
