<?xml version="1.0" encoding="UTF-8"?>
<!DOCTYPE svg PUBLIC "-//W3C//DTD SVG 1.1//EN" "http://www.w3.org/Graphics/SVG/1.1/DTD/svg11.dtd">
<svg version="1.1" id="Layer_1" xmlns="http://www.w3.org/2000/svg" xmlns:xlink="http://www.w3.org/1999/xlink" x="0px" y="0px" width="24px" height="24px" viewBox="0 0 24 24" enable-background="new 0 0 24 24" xml:space="preserve">
  <g id="main">
    <clipPath id="clip_mask">
      <path d="M17.2877,23.7612c-0.1662,-0.0172,-0.3327,-0.0359,-0.4969,-0.0567c-1.7181,-0.2175,-2.424,-0.5199,-2.6978,-1.1558c-0.1767,-0.4104,-0.0992,-0.8736,0.2005,-1.2245c0.0964,-0.1247,0.1976,-0.2479,0.3043,-0.3778c0.5644,-0.6869,1.1479,-1.3972,1.1479,-2.4428c0,-1.3466,0.7584,-2.5517,1.9429,-3.1718c0.2378,-0.7979,0.9637,-1.3801,1.8198,-1.3801c0.8829,0,1.6272,0.6189,1.8407,1.4553c1.1039,0.6422,1.8093,1.8172,1.8093,3.0966c0,0.4992,0.3702,1.2624,0.8416,1.9482V0H0v24h17.4305C17.3784,23.9236,17.3302,23.8443,17.2877,23.7612z"/>
    </clipPath>
    <g id="icon" clip-path="url(#clip_mask)">
      <path d="M21.617,4H1.383C0.619,4,0,4.619,0,5.383v11.233C0,17.381,0.619,18,1.383,18h20.233c0.764,0,1.383,-0.619,1.383,-1.383V5.383C23,4.619,22.381,4,21.617,4z" fill="#666D78"/>
      <path d="M10.177,18h11.439c0.764,0,1.383,-0.619,1.383,-1.383V5.383c0,-0.764,-0.619,-1.383,-1.383,-1.383h-7.149L10.177,18z" fill="#444A54" opacity="0.3"/>
      <circle cx="20" cy="7" r="1" fill="#F6F7FB"/>
      <path d="M5,2.433V3.5H2V2.433c0,-0.239,0.194,-0.433,0.433,-0.433H3V0.3c0,-0.166,0.134,-0.3,0.3,-0.3h0.4c0.166,0,0.3,0.134,0.3,0.3v1.7h0.567C4.806,2,5,2.194,5,2.433zM9,2.433V3.5H6V2.433c0,-0.239,0.194,-0.433,0.433,-0.433H7V0.3c0,-0.166,0.134,-0.3,0.3,-0.3h0.4c0.166,0,0.3,0.134,0.3,0.3v1.7h0.567C8.806,2,9,2.194,9,2.433zM13,2.433V3.5h-3V2.433c0,-0.239,0.194,-0.433,0.433,-0.433H11V0.3c0,-0.166,0.134,-0.3,0.3,-0.3h0.4c0.166,0,0.3,0.134,0.3,0.3v1.7h0.567C12.806,2,13,2.194,13,2.433zM17,2.433V3.5h-3V2.433c0,-0.239,0.194,-0.433,0.433,-0.433H15V0.3c0,-0.166,0.134,-0.3,0.3,-0.3h0.4c0.166,0,0.3,0.134,0.3,0.3v1.7h0.567C16.806,2,17,2.194,17,2.433zM21,2.433V3.5h-3V2.433c0,-0.239,0.194,-0.433,0.433,-0.433H19V0.3c0,-0.166,0.134,-0.3,0.3,-0.3h0.4c0.166,0,0.3,0.134,0.3,0.3v1.7h0.567C20.806,2,21,2.194,21,2.433z" fill="#AAB2BD"/>
      <path d="M4.567,20H4v1.7c0,0.166,-0.134,0.3,-0.3,0.3h-0.4c-0.166,0,-0.3,-0.134,-0.3,-0.3v-1.7h-0.567c-0.239,0,-0.433,-0.194,-0.433,-0.433V18.5h3v1.067C5,19.806,4.806,20,4.567,20zM8.567,20H8v1.7c0,0.166,-0.134,0.3,-0.3,0.3h-0.4c-0.166,0,-0.3,-0.134,-0.3,-0.3v-1.7h-0.567c-0.239,0,-0.433,-0.194,-0.433,-0.433V18.5h3v1.067C9,19.806,8.806,20,8.567,20zM12.567,20H12v1.7c0,0.166,-0.134,0.3,-0.3,0.3h-0.4c-0.166,0,-0.3,-0.134,-0.3,-0.3v-1.7h-0.567c-0.239,0,-0.433,-0.194,-0.433,-0.433V18.5h3v1.067C13,19.806,12.806,20,12.567,20zM16.567,20H16v1.7c0,0.166,-0.134,0.3,-0.3,0.3h-0.4c-0.166,0,-0.3,-0.134,-0.3,-0.3v-1.7h-0.567c-0.239,0,-0.433,-0.194,-0.433,-0.433V18.5h3v1.067C17,19.806,16.806,20,16.567,20zM20.567,20H20v1.7c0,0.166,-0.134,0.3,-0.3,0.3h-0.4c-0.166,0,-0.3,-0.134,-0.3,-0.3v-1.7h-0.567c-0.239,0,-0.433,-0.194,-0.433,-0.433V18.5h3v1.067C21,19.806,20.806,20,20.567,20z" fill="#AAB2BD"/>
    </g>
    <g id="overlay">
      <path d="M20.7962,22.7039c0,0.7847,-0.6445,1.2961,-1.3909,1.2961c-0.7463,0,-1.3711,-0.5115,-1.3711,-1.2961C19.1173,22.8083,19.6508,22.8083,20.7962,22.7039z" fill-rule="evenodd" fill="#C18F36"/>
      <path d="M23.8836,21.9314c-0.6454,-0.7084,-1.7348,-2.2438,-1.7348,-3.4277c0,-1.1189,-0.7321,-2.0727,-1.7598,-2.4415c0.0088,-0.0531,0.0143,-0.1075,0.0143,-0.1632c0,-0.5231,-0.4034,-0.9472,-0.9009,-0.9472c-0.4976,0,-0.9009,0.4241,-0.9009,0.9472c0,0.0433,0.0037,0.0857,0.0091,0.1275c-1.0836,0.3392,-1.8672,1.3198,-1.8672,2.4773c0,1.6576,-1.0749,2.668,-1.6781,3.4574c-0.6086,0.6438,3.1831,0.929,4.409,0.929C20.7001,22.89,24.529,22.6398,23.8836,21.9314z" fill-rule="evenodd" fill="#FFCE55"/>
      <path d="M23.8836,21.9314c-0.6454,-0.7084,-1.7348,-2.2438,-1.7348,-3.4277c0,-1.1189,-0.7321,-2.0727,-1.7598,-2.4415c0.0088,-0.0531,0.0143,-0.1075,0.0143,-0.1632c0,-0.5231,-0.3752,-0.9472,-0.8728,-0.9472c-0.0197,0,-0.0305,0.0009,-0.0305,0.0022v7.936c0,0,-0.0075,0.0001,0.0024,0.0001C20.7282,22.89,24.529,22.6398,23.8836,21.9314z" fill-rule="evenodd" fill="#F6BB43"/>
    </g>
  </g>
</svg>
