<?xml version="1.0" encoding="UTF-8"?>
<!DOCTYPE svg PUBLIC "-//W3C//DTD SVG 1.1//EN" "http://www.w3.org/Graphics/SVG/1.1/DTD/svg11.dtd">
<svg version="1.1" id="Layer_1" xmlns="http://www.w3.org/2000/svg" xmlns:xlink="http://www.w3.org/1999/xlink" x="0px" y="0px" width="24px" height="24px" viewBox="0 0 24 24" enable-background="new 0 0 24 24" xml:space="preserve">
  <g id="icon">
    <path d="M21.617,5H1.383C0.619,5,0,5.619,0,6.383v11.233C0,18.381,0.619,19,1.383,19h20.233c0.764,0,1.383,-0.619,1.383,-1.383V6.383C23,5.619,22.381,5,21.617,5z" fill="#666D78"/>
    <path d="M10.177,19h11.439c0.764,0,1.383,-0.619,1.383,-1.383V6.383c0,-0.764,-0.619,-1.383,-1.383,-1.383h-7.149L10.177,19z" fill="#444A54" opacity="0.3"/>
    <circle cx="20" cy="8" r="1" fill="#F6F7FB"/>
    <path d="M5,3.433V4.5H2V3.433c0,-0.239,0.194,-0.433,0.433,-0.433H3V1.3c0,-0.166,0.134,-0.3,0.3,-0.3h0.4c0.166,0,0.3,0.134,0.3,0.3v1.7h0.567C4.806,3,5,3.194,5,3.433zM9,3.433V4.5H6V3.433c0,-0.239,0.194,-0.433,0.433,-0.433H7V1.3c0,-0.166,0.134,-0.3,0.3,-0.3h0.4c0.166,0,0.3,0.134,0.3,0.3v1.7h0.567C8.806,3,9,3.194,9,3.433zM13,3.433V4.5h-3V3.433c0,-0.239,0.194,-0.433,0.433,-0.433H11V1.3c0,-0.166,0.134,-0.3,0.3,-0.3h0.4c0.166,0,0.3,0.134,0.3,0.3v1.7h0.567C12.806,3,13,3.194,13,3.433zM17,3.433V4.5h-3V3.433c0,-0.239,0.194,-0.433,0.433,-0.433H15V1.3c0,-0.166,0.134,-0.3,0.3,-0.3h0.4c0.166,0,0.3,0.134,0.3,0.3v1.7h0.567C16.806,3,17,3.194,17,3.433zM21,3.433V4.5h-3V3.433c0,-0.239,0.194,-0.433,0.433,-0.433H19V1.3c0,-0.166,0.134,-0.3,0.3,-0.3h0.4c0.166,0,0.3,0.134,0.3,0.3v1.7h0.567C20.806,3,21,3.194,21,3.433z" fill="#AAB2BD"/>
    <path d="M4.567,21H4v1.7c0,0.166,-0.134,0.3,-0.3,0.3h-0.4c-0.166,0,-0.3,-0.134,-0.3,-0.3v-1.7h-0.567c-0.239,0,-0.433,-0.194,-0.433,-0.433V19.5h3v1.067C5,20.806,4.806,21,4.567,21zM8.567,21H8v1.7c0,0.166,-0.134,0.3,-0.3,0.3h-0.4c-0.166,0,-0.3,-0.134,-0.3,-0.3v-1.7h-0.567c-0.239,0,-0.433,-0.194,-0.433,-0.433V19.5h3v1.067C9,20.806,8.806,21,8.567,21zM12.567,21H12v1.7c0,0.166,-0.134,0.3,-0.3,0.3h-0.4c-0.166,0,-0.3,-0.134,-0.3,-0.3v-1.7h-0.567c-0.239,0,-0.433,-0.194,-0.433,-0.433V19.5h3v1.067C13,20.806,12.806,21,12.567,21zM16.567,21H16v1.7c0,0.166,-0.134,0.3,-0.3,0.3h-0.4c-0.166,0,-0.3,-0.134,-0.3,-0.3v-1.7h-0.567c-0.239,0,-0.433,-0.194,-0.433,-0.433V19.5h3v1.067C17,20.806,16.806,21,16.567,21zM20.567,21H20v1.7c0,0.166,-0.134,0.3,-0.3,0.3h-0.4c-0.166,0,-0.3,-0.134,-0.3,-0.3v-1.7h-0.567c-0.239,0,-0.433,-0.194,-0.433,-0.433V19.5h3v1.067C21,20.806,20.806,21,20.567,21z" fill="#AAB2BD"/>
  </g>
</svg>
