<?xml version="1.0" encoding="UTF-8"?>
<!DOCTYPE svg PUBLIC "-//W3C//DTD SVG 1.1//EN" "http://www.w3.org/Graphics/SVG/1.1/DTD/svg11.dtd">
<svg version="1.1" id="Layer_1" xmlns="http://www.w3.org/2000/svg" xmlns:xlink="http://www.w3.org/1999/xlink" x="0px" y="0px" width="24px" height="24px" viewBox="0 0 24 24" enable-background="new 0 0 24 24" xml:space="preserve">
  <g id="icon">
    <path d="M21.509,1H2.491C1.668,1,1,1.668,1,2.491v19.018c0,0.824,0.668,1.491,1.491,1.491h19.018c0.824,0,1.491,-0.668,1.491,-1.491V2.491C23,1.668,22.332,1,21.509,1zM12,21.533c-5.265,0,-9.533,-4.268,-9.533,-9.533S6.735,2.467,12,2.467s9.533,4.268,9.533,9.533S17.265,21.533,12,21.533z" fill="#666D78"/>
    <path d="M10.991,20.433c-0.077,0,-0.149,-0.008,-0.202,-0.014c-0.737,-0.083,-2.882,-0.812,-3.428,-1.357c-0.012,-0.012,-0.025,-0.025,-0.038,-0.037c-0.225,-0.214,-0.43,-0.481,-0.249,-1.165l0.021,-0.079c0.169,-0.647,0.606,-2.322,2.224,-3.76c-0.226,-0.301,-0.4,-0.64,-0.515,-0.999c-0.143,0.044,-0.289,0.081,-0.436,0.11c-1.168,0.227,-2.669,1.379,-3.03,2.009c-0.128,0.223,-0.332,0.52,-0.63,0.52c-0.328,0,-0.473,-0.335,-0.543,-0.497c-0.297,-0.685,-0.744,-2.925,-0.55,-3.675c0.004,-0.017,0.008,-0.034,0.013,-0.052c0.071,-0.304,0.197,-0.617,0.875,-0.8l0.078,-0.021c0.394,-0.108,1.129,-0.31,2.097,-0.31c0.753,0,1.501,0.124,2.227,0.37c0.147,-0.351,0.353,-0.675,0.607,-0.957c-0.106,-0.1,-0.207,-0.206,-0.302,-0.317C8.43,8.495,6.692,7.758,5.97,7.758c-0.264,0,-0.632,-0.032,-0.772,-0.312c-0.141,-0.281,0.067,-0.565,0.166,-0.701c0.44,-0.602,2.138,-2.113,2.878,-2.318c0.017,-0.005,0.034,-0.01,0.051,-0.015c0.084,-0.025,0.189,-0.057,0.318,-0.057c0.265,0,0.521,0.134,0.806,0.422l0.057,0.057c0.469,0.469,1.683,1.685,2.111,3.807c0.131,-0.016,0.263,-0.023,0.395,-0.023c0.245,0,0.488,0.027,0.725,0.08c0.033,-0.144,0.074,-0.286,0.122,-0.426c0.389,-1.135,0.152,-3.022,-0.209,-3.653c-0.128,-0.223,-0.28,-0.55,-0.131,-0.811c0.063,-0.11,0.199,-0.24,0.495,-0.24c0.077,0,0.149,0.008,0.202,0.014c0.736,0.083,2.881,0.812,3.428,1.357c0.012,0.012,0.025,0.025,0.038,0.037c0.225,0.214,0.43,0.481,0.249,1.165l-0.021,0.079c-0.169,0.646,-0.606,2.32,-2.22,3.757c0.224,0.304,0.396,0.644,0.508,1.004c0.152,-0.049,0.306,-0.088,0.466,-0.119c1.168,-0.227,2.669,-1.379,3.03,-2.009c0.128,-0.223,0.332,-0.52,0.63,-0.52c0.328,0,0.473,0.335,0.543,0.497c0.297,0.686,0.744,2.925,0.55,3.675c-0.004,0.017,-0.008,0.034,-0.013,0.052c-0.071,0.304,-0.197,0.617,-0.875,0.8l-0.079,0.021c-0.394,0.108,-1.129,0.31,-2.098,0.31c0,0,0,0,0,0c-0.767,0,-1.529,-0.129,-2.267,-0.384c-0.144,0.343,-0.345,0.661,-0.593,0.939c0.117,0.108,0.227,0.223,0.334,0.346c0.779,0.907,2.517,1.644,3.239,1.644c0.264,0,0.632,0.032,0.772,0.312c0.141,0.281,-0.067,0.565,-0.166,0.701c-0.44,0.602,-2.138,2.113,-2.878,2.318c-0.017,0.005,-0.034,0.01,-0.051,0.015c-0.084,0.026,-0.189,0.057,-0.318,0.057c-0.264,0,-0.521,-0.134,-0.806,-0.422l-0.057,-0.058c-0.471,-0.471,-1.691,-1.692,-2.115,-3.828c-0.144,0.019,-0.29,0.029,-0.434,0.029c-0.239,0,-0.476,-0.026,-0.708,-0.076c-0.034,0.15,-0.076,0.299,-0.127,0.448c-0.389,1.135,-0.152,3.022,0.209,3.653c0.128,0.223,0.28,0.55,0.131,0.811C11.423,20.303,11.287,20.433,10.991,20.433z" fill-rule="evenodd" fill="#5D9CEC"/>
    <circle cx="12" cy="12" r="3.5" fill-rule="evenodd" fill="#3E74AE"/>
    <path d="M2.32,3.2c0,-0.486,0.394,-0.88,0.88,-0.88s0.88,0.394,0.88,0.88s-0.394,0.88,-0.88,0.88S2.32,3.686,2.32,3.2zM20.8,4.08c0.486,0,0.88,-0.394,0.88,-0.88s-0.394,-0.88,-0.88,-0.88s-0.88,0.394,-0.88,0.88S20.314,4.08,20.8,4.08zM20.8,21.68c0.486,0,0.88,-0.394,0.88,-0.88s-0.394,-0.88,-0.88,-0.88s-0.88,0.394,-0.88,0.88S20.314,21.68,20.8,21.68zM3.2,21.68c0.486,0,0.88,-0.394,0.88,-0.88s-0.394,-0.88,-0.88,-0.88s-0.88,0.394,-0.88,0.88S2.714,21.68,3.2,21.68z" fill="#FFFFFF"/>
    <path d="M23,2.491v19.018c0,0.824,-0.668,1.491,-1.491,1.491H7.337l0.945,-2.219c1.142,0.484,2.399,0.752,3.717,0.752c5.265,0,9.533,-4.268,9.533,-9.533c0,-3.931,-2.379,-7.305,-5.776,-8.764L16.711,1h4.798C22.332,1,23,1.668,23,2.491zM16.879,6.219L16.9,6.14c0.182,-0.684,-0.023,-0.951,-0.249,-1.165c-0.013,-0.012,-0.026,-0.025,-0.038,-0.037c-0.225,-0.224,-0.721,-0.48,-1.278,-0.708L8.702,19.797c0.781,0.315,1.665,0.575,2.086,0.623c0.053,0.006,0.125,0.014,0.202,0.014c0.296,0,0.433,-0.131,0.495,-0.24c0.149,-0.261,-0.003,-0.588,-0.131,-0.811c-0.361,-0.631,-0.598,-2.519,-0.209,-3.653c0.036,-0.104,0.066,-0.209,0.093,-0.313c0.245,0.054,0.5,0.084,0.761,0.084c0.152,0,0.3,-0.011,0.447,-0.029c0.449,2.046,1.623,3.225,2.083,3.686l0.057,0.058c0.286,0.288,0.542,0.422,0.806,0.422c0.129,0,0.234,-0.032,0.318,-0.057c0.017,-0.005,0.034,-0.01,0.051,-0.015c0.741,-0.206,2.439,-1.716,2.878,-2.318c0.1,-0.136,0.307,-0.42,0.166,-0.701c-0.14,-0.28,-0.508,-0.312,-0.772,-0.312c-0.722,0,-2.46,-0.736,-3.239,-1.644c-0.068,-0.08,-0.139,-0.154,-0.212,-0.227c0.268,-0.293,0.487,-0.631,0.643,-1.003c0.685,0.217,1.388,0.328,2.095,0.328c0,0,0,0,0,0c0.969,0,1.703,-0.202,2.098,-0.31l0.079,-0.021c0.678,-0.183,0.804,-0.496,0.875,-0.8c0.004,-0.018,0.008,-0.035,0.013,-0.052c0.194,-0.75,-0.253,-2.99,-0.55,-3.675c-0.07,-0.161,-0.215,-0.497,-0.543,-0.497c-0.298,0,-0.502,0.297,-0.63,0.52c-0.361,0.631,-1.862,1.782,-3.03,2.009c-0.102,0.02,-0.202,0.045,-0.3,0.071c-0.124,-0.388,-0.315,-0.747,-0.558,-1.063C16.294,8.456,16.715,6.849,16.879,6.219z" fill-rule="evenodd" fill="#231F20" opacity="0.15"/>
  </g>
</svg>
