<?xml version="1.0" encoding="UTF-8"?>
<!DOCTYPE svg PUBLIC "-//W3C//DTD SVG 1.1//EN" "http://www.w3.org/Graphics/SVG/1.1/DTD/svg11.dtd">
<svg version="1.1" id="Layer_1" xmlns="http://www.w3.org/2000/svg" xmlns:xlink="http://www.w3.org/1999/xlink" x="0px" y="0px" width="24px" height="24px" viewBox="0 0 24 24" enable-background="new 0 0 24 24" xml:space="preserve">
  <g id="main">
    <clipPath id="clip_mask">
      <path d="M14,19.5c0,-3.0327,2.4673,-5.5,5.5,-5.5c1.8588,0,3.5039,0.9278,4.5,2.3436V0H0v24h16.3436C14.9278,23.0039,14,21.3588,14,19.5z"/>
    </clipPath>
    <g id="icon" clip-path="url(#clip_mask)">
      <g id="transformed_icon" transform="translate(-1 -1)">
        <path d="M21.8,3h-2.3051c0.0022,0.0332,0.0051,0.0663,0.0051,0.1v0.9c0,0.825,-0.675,1.5,-1.5,1.5s-1.5,-0.675,-1.5,-1.5v-0.9c0,-0.0337,0.0029,-0.0668,0.0051,-0.1H7.4949C7.4971,3.0332,7.5,3.0663,7.5,3.1v0.9c0,0.825,-0.675,1.5,-1.5,1.5s-1.5,-0.675,-1.5,-1.5v-0.9c0,-0.0337,0.0029,-0.0668,0.0051,-0.1H2.2c-0.66,0,-1.2,0.54,-1.2,1.2v2.8h22V4.2C23,3.54,22.46,3,21.8,3z" fill="#DB4453"/>
        <path d="M22,22H2c-0.5523,0,-1,-0.4477,-1,-1V7h22v14C23,21.5523,22.5523,22,22,22z" fill="#E6E9EE"/>
        <path d="M21.8,3h-2.3051c0.0022,0.0332,0.0051,0.0663,0.0051,0.1v0.9c0,0.825,-0.675,1.5,-1.5,1.5c-0.4375,0,-0.8316,-0.191,-1.1064,-0.4923L7.0831,22H22c0.5523,0,1,-0.4477,1,-1V7V4.2C23,3.54,22.46,3,21.8,3z" fill="#231F20" opacity="0.1"/>
        <path d="M6,5L6,5c-0.55,0,-1,-0.45,-1,-1V2c0,-0.55,0.45,-1,1,-1h0c0.55,0,1,0.45,1,1v2C7,4.55,6.55,5,6,5zM19,4V2c0,-0.55,-0.45,-1,-1,-1h0c-0.55,0,-1,0.45,-1,1v2c0,0.55,0.45,1,1,1h0C18.55,5,19,4.55,19,4z" fill="#536880"/>
        <path d="M14,9h-4v3h4V9zM19,9h-4v3h4V9zM9,13H5v3h4V13zM14,13h-4v3h4V13zM19,13h-4v3h4V13zM9,17H5v3h4V17zM14,17h-4v3h4V17zM19,17h-4v3h4V17z" fill="#8E949C"/>
      </g>
    </g>
    <g id="overlay">
      <circle cx="19.5" cy="19.5" r="4.4899" fill="#48CFAE"/>
      <path d="M22.6749,16.3251c-0.0061,-0.0061,-0.0124,-0.0121,-0.0186,-0.0182l-6.3493,6.3493c0.0061,0.0062,0.012,0.0125,0.0182,0.0186c1.7534,1.7534,4.5963,1.7534,6.3497,0S24.4283,18.0786,22.6749,16.3251z" fill="#36BC9B" opacity="0.7"/>
      <path d="M21.8,19h-1.8v-1.8c0,-0.1105,-0.0895,-0.2,-0.2,-0.2h-0.6c-0.1105,0,-0.2,0.0895,-0.2,0.2v1.8h-1.8c-0.1105,0,-0.2,0.0895,-0.2,0.2v0.6c0,0.1105,0.0895,0.2,0.2,0.2h1.8v1.8c0,0.1105,0.0895,0.2,0.2,0.2h0.6c0.1105,0,0.2,-0.0895,0.2,-0.2v-1.8h1.8c0.1105,0,0.2,-0.0895,0.2,-0.2v-0.6C22,19.0895,21.9105,19,21.8,19z" fill="#FFFFFF"/>
    </g>
  </g>
</svg>
