<?xml version="1.0" encoding="UTF-8"?>
<!DOCTYPE svg PUBLIC "-//W3C//DTD SVG 1.1//EN" "http://www.w3.org/Graphics/SVG/1.1/DTD/svg11.dtd">
<svg version="1.1" id="Layer_1" xmlns="http://www.w3.org/2000/svg" xmlns:xlink="http://www.w3.org/1999/xlink" x="0px" y="0px" width="24px" height="24px" viewBox="0 0 24 24" enable-background="new 0 0 24 24" xml:space="preserve">
  <g id="icon">
    <path d="M21.8,3h-2.3051c0.0022,0.0332,0.0051,0.0663,0.0051,0.1v0.9c0,0.825,-0.675,1.5,-1.5,1.5s-1.5,-0.675,-1.5,-1.5v-0.9c0,-0.0337,0.0029,-0.0668,0.0051,-0.1H7.4949C7.4971,3.0332,7.5,3.0663,7.5,3.1v0.9c0,0.825,-0.675,1.5,-1.5,1.5s-1.5,-0.675,-1.5,-1.5v-0.9c0,-0.0337,0.0029,-0.0668,0.0051,-0.1H2.2c-0.66,0,-1.2,0.54,-1.2,1.2v2.8h22V4.2C23,3.54,22.46,3,21.8,3z" fill="#DB4453"/>
    <path d="M22,22H2c-0.5523,0,-1,-0.4477,-1,-1V7h22v14C23,21.5523,22.5523,22,22,22z" fill="#E6E9EE"/>
    <path d="M21.8,3h-2.3051c0.0022,0.0332,0.0051,0.0663,0.0051,0.1v0.9c0,0.825,-0.675,1.5,-1.5,1.5c-0.4375,0,-0.8316,-0.191,-1.1064,-0.4923L7.0831,22H22c0.5523,0,1,-0.4477,1,-1V7V4.2C23,3.54,22.46,3,21.8,3z" fill="#231F20" opacity="0.1"/>
    <path d="M6,5L6,5c-0.55,0,-1,-0.45,-1,-1V2c0,-0.55,0.45,-1,1,-1h0c0.55,0,1,0.45,1,1v2C7,4.55,6.55,5,6,5zM19,4V2c0,-0.55,-0.45,-1,-1,-1h0c-0.55,0,-1,0.45,-1,1v2c0,0.55,0.45,1,1,1h0C18.55,5,19,4.55,19,4z" fill="#536880"/>
    <path d="M14,9h-4v3h4V9zM19,9h-4v3h4V9zM9,13H5v3h4V13zM14,13h-4v3h4V13zM19,13h-4v3h4V13zM9,17H5v3h4V17zM14,17h-4v3h4V17zM19,17h-4v3h4V17z" fill="#8E949C"/>
  </g>
</svg>
