<?xml version="1.0" encoding="UTF-8"?>
<!DOCTYPE svg PUBLIC "-//W3C//DTD SVG 1.1//EN" "http://www.w3.org/Graphics/SVG/1.1/DTD/svg11.dtd">
<svg version="1.1" id="Layer_1" xmlns="http://www.w3.org/2000/svg" xmlns:xlink="http://www.w3.org/1999/xlink" x="0px" y="0px" width="24px" height="24px" viewBox="0 0 24 24" enable-background="new 0 0 24 24" xml:space="preserve">
  <g id="main">
    <clipPath id="clip_mask">
      <path d="M17.2877,23.7612c-0.1662,-0.0172,-0.3327,-0.0359,-0.4969,-0.0567c-1.7181,-0.2175,-2.424,-0.5199,-2.6978,-1.1558c-0.1767,-0.4104,-0.0992,-0.8736,0.2005,-1.2245c0.0964,-0.1247,0.1976,-0.2479,0.3043,-0.3778c0.5644,-0.6869,1.1479,-1.3972,1.1479,-2.4428c0,-1.3466,0.7584,-2.5517,1.9429,-3.1718c0.2378,-0.7979,0.9637,-1.3801,1.8198,-1.3801c0.8829,0,1.6272,0.6189,1.8407,1.4553c1.1039,0.6422,1.8093,1.8172,1.8093,3.0966c0,0.4992,0.3702,1.2624,0.8416,1.9482V0H0v24h17.4305C17.3784,23.9236,17.3302,23.8443,17.2877,23.7612z"/>
    </clipPath>
    <g id="icon" clip-path="url(#clip_mask)">
      <g id="transformed_icon" transform="translate(-1 -1)">
        <path d="M22.3263,10.2788l-2.3316,-0.7763l-0.5762,-1.3877l1.0971,-2.1956c0.1881,-0.3762,0.114,-0.8306,-0.1834,-1.128L19.209,3.6681c-0.2974,-0.2974,-0.7519,-0.3711,-1.1281,-0.183l-2.1956,1.0978l-1.3877,-0.5748l-0.7763,-2.3343c-0.133,-0.399,-0.5064,-0.6737,-0.927,-0.6737h-1.5884c-0.4206,0,-0.794,0.2747,-0.927,0.6737l-0.7763,2.3316l-1.3877,0.5762L5.9192,3.4844c-0.3762,-0.1881,-0.8306,-0.114,-1.128,0.1834L3.6681,4.7911c-0.2974,0.2974,-0.3711,0.7519,-0.183,1.1281l1.0978,2.1956L4.008,9.5025l-2.3343,0.7763c-0.399,0.133,-0.6737,0.5064,-0.6737,0.927v1.5884c0,0.4206,0.2747,0.794,0.6737,0.927l2.3316,0.7763l0.5762,1.3877l-1.0971,2.1956c-0.1881,0.3762,-0.114,0.8306,0.1834,1.128l1.1233,1.1231c0.2974,0.2974,0.7519,0.3712,1.1281,0.183l2.1956,-1.0978l1.3877,0.5748l0.7763,2.3343c0.133,0.399,0.5064,0.6737,0.927,0.6737h1.5884c0.4206,0,0.794,-0.2747,0.927,-0.6737l0.7763,-2.3316l1.3877,-0.5762l2.1956,1.0971c0.3762,0.1881,0.8306,0.114,1.128,-0.1834l1.1231,-1.1233c0.2974,-0.2974,0.3712,-0.7519,0.183,-1.1281l-1.0978,-2.1956l0.5748,-1.3877l2.3343,-0.7763c0.399,-0.133,0.6737,-0.5064,0.6737,-0.927v-1.5884C23,10.7852,22.7253,10.4118,22.3263,10.2788zM12,14.2c-1.215,0,-2.2,-0.985,-2.2,-2.2c0,-1.215,0.985,-2.2,2.2,-2.2s2.2,0.985,2.2,2.2C14.2,13.215,13.215,14.2,12,14.2z" fill="#AAB2BD"/>
        <path d="M12,5.6c-3.5346,0,-6.4,2.8654,-6.4,6.4s2.8654,6.4,6.4,6.4s6.4,-2.8654,6.4,-6.4S15.5346,5.6,12,5.6zM12,16c-2.2091,0,-4,-1.7909,-4,-4c0,-2.2091,1.7909,-4,4,-4s4,1.7909,4,4C16,14.2091,14.2091,16,12,16z" fill="#8E949C"/>
        <path d="M22.3263,10.2788l-2.3316,-0.7763l-0.5762,-1.3877l1.0971,-2.1956c0.1881,-0.3762,0.114,-0.8306,-0.1834,-1.128l-0.5618,-0.5617l-6.2148,6.2148C13.9538,10.8425,14.2,11.3925,14.2,12c0,1.215,-0.985,2.2,-2.2,2.2c-0.6075,0,-1.1575,-0.2462,-1.5556,-0.6444l-6.2148,6.2148l0.5615,0.5614c0.2974,0.2974,0.7519,0.3711,1.1281,0.183l2.1956,-1.0978l1.3877,0.5748l0.7763,2.3343c0.133,0.399,0.5064,0.6737,0.927,0.6737h1.5884c0.4206,0,0.794,-0.2747,0.927,-0.6737l0.7763,-2.3316l1.3877,-0.5762l2.1956,1.0971c0.3762,0.1881,0.8306,0.114,1.128,-0.1834l1.1231,-1.1233c0.2974,-0.2974,0.3711,-0.7519,0.183,-1.1281l-1.0978,-2.1956l0.5748,-1.3877l2.3343,-0.7763c0.399,-0.133,0.6737,-0.5064,0.6737,-0.927v-1.5884C23,10.7852,22.7253,10.4118,22.3263,10.2788z" fill="#231F20" opacity="0.1"/>
      </g>
    </g>
    <g id="overlay">
      <path d="M20.7962,22.7039c0,0.7847,-0.6445,1.2961,-1.3909,1.2961c-0.7463,0,-1.3711,-0.5115,-1.3711,-1.2961C19.1173,22.8083,19.6508,22.8083,20.7962,22.7039z" fill-rule="evenodd" fill="#C18F36"/>
      <path d="M23.8836,21.9314c-0.6454,-0.7084,-1.7348,-2.2438,-1.7348,-3.4277c0,-1.1189,-0.7321,-2.0727,-1.7598,-2.4415c0.0088,-0.0531,0.0143,-0.1075,0.0143,-0.1632c0,-0.5231,-0.4034,-0.9472,-0.9009,-0.9472c-0.4976,0,-0.9009,0.4241,-0.9009,0.9472c0,0.0433,0.0037,0.0857,0.0091,0.1275c-1.0836,0.3392,-1.8672,1.3198,-1.8672,2.4773c0,1.6576,-1.0749,2.668,-1.6781,3.4574c-0.6086,0.6438,3.1831,0.929,4.409,0.929C20.7001,22.89,24.529,22.6398,23.8836,21.9314z" fill-rule="evenodd" fill="#FFCE55"/>
      <path d="M23.8836,21.9314c-0.6454,-0.7084,-1.7348,-2.2438,-1.7348,-3.4277c0,-1.1189,-0.7321,-2.0727,-1.7598,-2.4415c0.0088,-0.0531,0.0143,-0.1075,0.0143,-0.1632c0,-0.5231,-0.3752,-0.9472,-0.8728,-0.9472c-0.0197,0,-0.0305,0.0009,-0.0305,0.0022v7.936c0,0,-0.0075,0.0001,0.0024,0.0001C20.7282,22.89,24.529,22.6398,23.8836,21.9314z" fill-rule="evenodd" fill="#F6BB43"/>
    </g>
  </g>
</svg>
