<?xml version="1.0" encoding="UTF-8"?>
<!DOCTYPE svg PUBLIC "-//W3C//DTD SVG 1.1//EN" "http://www.w3.org/Graphics/SVG/1.1/DTD/svg11.dtd">
<svg version="1.1" id="Layer_1" xmlns="http://www.w3.org/2000/svg" xmlns:xlink="http://www.w3.org/1999/xlink" x="0px" y="0px" width="24px" height="24px" viewBox="0 0 24 24" enable-background="new 0 0 24 24" xml:space="preserve">
  <g id="main">
    <clipPath id="clip_mask">
      <path d="M17.2877,23.7612c-0.1662,-0.0172,-0.3327,-0.0359,-0.4969,-0.0567c-1.7181,-0.2175,-2.424,-0.5199,-2.6978,-1.1558c-0.1767,-0.4104,-0.0992,-0.8736,0.2005,-1.2245c0.0964,-0.1247,0.1976,-0.2479,0.3043,-0.3778c0.5644,-0.6869,1.1479,-1.3972,1.1479,-2.4428c0,-1.3466,0.7584,-2.5517,1.9429,-3.1718c0.2378,-0.7979,0.9637,-1.3801,1.8198,-1.3801c0.8829,0,1.6272,0.6189,1.8407,1.4553c1.1039,0.6422,1.8093,1.8172,1.8093,3.0966c0,0.4992,0.3702,1.2624,0.8416,1.9482V0H0v24h17.4305C17.3784,23.9236,17.3302,23.8443,17.2877,23.7612z"/>
    </clipPath>
    <g id="icon" clip-path="url(#clip_mask)">
      <g id="transformed_icon" transform="translate(-1 -1)">
        <path d="M17,1H3c-0.5523,0,-1,0.4477,-1,1v19c0,0.5523,0.4477,1,1,1h14c0.5523,0,1,-0.4477,1,-1V2C18,1.4477,17.5523,1,17,1z" fill="#536880"/>
        <rect x="3.5" y="2.5" width="13" height="16.5" fill="#4FC0E8"/>
        <path d="M16.8,1h-3.4444L8.3593,22H16.8c0.66,0,1.2,-0.51,1.2,-0.6611V2.6056C18,1.51,17.46,1,16.8,1z" fill="#231F20" opacity="0.1"/>
        <circle cx="10" cy="20.5" r="0.8" fill="#E6E9EE"/>
        <path d="M22,6h-8c-0.5523,0,-1,0.4477,-1,1v15c0,0.5523,0.4477,1,1,1h8c0.5523,0,1,-0.4477,1,-1V7C23,6.4477,22.5523,6,22,6z" fill="#536880"/>
        <rect x="14" y="8" width="8" height="12" fill="#4FC0E8"/>
        <path d="M21.8,6h-0.9444l-3.4963,17H21.8c0.66,0,1.2,-0.51,1.2,-0.6611V7.6056C23,6.51,22.46,6,21.8,6z" fill="#231F20" opacity="0.1"/>
        <circle cx="18" cy="21.5" r="0.8" fill="#E6E9EE"/>
        <path d="M18.825,7.3h-1.65c-0.165,0,-0.3,-0.135,-0.3,-0.3l0,0c0,-0.165,0.135,-0.3,0.3,-0.3h1.65c0.165,0,0.3,0.135,0.3,0.3l0,0C19.125,7.165,18.99,7.3,18.825,7.3z" fill="#E6E9EE"/>
      </g>
    </g>
    <g id="overlay">
      <path d="M20.7962,22.7039c0,0.7847,-0.6445,1.2961,-1.3909,1.2961c-0.7463,0,-1.3711,-0.5115,-1.3711,-1.2961C19.1173,22.8083,19.6508,22.8083,20.7962,22.7039z" fill-rule="evenodd" fill="#C18F36"/>
      <path d="M23.8836,21.9314c-0.6454,-0.7084,-1.7348,-2.2438,-1.7348,-3.4277c0,-1.1189,-0.7321,-2.0727,-1.7598,-2.4415c0.0088,-0.0531,0.0143,-0.1075,0.0143,-0.1632c0,-0.5231,-0.4034,-0.9472,-0.9009,-0.9472c-0.4976,0,-0.9009,0.4241,-0.9009,0.9472c0,0.0433,0.0037,0.0857,0.0091,0.1275c-1.0836,0.3392,-1.8672,1.3198,-1.8672,2.4773c0,1.6576,-1.0749,2.668,-1.6781,3.4574c-0.6086,0.6438,3.1831,0.929,4.409,0.929C20.7001,22.89,24.529,22.6398,23.8836,21.9314z" fill-rule="evenodd" fill="#FFCE55"/>
      <path d="M23.8836,21.9314c-0.6454,-0.7084,-1.7348,-2.2438,-1.7348,-3.4277c0,-1.1189,-0.7321,-2.0727,-1.7598,-2.4415c0.0088,-0.0531,0.0143,-0.1075,0.0143,-0.1632c0,-0.5231,-0.3752,-0.9472,-0.8728,-0.9472c-0.0197,0,-0.0305,0.0009,-0.0305,0.0022v7.936c0,0,-0.0075,0.0001,0.0024,0.0001C20.7282,22.89,24.529,22.6398,23.8836,21.9314z" fill-rule="evenodd" fill="#F6BB43"/>
    </g>
  </g>
</svg>
