<?xml version="1.0" encoding="UTF-8"?>
<!DOCTYPE svg PUBLIC "-//W3C//DTD SVG 1.1//EN" "http://www.w3.org/Graphics/SVG/1.1/DTD/svg11.dtd">
<svg version="1.1" id="Layer_1" xmlns="http://www.w3.org/2000/svg" xmlns:xlink="http://www.w3.org/1999/xlink" x="0px" y="0px" width="24px" height="24px" viewBox="0 0 24 24" enable-background="new 0 0 24 24" xml:space="preserve">
  <g id="main">
    <clipPath id="clip_mask">
      <path d="M14,19.5c0,-3.0327,2.4673,-5.5,5.5,-5.5c1.8588,0,3.5039,0.9278,4.5,2.3436V0H0v24h16.3436C14.9278,23.0039,14,21.3588,14,19.5z"/>
    </clipPath>
    <g id="icon" clip-path="url(#clip_mask)">
      <g id="transformed_icon" transform="translate(-1 -1)">
        <path d="M8.425,5.1h-3.85C4.2588,5.1,4,4.8412,4,4.525v-0.95c0,-0.3162,0.2588,-0.575,0.575,-0.575h3.85c0.3162,0,0.575,0.2588,0.575,0.575v0.95C9,4.8412,8.7412,5.1,8.425,5.1z" fill="#434A54"/>
        <path d="M21.8,20H2.2c-0.66,0,-1.2,-0.54,-1.2,-1.2V5.2c0,-0.66,0.54,-1.2,1.2,-1.2h19.6c0.66,0,1.2,0.54,1.2,1.2v13.6C23,19.46,22.46,20,21.8,20z" fill="#CCD0D9"/>
        <rect x="1" y="8" width="22" height="8" fill="#656D78"/>
        <rect x="1" y="7" width="22" height="1" fill="#8E949C"/>
        <rect x="1" y="16" width="22" height="1" fill="#8E949C"/>
        <path d="M12.1494,20H21.8c0.66,0,1.2,-0.54,1.2,-1.2V5.2c0,-0.66,-0.54,-1.2,-1.2,-1.2h-2.9724L12.1494,20z" fill="#231F20" opacity="0.1"/>
        <path d="M7.5,6H3.5c-0.275,0,-0.5,-0.225,-0.5,-0.5v0c0,-0.275,0.225,-0.5,0.5,-0.5h4c0.275,0,0.5,0.225,0.5,0.5v0C8,5.775,7.775,6,7.5,6z" fill="#AAB2BD"/>
        <circle cx="20" cy="5.5" r="1" fill="#ED5564"/>
        <circle cx="12" cy="12" r="6.5" fill="#F6F7FB"/>
        <circle cx="12" cy="12" r="5.0917" fill="#5D9CEC"/>
        <circle cx="12" cy="12" r="2.7083" fill="#3D73AD"/>
        <circle cx="10.9167" cy="10.9167" r="0.7583" fill="#F6F7FB"/>
      </g>
    </g>
    <g id="overlay">
      <circle cx="19.5" cy="19.5" r="4.4899" fill="#ED5564"/>
      <path d="M22.6749,16.3251c-0.0061,-0.0061,-0.0124,-0.0121,-0.0186,-0.0182l-6.3493,6.3493c0.0061,0.0062,0.012,0.0125,0.0182,0.0186c1.7534,1.7534,4.5963,1.7534,6.3497,0S24.4283,18.0786,22.6749,16.3251z" fill="#DB4453"/>
      <path d="M21.5799,20.8728L20.2071,19.5l1.3728,-1.3728c0.0781,-0.0781,0.0781,-0.2047,0,-0.2828l-0.4243,-0.4243c-0.0781,-0.0781,-0.2047,-0.0781,-0.2828,0L19.5,18.7929l-1.3728,-1.3728c-0.0781,-0.0781,-0.2047,-0.0781,-0.2828,0l-0.4243,0.4243c-0.0781,0.0781,-0.0781,0.2047,0,0.2828L18.7929,19.5l-1.3728,1.3728c-0.0781,0.0781,-0.0781,0.2047,0,0.2828l0.4243,0.4243c0.0781,0.0781,0.2047,0.0781,0.2828,0L19.5,20.2071l1.3728,1.3728c0.0781,0.0781,0.2047,0.0781,0.2828,0l0.4243,-0.4243C21.658,21.0775,21.658,20.9509,21.5799,20.8728z" fill="#FFFFFF"/>
    </g>
  </g>
</svg>
