<?xml version="1.0" encoding="UTF-8"?>
<!DOCTYPE svg PUBLIC "-//W3C//DTD SVG 1.1//EN" "http://www.w3.org/Graphics/SVG/1.1/DTD/svg11.dtd">
<svg version="1.1" id="Layer_1" xmlns="http://www.w3.org/2000/svg" xmlns:xlink="http://www.w3.org/1999/xlink" x="0px" y="0px" width="24px" height="24px" viewBox="0 0 24 24" enable-background="new 0 0 24 24" xml:space="preserve">
  <g id="main">
    <clipPath id="clip_mask">
      <path d="M14,19.5c0,-3.0327,2.4673,-5.5,5.5,-5.5c1.8588,0,3.5039,0.9278,4.5,2.3436V0H0v24h16.3436C14.9278,23.0039,14,21.3588,14,19.5z"/>
    </clipPath>
    <g id="icon" clip-path="url(#clip_mask)">
      <g id="transformed_icon" transform="translate(-1 -1)">
        <path d="M23,6V3.2c0,-0.66,-0.54,-1.2,-1.2,-1.2H2.2c-0.66,0,-1.2,0.54,-1.2,1.2v2.8H23z" fill="#656D78"/>
        <path d="M1,6v14.8c0,0.66,0.54,1.2,1.2,1.2h19.6c0.66,0,1.2,-0.54,1.2,-1.2V6" fill="#E6E9EE"/>
        <path d="M8,20H3V8h5V20zM9,8v12h12V8H9z" fill="#AAB2BD" opacity="0.7"/>
        <path d="M21.8,2h-3.7738l-1.7213,6H21v12h-8.1377l-0.5738,2H21.8c0.66,0,1.2,-0.54,1.2,-1.2V3.2C23,2.54,22.46,2,21.8,2z" fill="#231F20" opacity="0.06"/>
        <path d="M19.5125,19h-4.025c-0.2692,0,-0.4875,-0.2183,-0.4875,-0.4875v-1.025c0,-0.2692,0.2183,-0.4875,0.4875,-0.4875h4.025c0.2692,0,0.4875,0.2183,0.4875,0.4875v1.025C20,18.7817,19.7817,19,19.5125,19z" fill="#8E949C"/>
        <line x1="11" y1="10.5" x2="19" y2="10.5" fill="none" stroke="#8E949C" stroke-width="1" stroke-linecap="round" stroke-miterlimit="1"/>
        <line x1="11" y1="12.5" x2="19" y2="12.5" fill="none" stroke="#8E949C" stroke-width="1" stroke-linecap="round" stroke-miterlimit="1"/>
        <line x1="11" y1="14.5" x2="19" y2="14.5" fill="none" stroke="#8E949C" stroke-width="1" stroke-linecap="round" stroke-miterlimit="1"/>
        <path d="M4.425,5h-0.85C3.2588,5,3,4.7412,3,4.425v-0.85c0,-0.3162,0.2588,-0.575,0.575,-0.575h0.85c0.3162,0,0.575,0.2588,0.575,0.575v0.85C5,4.7412,4.7412,5,4.425,5z" fill="#ED5564"/>
        <path d="M7.425,5h-0.85C6.2588,5,6,4.7412,6,4.425v-0.85c0,-0.3162,0.2588,-0.575,0.575,-0.575h0.85c0.3162,0,0.575,0.2588,0.575,0.575v0.85C8,4.7412,7.7412,5,7.425,5z" fill="#36BC9B"/>
        <path d="M10.425,5h-0.85C9.2588,5,9,4.7412,9,4.425v-0.85c0,-0.3162,0.2588,-0.575,0.575,-0.575h0.85c0.3162,0,0.575,0.2588,0.575,0.575v0.85C11,4.7412,10.7412,5,10.425,5z" fill="#F6BB43"/>
      </g>
    </g>
    <g id="overlay">
      <circle cx="19.5" cy="19.5" r="4.4899" fill="#48CFAE"/>
      <path d="M22.6749,16.3251c-0.0061,-0.0061,-0.0124,-0.0121,-0.0186,-0.0182l-6.3493,6.3493c0.0061,0.0062,0.012,0.0125,0.0182,0.0186c1.7534,1.7534,4.5963,1.7534,6.3497,0S24.4283,18.0786,22.6749,16.3251z" fill="#36BC9B" opacity="0.7"/>
      <path d="M21.8,19h-1.8v-1.8c0,-0.1105,-0.0895,-0.2,-0.2,-0.2h-0.6c-0.1105,0,-0.2,0.0895,-0.2,0.2v1.8h-1.8c-0.1105,0,-0.2,0.0895,-0.2,0.2v0.6c0,0.1105,0.0895,0.2,0.2,0.2h1.8v1.8c0,0.1105,0.0895,0.2,0.2,0.2h0.6c0.1105,0,0.2,-0.0895,0.2,-0.2v-1.8h1.8c0.1105,0,0.2,-0.0895,0.2,-0.2v-0.6C22,19.0895,21.9105,19,21.8,19z" fill="#FFFFFF"/>
    </g>
  </g>
</svg>
