<?xml version="1.0" encoding="UTF-8"?>
<!DOCTYPE svg PUBLIC "-//W3C//DTD SVG 1.1//EN" "http://www.w3.org/Graphics/SVG/1.1/DTD/svg11.dtd">
<svg version="1.1" id="Layer_1" xmlns="http://www.w3.org/2000/svg" xmlns:xlink="http://www.w3.org/1999/xlink" x="0px" y="0px" width="24px" height="24px" viewBox="0 0 24 24" enable-background="new 0 0 24 24" xml:space="preserve">
  <g id="main">
    <clipPath id="clip_mask">
      <path d="M14,19.5c0,-3.0327,2.4673,-5.5,5.5,-5.5c1.8588,0,3.5039,0.9278,4.5,2.3436V0H0v24h16.3436C14.9278,23.0039,14,21.3588,14,19.5z"/>
    </clipPath>
    <g id="icon" clip-path="url(#clip_mask)">
      <g id="transformed_icon" transform="translate(-1 -1)">
        <path d="M19.8,1H6v22h13.8c0.66,0,1.2,-0.54,1.2,-1.2V2.2C21,1.54,20.46,1,19.8,1z" fill="#5D9CEC"/>
        <path d="M20.5948,1.3046L6.1008,23H19.8c0.66,0,1.2,-0.54,1.2,-1.2V2.2C21,1.8445,20.8425,1.5248,20.5948,1.3046z" fill="#4B89DC" opacity="0.64"/>
        <path d="M6,1H4.2c-0.66,0,-1.2,0.54,-1.2,1.2v19.6c0,0.66,0.54,1.2,1.2,1.2h1.8V1z" fill="#3D73AD"/>
        <path d="M17.3375,9h-7.675C9.2966,9,9,8.7034,9,8.3375v-2.675C9,5.2966,9.2966,5,9.6625,5h7.675c0.3659,0,0.6625,0.2966,0.6625,0.6625v2.675C18,8.7034,17.7034,9,17.3375,9z" fill="#F6F7FB"/>
      </g>
    </g>
    <g id="overlay">
      <circle cx="19.5" cy="19.5" r="4.4899" fill="#5D9CEC"/>
      <path d="M22.6826,16.37c-0.0061,-0.0061,-0.0124,-0.012,-0.0185,-0.0181l-6.3121,6.3121c0.0061,0.0061,0.0119,0.0124,0.0181,0.0185c1.7432,1.7432,4.5694,1.7432,6.3126,0S24.4257,18.1131,22.6826,16.37z" fill="#4B89DC" opacity="0.7"/>
      <path d="M19.2,19h0.6c0.1105,0,0.2,0.0895,0.2,0.2v2.9c0,0.1105,-0.0895,0.2,-0.2,0.2h-0.6c-0.1105,0,-0.2,-0.0895,-0.2,-0.2v-2.9C19,19.0895,19.0895,19,19.2,19zM19,16.9v0.9c0,0.1105,0.0895,0.2,0.2,0.2h0.6c0.1105,0,0.2,-0.0895,0.2,-0.2v-0.9c0,-0.1105,-0.0895,-0.2,-0.2,-0.2h-0.6C19.0895,16.7,19,16.7895,19,16.9z" fill="#FFFFFF"/>
    </g>
  </g>
</svg>
