<?xml version="1.0" encoding="UTF-8"?>
<!DOCTYPE svg PUBLIC "-//W3C//DTD SVG 1.1//EN" "http://www.w3.org/Graphics/SVG/1.1/DTD/svg11.dtd">
<svg version="1.1" id="Layer_1" xmlns="http://www.w3.org/2000/svg" xmlns:xlink="http://www.w3.org/1999/xlink" x="0px" y="0px" width="24px" height="24px" viewBox="0 0 24 24" enable-background="new 0 0 24 24" xml:space="preserve">
  <g id="icon">
    <path d="M19.8,1H6v22h13.8c0.66,0,1.2,-0.54,1.2,-1.2V2.2C21,1.54,20.46,1,19.8,1z" fill="#5D9CEC"/>
    <path d="M20.5948,1.3046L6.1008,23H19.8c0.66,0,1.2,-0.54,1.2,-1.2V2.2C21,1.8445,20.8425,1.5248,20.5948,1.3046z" fill="#4B89DC" opacity="0.64"/>
    <path d="M6,1H4.2c-0.66,0,-1.2,0.54,-1.2,1.2v19.6c0,0.66,0.54,1.2,1.2,1.2h1.8V1z" fill="#3D73AD"/>
    <path d="M17.3375,9h-7.675C9.2966,9,9,8.7034,9,8.3375v-2.675C9,5.2966,9.2966,5,9.6625,5h7.675c0.3659,0,0.6625,0.2966,0.6625,0.6625v2.675C18,8.7034,17.7034,9,17.3375,9z" fill="#F6F7FB"/>
  </g>
</svg>
