<?xml version="1.0" encoding="UTF-8"?>
<!DOCTYPE svg PUBLIC "-//W3C//DTD SVG 1.1//EN" "http://www.w3.org/Graphics/SVG/1.1/DTD/svg11.dtd">
<svg version="1.1" id="Layer_1" xmlns="http://www.w3.org/2000/svg" xmlns:xlink="http://www.w3.org/1999/xlink" x="0px" y="0px" width="24px" height="24px" viewBox="0 0 24 24" enable-background="new 0 0 24 24" xml:space="preserve">
  <g id="main">
    <clipPath id="clip_mask">
      <path d="M14,19.5c0,-3.0327,2.4673,-5.5,5.5,-5.5c1.8588,0,3.5039,0.9278,4.5,2.3436V0H0v24h16.3436C14.9278,23.0039,14,21.3588,14,19.5z"/>
    </clipPath>
    <g id="icon" clip-path="url(#clip_mask)">
      <g id="transformed_icon" transform="translate(-1 -1)">
        <path d="M8.425,5.1h-3.85C4.2588,5.1,4,4.8412,4,4.525v-0.95c0,-0.3162,0.2588,-0.575,0.575,-0.575h3.85c0.3162,0,0.575,0.2588,0.575,0.575v0.95C9,4.8412,8.7412,5.1,8.425,5.1z" fill="#434A54"/>
        <path d="M21.8,20H2.2c-0.66,0,-1.2,-0.54,-1.2,-1.2V5.2c0,-0.66,0.54,-1.2,1.2,-1.2h19.6c0.66,0,1.2,0.54,1.2,1.2v13.6C23,19.46,22.46,20,21.8,20z" fill="#CCD0D9"/>
        <rect x="1" y="8" width="22" height="8" fill="#656D78"/>
        <rect x="1" y="7" width="22" height="1" fill="#8E949C"/>
        <rect x="1" y="16" width="22" height="1" fill="#8E949C"/>
        <path d="M12.1494,20H21.8c0.66,0,1.2,-0.54,1.2,-1.2V5.2c0,-0.66,-0.54,-1.2,-1.2,-1.2h-2.9724L12.1494,20z" fill="#231F20" opacity="0.1"/>
        <path d="M7.5,6H3.5c-0.275,0,-0.5,-0.225,-0.5,-0.5v0c0,-0.275,0.225,-0.5,0.5,-0.5h4c0.275,0,0.5,0.225,0.5,0.5v0C8,5.775,7.775,6,7.5,6z" fill="#AAB2BD"/>
        <circle cx="20" cy="5.5" r="1" fill="#ED5564"/>
        <circle cx="12" cy="12" r="6.5" fill="#F6F7FB"/>
        <circle cx="12" cy="12" r="5.0917" fill="#5D9CEC"/>
        <circle cx="12" cy="12" r="2.7083" fill="#3D73AD"/>
        <circle cx="10.9167" cy="10.9167" r="0.7583" fill="#F6F7FB"/>
      </g>
    </g>
    <g id="overlay">
      <circle cx="19.5" cy="19.5" r="4.4899" fill="#5D9CEC"/>
      <path d="M22.6826,16.37c-0.0061,-0.0061,-0.0124,-0.012,-0.0185,-0.0181l-6.3121,6.3121c0.0061,0.0061,0.0119,0.0124,0.0181,0.0185c1.7432,1.7432,4.5694,1.7432,6.3126,0S24.4257,18.1131,22.6826,16.37z" fill="#4B89DC" opacity="0.7"/>
      <path d="M19.2,19h0.6c0.1105,0,0.2,0.0895,0.2,0.2v2.9c0,0.1105,-0.0895,0.2,-0.2,0.2h-0.6c-0.1105,0,-0.2,-0.0895,-0.2,-0.2v-2.9C19,19.0895,19.0895,19,19.2,19zM19,16.9v0.9c0,0.1105,0.0895,0.2,0.2,0.2h0.6c0.1105,0,0.2,-0.0895,0.2,-0.2v-0.9c0,-0.1105,-0.0895,-0.2,-0.2,-0.2h-0.6C19.0895,16.7,19,16.7895,19,16.9z" fill="#FFFFFF"/>
    </g>
  </g>
</svg>
