<?xml version="1.0" encoding="UTF-8"?>
<!DOCTYPE svg PUBLIC "-//W3C//DTD SVG 1.1//EN" "http://www.w3.org/Graphics/SVG/1.1/DTD/svg11.dtd">
<svg version="1.1" id="Layer_1" xmlns="http://www.w3.org/2000/svg" xmlns:xlink="http://www.w3.org/1999/xlink" x="0px" y="0px" width="24px" height="24px" viewBox="0 0 24 24" enable-background="new 0 0 24 24" xml:space="preserve">
  <g id="main">
    <clipPath id="clip_mask">
      <path d="M14,19.5c0,-3.0327,2.4673,-5.5,5.5,-5.5c1.8588,0,3.5039,0.9278,4.5,2.3436V0H0v24h16.3436C14.9278,23.0039,14,21.3588,14,19.5z"/>
    </clipPath>
    <g id="icon" clip-path="url(#clip_mask)">
      <g id="transformed_icon" transform="translate(-1 -1)">
        <path d="M17,1H3c-0.5523,0,-1,0.4477,-1,1v19c0,0.5523,0.4477,1,1,1h14c0.5523,0,1,-0.4477,1,-1V2C18,1.4477,17.5523,1,17,1z" fill="#536880"/>
        <rect x="3.5" y="2.5" width="13" height="16.5" fill="#4FC0E8"/>
        <path d="M16.8,1h-3.4444L8.3593,22H16.8c0.66,0,1.2,-0.51,1.2,-0.6611V2.6056C18,1.51,17.46,1,16.8,1z" fill="#231F20" opacity="0.1"/>
        <circle cx="10" cy="20.5" r="0.8" fill="#E6E9EE"/>
        <path d="M22,6h-8c-0.5523,0,-1,0.4477,-1,1v15c0,0.5523,0.4477,1,1,1h8c0.5523,0,1,-0.4477,1,-1V7C23,6.4477,22.5523,6,22,6z" fill="#536880"/>
        <rect x="14" y="8" width="8" height="12" fill="#4FC0E8"/>
        <path d="M21.8,6h-0.9444l-3.4963,17H21.8c0.66,0,1.2,-0.51,1.2,-0.6611V7.6056C23,6.51,22.46,6,21.8,6z" fill="#231F20" opacity="0.1"/>
        <circle cx="18" cy="21.5" r="0.8" fill="#E6E9EE"/>
        <path d="M18.825,7.3h-1.65c-0.165,0,-0.3,-0.135,-0.3,-0.3l0,0c0,-0.165,0.135,-0.3,0.3,-0.3h1.65c0.165,0,0.3,0.135,0.3,0.3l0,0C19.125,7.165,18.99,7.3,18.825,7.3z" fill="#E6E9EE"/>
      </g>
    </g>
    <g id="overlay">
      <circle cx="19.5" cy="19.5" r="4.4899" fill="#5D9CEC"/>
      <path d="M22.6826,16.37c-0.0061,-0.0061,-0.0124,-0.012,-0.0185,-0.0181l-6.3121,6.3121c0.0061,0.0061,0.0119,0.0124,0.0181,0.0185c1.7432,1.7432,4.5694,1.7432,6.3126,0S24.4257,18.1131,22.6826,16.37z" fill="#4B89DC" opacity="0.7"/>
      <path d="M19.2,19h0.6c0.1105,0,0.2,0.0895,0.2,0.2v2.9c0,0.1105,-0.0895,0.2,-0.2,0.2h-0.6c-0.1105,0,-0.2,-0.0895,-0.2,-0.2v-2.9C19,19.0895,19.0895,19,19.2,19zM19,16.9v0.9c0,0.1105,0.0895,0.2,0.2,0.2h0.6c0.1105,0,0.2,-0.0895,0.2,-0.2v-0.9c0,-0.1105,-0.0895,-0.2,-0.2,-0.2h-0.6C19.0895,16.7,19,16.7895,19,16.9z" fill="#FFFFFF"/>
    </g>
  </g>
</svg>
