<?xml version="1.0" encoding="UTF-8"?>
<!DOCTYPE svg PUBLIC "-//W3C//DTD SVG 1.1//EN" "http://www.w3.org/Graphics/SVG/1.1/DTD/svg11.dtd">
<svg version="1.1" id="Layer_1" xmlns="http://www.w3.org/2000/svg" xmlns:xlink="http://www.w3.org/1999/xlink" x="0px" y="0px" width="24px" height="24px" viewBox="0 0 24 24" enable-background="new 0 0 24 24" xml:space="preserve">
  <g id="main">
    <clipPath id="clip_mask">
      <path d="M14,19.5c0,-3.0327,2.4673,-5.5,5.5,-5.5c1.8588,0,3.5039,0.9278,4.5,2.3436V0H0v24h16.3436C14.9278,23.0039,14,21.3588,14,19.5z"/>
    </clipPath>
    <g id="icon" clip-path="url(#clip_mask)">
      <g id="transformed_icon" transform="translate(-1 -1)">
        <path d="M22.3263,10.2788l-2.3316,-0.7763l-0.5762,-1.3877l1.0971,-2.1956c0.1881,-0.3762,0.114,-0.8306,-0.1834,-1.128L19.209,3.6681c-0.2974,-0.2974,-0.7519,-0.3711,-1.1281,-0.183l-2.1956,1.0978l-1.3877,-0.5748l-0.7763,-2.3343c-0.133,-0.399,-0.5064,-0.6737,-0.927,-0.6737h-1.5884c-0.4206,0,-0.794,0.2747,-0.927,0.6737l-0.7763,2.3316l-1.3877,0.5762L5.9192,3.4844c-0.3762,-0.1881,-0.8306,-0.114,-1.128,0.1834L3.6681,4.7911c-0.2974,0.2974,-0.3711,0.7519,-0.183,1.1281l1.0978,2.1956L4.008,9.5025l-2.3343,0.7763c-0.399,0.133,-0.6737,0.5064,-0.6737,0.927v1.5884c0,0.4206,0.2747,0.794,0.6737,0.927l2.3316,0.7763l0.5762,1.3877l-1.0971,2.1956c-0.1881,0.3762,-0.114,0.8306,0.1834,1.128l1.1233,1.1231c0.2974,0.2974,0.7519,0.3712,1.1281,0.183l2.1956,-1.0978l1.3877,0.5748l0.7763,2.3343c0.133,0.399,0.5064,0.6737,0.927,0.6737h1.5884c0.4206,0,0.794,-0.2747,0.927,-0.6737l0.7763,-2.3316l1.3877,-0.5762l2.1956,1.0971c0.3762,0.1881,0.8306,0.114,1.128,-0.1834l1.1231,-1.1233c0.2974,-0.2974,0.3712,-0.7519,0.183,-1.1281l-1.0978,-2.1956l0.5748,-1.3877l2.3343,-0.7763c0.399,-0.133,0.6737,-0.5064,0.6737,-0.927v-1.5884C23,10.7852,22.7253,10.4118,22.3263,10.2788zM12,14.2c-1.215,0,-2.2,-0.985,-2.2,-2.2c0,-1.215,0.985,-2.2,2.2,-2.2s2.2,0.985,2.2,2.2C14.2,13.215,13.215,14.2,12,14.2z" fill="#AAB2BD"/>
        <path d="M12,5.6c-3.5346,0,-6.4,2.8654,-6.4,6.4s2.8654,6.4,6.4,6.4s6.4,-2.8654,6.4,-6.4S15.5346,5.6,12,5.6zM12,16c-2.2091,0,-4,-1.7909,-4,-4c0,-2.2091,1.7909,-4,4,-4s4,1.7909,4,4C16,14.2091,14.2091,16,12,16z" fill="#8E949C"/>
        <path d="M22.3263,10.2788l-2.3316,-0.7763l-0.5762,-1.3877l1.0971,-2.1956c0.1881,-0.3762,0.114,-0.8306,-0.1834,-1.128l-0.5618,-0.5617l-6.2148,6.2148C13.9538,10.8425,14.2,11.3925,14.2,12c0,1.215,-0.985,2.2,-2.2,2.2c-0.6075,0,-1.1575,-0.2462,-1.5556,-0.6444l-6.2148,6.2148l0.5615,0.5614c0.2974,0.2974,0.7519,0.3711,1.1281,0.183l2.1956,-1.0978l1.3877,0.5748l0.7763,2.3343c0.133,0.399,0.5064,0.6737,0.927,0.6737h1.5884c0.4206,0,0.794,-0.2747,0.927,-0.6737l0.7763,-2.3316l1.3877,-0.5762l2.1956,1.0971c0.3762,0.1881,0.8306,0.114,1.128,-0.1834l1.1231,-1.1233c0.2974,-0.2974,0.3711,-0.7519,0.183,-1.1281l-1.0978,-2.1956l0.5748,-1.3877l2.3343,-0.7763c0.399,-0.133,0.6737,-0.5064,0.6737,-0.927v-1.5884C23,10.7852,22.7253,10.4118,22.3263,10.2788z" fill="#231F20" opacity="0.1"/>
      </g>
    </g>
    <g id="overlay">
      <circle cx="19.5" cy="19.5" r="4.4899" fill="#5D9CEC"/>
      <path d="M22.6826,16.37c-0.0061,-0.0061,-0.0124,-0.012,-0.0185,-0.0181l-6.3121,6.3121c0.0061,0.0061,0.0119,0.0124,0.0181,0.0185c1.7432,1.7432,4.5694,1.7432,6.3126,0S24.4257,18.1131,22.6826,16.37z" fill="#4B89DC" opacity="0.7"/>
      <path d="M19.2,19h0.6c0.1105,0,0.2,0.0895,0.2,0.2v2.9c0,0.1105,-0.0895,0.2,-0.2,0.2h-0.6c-0.1105,0,-0.2,-0.0895,-0.2,-0.2v-2.9C19,19.0895,19.0895,19,19.2,19zM19,16.9v0.9c0,0.1105,0.0895,0.2,0.2,0.2h0.6c0.1105,0,0.2,-0.0895,0.2,-0.2v-0.9c0,-0.1105,-0.0895,-0.2,-0.2,-0.2h-0.6C19.0895,16.7,19,16.7895,19,16.9z" fill="#FFFFFF"/>
    </g>
  </g>
</svg>
