<?xml version="1.0" encoding="UTF-8"?>
<!DOCTYPE svg PUBLIC "-//W3C//DTD SVG 1.1//EN" "http://www.w3.org/Graphics/SVG/1.1/DTD/svg11.dtd">
<svg version="1.1" id="Layer_1" xmlns="http://www.w3.org/2000/svg" xmlns:xlink="http://www.w3.org/1999/xlink" x="0px" y="0px" width="24px" height="24px" viewBox="0 0 24 24" enable-background="new 0 0 24 24" xml:space="preserve">
  <g id="main">
    <clipPath id="clip_mask">
      <path d="M14,19.5c0,-3.0327,2.4673,-5.5,5.5,-5.5c1.8588,0,3.5039,0.9278,4.5,2.3436V0H0v24h16.3436C14.9278,23.0039,14,21.3588,14,19.5z"/>
    </clipPath>
    <g id="icon" clip-path="url(#clip_mask)">
      <g id="transformed_icon" transform="translate(-1 -1)">
        <path d="M19.8,1H6v22h13.8c0.66,0,1.2,-0.54,1.2,-1.2V2.2C21,1.54,20.46,1,19.8,1z" fill="#C6A38B"/>
        <path d="M20.5948,1.3046L6.1008,23H19.8c0.66,0,1.2,-0.54,1.2,-1.2V2.2C21,1.8445,20.8425,1.5248,20.5948,1.3046z" fill="#A38671" opacity="0.39"/>
        <path d="M6,1H4.2c-0.66,0,-1.2,0.54,-1.2,1.2v19.6c0,0.66,0.54,1.2,1.2,1.2h1.8V1z" fill="#8E725E"/>
        <rect x="21" y="3" width="1.5" height="4" fill="#36BC9B"/>
        <rect x="21" y="8" width="1.5" height="4" fill="#DB4453"/>
        <rect x="21" y="13" width="1.5" height="4" fill="#3BAEDA"/>
        <path d="M16.1901,14.5182c0.7946,0,1.4676,-0.3404,2.0191,-1.0212c0.5513,-0.6808,0.827,-1.5525,0.827,-2.6151c0,-1.4509,-0.5079,-2.6273,-1.5235,-3.5292C16.497,6.451,15.2145,6,13.6654,6c-1.6519,0,-3.0091,0.538,-4.0716,1.6139C8.5312,8.6899,8,10.0448,8,11.6788c0,1.5894,0.5023,2.8752,1.5068,3.8573c1.0045,0.9821,2.3281,1.4733,3.9711,1.4733c1.1696,0,2.1451,-0.1652,2.9264,-0.4956v-1.0313c-0.7634,0.366,-1.6809,0.5491,-2.7523,0.5491c-1.3617,0,-2.4443,-0.404,-3.2479,-1.2121c-0.8036,-0.808,-1.2054,-1.8706,-1.2054,-3.1876c0,-1.3348,0.4174,-2.4465,1.2523,-3.335c0.8348,-0.8884,1.8885,-1.3326,3.1608,-1.3326c1.3259,0,2.3628,0.3673,3.1106,1.1016c0.7477,0.7344,1.1217,1.682,1.1217,2.8427c0,0.7858,-0.1384,1.4253,-0.4152,1.9186c-0.2769,0.4933,-0.6251,0.74,-1.0447,0.74c-0.4599,0,-0.6898,-0.442,-0.6898,-1.3259c0,-0.0446,0.1048,-1.2456,0.3147,-3.6028h-1.1117c-0.0536,0.3884,-0.0871,0.6452,-0.1004,0.7701h-0.0201c-0.0715,-0.2411,-0.23,-0.4475,-0.4755,-0.6194c-0.2456,-0.1718,-0.5246,-0.2578,-0.8371,-0.2578c-0.8215,0,-1.4833,0.3326,-1.9856,0.9978c-0.5023,0.6653,-0.7534,1.5001,-0.7534,2.5046c0,0.759,0.183,1.3628,0.5491,1.8115c0.366,0.4487,0.8482,0.673,1.4465,0.673c0.9375,0,1.567,-0.4799,1.8885,-1.4398h0.0335C14.6475,14.0383,15.1632,14.5182,16.1901,14.5182L16.1901,14.5182zM14.6498,10.7948c0,0.8349,-0.1429,1.5057,-0.4286,2.0124c-0.2858,0.5068,-0.6742,0.7601,-1.1652,0.7601c-0.3393,0,-0.6105,-0.1395,-0.8136,-0.4185c-0.2032,-0.279,-0.3047,-0.6596,-0.3047,-1.1418c0,-0.7187,0.1507,-1.3192,0.452,-1.8014c0.3014,-0.4822,0.6975,-0.7233,1.1887,-0.7233C14.2926,9.4823,14.6498,9.9199,14.6498,10.7948L14.6498,10.7948z" fill="#FFFFFF"/>
      </g>
    </g>
    <g id="overlay">
      <circle cx="19.5" cy="19.5" r="4.4899" fill="#ED5564"/>
      <path d="M22.6749,16.3251c-0.0061,-0.0061,-0.0124,-0.0121,-0.0186,-0.0182l-6.3493,6.3493c0.0061,0.0062,0.012,0.0125,0.0182,0.0186c1.7534,1.7534,4.5963,1.7534,6.3497,0S24.4283,18.0786,22.6749,16.3251z" fill="#DB4453"/>
      <path d="M21.5799,20.8728L20.2071,19.5l1.3728,-1.3728c0.0781,-0.0781,0.0781,-0.2047,0,-0.2828l-0.4243,-0.4243c-0.0781,-0.0781,-0.2047,-0.0781,-0.2828,0L19.5,18.7929l-1.3728,-1.3728c-0.0781,-0.0781,-0.2047,-0.0781,-0.2828,0l-0.4243,0.4243c-0.0781,0.0781,-0.0781,0.2047,0,0.2828L18.7929,19.5l-1.3728,1.3728c-0.0781,0.0781,-0.0781,0.2047,0,0.2828l0.4243,0.4243c0.0781,0.0781,0.2047,0.0781,0.2828,0L19.5,20.2071l1.3728,1.3728c0.0781,0.0781,0.2047,0.0781,0.2828,0l0.4243,-0.4243C21.658,21.0775,21.658,20.9509,21.5799,20.8728z" fill="#FFFFFF"/>
    </g>
  </g>
</svg>
