<?xml version="1.0" encoding="UTF-8"?>
<!DOCTYPE svg PUBLIC "-//W3C//DTD SVG 1.1//EN" "http://www.w3.org/Graphics/SVG/1.1/DTD/svg11.dtd">
<svg version="1.1" id="Layer_1" xmlns="http://www.w3.org/2000/svg" xmlns:xlink="http://www.w3.org/1999/xlink" x="0px" y="0px" width="24px" height="24px" viewBox="0 0 24 24" enable-background="new 0 0 24 24" xml:space="preserve">
  <g id="main">
    <clipPath id="clip_mask">
      <path d="M17.2877,23.7612c-0.1662,-0.0172,-0.3327,-0.0359,-0.4969,-0.0567c-1.7181,-0.2175,-2.424,-0.5199,-2.6978,-1.1558c-0.1767,-0.4104,-0.0992,-0.8736,0.2005,-1.2245c0.0964,-0.1247,0.1976,-0.2479,0.3043,-0.3778c0.5644,-0.6869,1.1479,-1.3972,1.1479,-2.4428c0,-1.3466,0.7584,-2.5517,1.9429,-3.1718c0.2378,-0.7979,0.9637,-1.3801,1.8198,-1.3801c0.8829,0,1.6272,0.6189,1.8407,1.4553c1.1039,0.6422,1.8093,1.8172,1.8093,3.0966c0,0.4992,0.3702,1.2624,0.8416,1.9482V0H0v24h17.4305C17.3784,23.9236,17.3302,23.8443,17.2877,23.7612z"/>
    </clipPath>
    <g id="icon" clip-path="url(#clip_mask)">
      <g id="transformed_icon" transform="translate(-1 -1)">
        <path d="M23,6V3.2c0,-0.66,-0.54,-1.2,-1.2,-1.2H2.2c-0.66,0,-1.2,0.54,-1.2,1.2v2.8H23z" fill="#656D78"/>
        <path d="M1,6v14.8c0,0.66,0.54,1.2,1.2,1.2h19.6c0.66,0,1.2,-0.54,1.2,-1.2V6" fill="#E6E9EE"/>
        <path d="M8,20H3V8h5V20zM9,8v12h12V8H9z" fill="#AAB2BD" opacity="0.7"/>
        <path d="M21.8,2h-3.7738l-1.7213,6H21v12h-8.1377l-0.5738,2H21.8c0.66,0,1.2,-0.54,1.2,-1.2V3.2C23,2.54,22.46,2,21.8,2z" fill="#231F20" opacity="0.06"/>
        <path d="M19.5125,19h-4.025c-0.2692,0,-0.4875,-0.2183,-0.4875,-0.4875v-1.025c0,-0.2692,0.2183,-0.4875,0.4875,-0.4875h4.025c0.2692,0,0.4875,0.2183,0.4875,0.4875v1.025C20,18.7817,19.7817,19,19.5125,19z" fill="#8E949C"/>
        <line x1="11" y1="10.5" x2="19" y2="10.5" fill="none" stroke="#8E949C" stroke-width="1" stroke-linecap="round" stroke-miterlimit="1"/>
        <line x1="11" y1="12.5" x2="19" y2="12.5" fill="none" stroke="#8E949C" stroke-width="1" stroke-linecap="round" stroke-miterlimit="1"/>
        <line x1="11" y1="14.5" x2="19" y2="14.5" fill="none" stroke="#8E949C" stroke-width="1" stroke-linecap="round" stroke-miterlimit="1"/>
        <path d="M4.425,5h-0.85C3.2588,5,3,4.7412,3,4.425v-0.85c0,-0.3162,0.2588,-0.575,0.575,-0.575h0.85c0.3162,0,0.575,0.2588,0.575,0.575v0.85C5,4.7412,4.7412,5,4.425,5z" fill="#ED5564"/>
        <path d="M7.425,5h-0.85C6.2588,5,6,4.7412,6,4.425v-0.85c0,-0.3162,0.2588,-0.575,0.575,-0.575h0.85c0.3162,0,0.575,0.2588,0.575,0.575v0.85C8,4.7412,7.7412,5,7.425,5z" fill="#36BC9B"/>
        <path d="M10.425,5h-0.85C9.2588,5,9,4.7412,9,4.425v-0.85c0,-0.3162,0.2588,-0.575,0.575,-0.575h0.85c0.3162,0,0.575,0.2588,0.575,0.575v0.85C11,4.7412,10.7412,5,10.425,5z" fill="#F6BB43"/>
      </g>
    </g>
    <g id="overlay">
      <path d="M20.7962,22.7039c0,0.7847,-0.6445,1.2961,-1.3909,1.2961c-0.7463,0,-1.3711,-0.5115,-1.3711,-1.2961C19.1173,22.8083,19.6508,22.8083,20.7962,22.7039z" fill-rule="evenodd" fill="#C18F36"/>
      <path d="M23.8836,21.9314c-0.6454,-0.7084,-1.7348,-2.2438,-1.7348,-3.4277c0,-1.1189,-0.7321,-2.0727,-1.7598,-2.4415c0.0088,-0.0531,0.0143,-0.1075,0.0143,-0.1632c0,-0.5231,-0.4034,-0.9472,-0.9009,-0.9472c-0.4976,0,-0.9009,0.4241,-0.9009,0.9472c0,0.0433,0.0037,0.0857,0.0091,0.1275c-1.0836,0.3392,-1.8672,1.3198,-1.8672,2.4773c0,1.6576,-1.0749,2.668,-1.6781,3.4574c-0.6086,0.6438,3.1831,0.929,4.409,0.929C20.7001,22.89,24.529,22.6398,23.8836,21.9314z" fill-rule="evenodd" fill="#FFCE55"/>
      <path d="M23.8836,21.9314c-0.6454,-0.7084,-1.7348,-2.2438,-1.7348,-3.4277c0,-1.1189,-0.7321,-2.0727,-1.7598,-2.4415c0.0088,-0.0531,0.0143,-0.1075,0.0143,-0.1632c0,-0.5231,-0.3752,-0.9472,-0.8728,-0.9472c-0.0197,0,-0.0305,0.0009,-0.0305,0.0022v7.936c0,0,-0.0075,0.0001,0.0024,0.0001C20.7282,22.89,24.529,22.6398,23.8836,21.9314z" fill-rule="evenodd" fill="#F6BB43"/>
    </g>
  </g>
</svg>
