<?xml version="1.0" encoding="UTF-8"?>
<!DOCTYPE svg PUBLIC "-//W3C//DTD SVG 1.1//EN" "http://www.w3.org/Graphics/SVG/1.1/DTD/svg11.dtd">
<svg version="1.1" id="Layer_1" xmlns="http://www.w3.org/2000/svg" xmlns:xlink="http://www.w3.org/1999/xlink" x="0px" y="0px" width="24px" height="24px" viewBox="0 0 24 24" enable-background="new 0 0 24 24" xml:space="preserve">
  <g id="main">
    <clipPath id="clip_mask">
      <path d="M17.2877,23.7612c-0.1662,-0.0172,-0.3327,-0.0359,-0.4969,-0.0567c-1.7181,-0.2175,-2.424,-0.5199,-2.6978,-1.1558c-0.1767,-0.4104,-0.0992,-0.8736,0.2005,-1.2245c0.0964,-0.1247,0.1976,-0.2479,0.3043,-0.3778c0.5644,-0.6869,1.1479,-1.3972,1.1479,-2.4428c0,-1.3466,0.7584,-2.5517,1.9429,-3.1718c0.2378,-0.7979,0.9637,-1.3801,1.8198,-1.3801c0.8829,0,1.6272,0.6189,1.8407,1.4553c1.1039,0.6422,1.8093,1.8172,1.8093,3.0966c0,0.4992,0.3702,1.2624,0.8416,1.9482V0H0v24h17.4305C17.3784,23.9236,17.3302,23.8443,17.2877,23.7612z"/>
    </clipPath>
    <g id="icon" clip-path="url(#clip_mask)">
      <g id="transformed_icon" transform="translate(-1 -1)">
        <path d="M8.334,3.2c0,1.215,-0.97,2.2,-2.167,2.2S4,4.415,4,3.2s0.97,-2.2,2.167,-2.2S8.334,1.985,8.334,3.2zM11.945,1c-1.197,0,-2.167,0.985,-2.167,2.2s0.97,2.2,2.167,2.2s2.167,-0.985,2.167,-2.2S13.142,1,11.945,1zM17.723,1c-1.197,0,-2.167,0.985,-2.167,2.2s0.97,2.2,2.167,2.2s2.167,-0.985,2.167,-2.2S18.92,1,17.723,1zM8.334,9.067c0,1.215,-0.97,2.2,-2.167,2.2S4,10.282,4,9.067s0.97,-2.2,2.167,-2.2S8.334,7.852,8.334,9.067zM17.723,6.867c-1.197,0,-2.167,0.985,-2.167,2.2s0.97,2.2,2.167,2.2s2.167,-0.985,2.167,-2.2S18.92,6.867,17.723,6.867z" fill="#5D9CEC"/>
        <path d="M13.182,12.053c0,-0.874,0.01,-2.802,-0.002,-3.366c-0.021,-0.996,-0.57,-1.706,-1.285,-1.683c-0.685,0.022,-1.242,0.821,-1.245,1.758c-0.006,1.743,0.013,3.387,-0.057,5.127c-0.021,0.519,0.007,1.531,-0.469,1.537c-0.4,-0.179,-0.801,-0.356,-1.2,-0.537c-0.071,-0.033,-0.137,-0.082,-0.203,-0.127c-0.768,-0.529,-1.361,-0.541,-1.812,0.066c-0.444,0.597,-0.334,1.264,0.013,1.881c0.857,1.52,1.99,2.704,3.508,3.467c0.703,0.353,1.29,0.936,1.248,1.871c-0.035,0.793,0.323,0.963,0.944,0.955c1.434,-0.018,3.287,-0.015,4.721,-0.01c0.576,0.002,0.801,-0.253,0.865,-0.904c0.057,-0.572,0.33,-1.131,0.561,-1.669c0.346,-0.806,1.005,-1.275,1.114,-2.108c0.192,-1.464,0.081,-1.51,0.116,-3c-0.066,-2.496,-1.616,-3.165,-2.189,-1.759c-0.313,-1.631,-1.585,-2.003,-2.282,-1.086C15.007,11.001,13.849,10.661,13.182,12.053z" fill-rule="evenodd" fill="#DEBDAD"/>
        <path d="M19.999,15.309c-0.066,-2.496,-1.616,-3.165,-2.189,-1.759c-0.184,-0.962,-0.703,-1.486,-1.24,-1.566l-3.541,11.011c1.366,-0.013,3.012,-0.01,4.315,-0.005c0.576,0.002,0.801,-0.253,0.865,-0.904c0.057,-0.572,0.33,-1.131,0.561,-1.669c0.346,-0.806,1.005,-1.275,1.114,-2.108C20.075,16.844,19.964,16.798,19.999,15.309z" fill-rule="evenodd" fill="#24282D" opacity="0.1"/>
        <path d="M8.334,3.2c0,1.215,-0.97,2.2,-2.167,2.2c-0.222,0,-0.437,-0.034,-0.639,-0.097l1.365,-4.176C7.732,1.43,8.334,2.244,8.334,3.2zM12.693,1.127l-1.365,4.176c0.202,0.063,0.416,0.097,0.639,0.097c1.197,0,2.167,-0.985,2.167,-2.2C14.134,2.244,13.532,1.43,12.693,1.127zM18.393,1.127l-1.365,4.176c0.202,0.063,0.416,0.097,0.639,0.097c1.197,0,2.167,-0.985,2.167,-2.2C19.834,2.244,19.232,1.43,18.393,1.127zM18.393,7.027l-1.365,4.176c0.202,0.063,0.416,0.097,0.639,0.097c1.197,0,2.167,-0.985,2.167,-2.2C19.834,8.144,19.232,7.33,18.393,7.027zM6.893,7.027l-1.365,4.176c0.202,0.063,0.416,0.097,0.639,0.097c1.197,0,2.167,-0.985,2.167,-2.2C8.334,8.144,7.732,7.33,6.893,7.027z" fill="#24282D" opacity="0.12"/>
      </g>
    </g>
    <g id="overlay">
      <path d="M20.7962,22.7039c0,0.7847,-0.6445,1.2961,-1.3909,1.2961c-0.7463,0,-1.3711,-0.5115,-1.3711,-1.2961C19.1173,22.8083,19.6508,22.8083,20.7962,22.7039z" fill-rule="evenodd" fill="#C18F36"/>
      <path d="M23.8836,21.9314c-0.6454,-0.7084,-1.7348,-2.2438,-1.7348,-3.4277c0,-1.1189,-0.7321,-2.0727,-1.7598,-2.4415c0.0088,-0.0531,0.0143,-0.1075,0.0143,-0.1632c0,-0.5231,-0.4034,-0.9472,-0.9009,-0.9472c-0.4976,0,-0.9009,0.4241,-0.9009,0.9472c0,0.0433,0.0037,0.0857,0.0091,0.1275c-1.0836,0.3392,-1.8672,1.3198,-1.8672,2.4773c0,1.6576,-1.0749,2.668,-1.6781,3.4574c-0.6086,0.6438,3.1831,0.929,4.409,0.929C20.7001,22.89,24.529,22.6398,23.8836,21.9314z" fill-rule="evenodd" fill="#FFCE55"/>
      <path d="M23.8836,21.9314c-0.6454,-0.7084,-1.7348,-2.2438,-1.7348,-3.4277c0,-1.1189,-0.7321,-2.0727,-1.7598,-2.4415c0.0088,-0.0531,0.0143,-0.1075,0.0143,-0.1632c0,-0.5231,-0.3752,-0.9472,-0.8728,-0.9472c-0.0197,0,-0.0305,0.0009,-0.0305,0.0022v7.936c0,0,-0.0075,0.0001,0.0024,0.0001C20.7282,22.89,24.529,22.6398,23.8836,21.9314z" fill-rule="evenodd" fill="#F6BB43"/>
    </g>
  </g>
</svg>
