<?xml version="1.0" encoding="UTF-8"?>
<!DOCTYPE svg PUBLIC "-//W3C//DTD SVG 1.1//EN" "http://www.w3.org/Graphics/SVG/1.1/DTD/svg11.dtd">
<svg version="1.1" id="Layer_1" xmlns="http://www.w3.org/2000/svg" xmlns:xlink="http://www.w3.org/1999/xlink" x="0px" y="0px" width="24px" height="24px" viewBox="0 0 24 24" enable-background="new 0 0 24 24" xml:space="preserve">
  <g id="main">
    <clipPath id="clip_mask">
      <path d="M17.2877,23.7612c-0.1662,-0.0172,-0.3327,-0.0359,-0.4969,-0.0567c-1.7181,-0.2175,-2.424,-0.5199,-2.6978,-1.1558c-0.1767,-0.4104,-0.0992,-0.8736,0.2005,-1.2245c0.0964,-0.1247,0.1976,-0.2479,0.3043,-0.3778c0.5644,-0.6869,1.1479,-1.3972,1.1479,-2.4428c0,-1.3466,0.7584,-2.5517,1.9429,-3.1718c0.2378,-0.7979,0.9637,-1.3801,1.8198,-1.3801c0.8829,0,1.6272,0.6189,1.8407,1.4553c1.1039,0.6422,1.8093,1.8172,1.8093,3.0966c0,0.4992,0.3702,1.2624,0.8416,1.9482V0H0v24h17.4305C17.3784,23.9236,17.3302,23.8443,17.2877,23.7612z"/>
    </clipPath>
    <g id="icon" clip-path="url(#clip_mask)">
      <g id="transformed_icon" transform="translate(-1 -1)">
        <path d="M22.576,13.733h-0.661L19.362,5.56l-0.347,0.111l-0.347,-0.111l-2.553,8.173h-0.611c-0.267,0,-0.467,0.252,-0.416,0.522c0.29,1.54,1.949,1.392,3.952,1.392c2.003,0,3.662,0.148,3.952,-1.392C23.043,13.985,22.843,13.733,22.576,13.733zM16.879,13.733l2.136,-6.847l2.136,6.847H16.879zM8.56,13.733h-0.661L5.346,5.56l-0.347,0.111l-0.347,-0.111l-2.553,8.173h-0.611c-0.267,0,-0.467,0.252,-0.416,0.522c0.29,1.54,1.949,1.392,3.952,1.392c2.003,0,3.662,0.148,3.952,-1.392C9.027,13.985,8.827,13.733,8.56,13.733zM2.863,13.733l2.136,-6.847l2.136,6.847H2.863z" fill="#83888E"/>
        <path d="M19.398,4.674c-0.461,-0.185,-0.972,-0.032,-1.264,0.342l-5.158,0v-0.376v-0.018c0,-0.042,0,-0.178,0,-0.564c0,-0.737,-0.28,-2.062,-0.957,-2.062c-0.676,0,-1.029,1.375,-1.029,2.062s0,0.678,0,0.678c0,0.002,0.004,0.005,0,0.008v0.271l-5.036,0c-0.119,-0.19,-0.295,-0.345,-0.518,-0.435c-0.56,-0.225,-1.196,0.049,-1.42,0.613C3.792,5.76,4.065,6.4,4.626,6.625c0.497,0.2,1.053,0.006,1.329,-0.435l5.035,0v0.907c0.004,0.003,0,0.006,0,0.008v12.228h-0.058h-0.612h-0.364c-0.775,0,-0.909,0.887,-0.909,1.667H7.196c-0.375,0,-0.678,0.306,-0.678,0.683v0.958c0,0.198,0.16,0.359,0.357,0.359h10.216c0.197,0,0.357,-0.161,0.357,-0.359v-0.958c0,-0.377,-0.304,-0.683,-0.678,-0.683h-1.893c0,-0.78,-0.134,-1.667,-0.909,-1.667h-0.264h-0.727V7.105V6.19l5.042,0c0.116,0.232,0.312,0.424,0.57,0.527c0.56,0.225,1.196,-0.049,1.42,-0.613C20.231,5.539,19.958,4.9,19.398,4.674z" fill="#5D9CEC"/>
        <path d="M19.398,4.674c-0.461,-0.185,-0.972,-0.032,-1.264,0.342l-5.158,0v-0.376v-0.018c0,-0.042,0,-0.178,0,-0.564c0,-0.737,-0.28,-2.062,-0.957,-2.062c-0.007,0,-0.013,0.001,-0.019,0.001V23h5.091c0.197,0,0.357,-0.161,0.357,-0.359v-0.958c0,-0.377,-0.304,-0.683,-0.678,-0.683h-1.893c0,-0.78,-0.134,-1.667,-0.909,-1.667h-0.264h-0.727V7.105V6.19l5.042,0c0.116,0.232,0.312,0.424,0.57,0.527c0.56,0.225,1.196,-0.049,1.42,-0.613C20.231,5.539,19.958,4.9,19.398,4.674z" fill="#231F20" opacity="0.12"/>
      </g>
    </g>
    <g id="overlay">
      <path d="M20.7962,22.7039c0,0.7847,-0.6445,1.2961,-1.3909,1.2961c-0.7463,0,-1.3711,-0.5115,-1.3711,-1.2961C19.1173,22.8083,19.6508,22.8083,20.7962,22.7039z" fill-rule="evenodd" fill="#C18F36"/>
      <path d="M23.8836,21.9314c-0.6454,-0.7084,-1.7348,-2.2438,-1.7348,-3.4277c0,-1.1189,-0.7321,-2.0727,-1.7598,-2.4415c0.0088,-0.0531,0.0143,-0.1075,0.0143,-0.1632c0,-0.5231,-0.4034,-0.9472,-0.9009,-0.9472c-0.4976,0,-0.9009,0.4241,-0.9009,0.9472c0,0.0433,0.0037,0.0857,0.0091,0.1275c-1.0836,0.3392,-1.8672,1.3198,-1.8672,2.4773c0,1.6576,-1.0749,2.668,-1.6781,3.4574c-0.6086,0.6438,3.1831,0.929,4.409,0.929C20.7001,22.89,24.529,22.6398,23.8836,21.9314z" fill-rule="evenodd" fill="#FFCE55"/>
      <path d="M23.8836,21.9314c-0.6454,-0.7084,-1.7348,-2.2438,-1.7348,-3.4277c0,-1.1189,-0.7321,-2.0727,-1.7598,-2.4415c0.0088,-0.0531,0.0143,-0.1075,0.0143,-0.1632c0,-0.5231,-0.3752,-0.9472,-0.8728,-0.9472c-0.0197,0,-0.0305,0.0009,-0.0305,0.0022v7.936c0,0,-0.0075,0.0001,0.0024,0.0001C20.7282,22.89,24.529,22.6398,23.8836,21.9314z" fill-rule="evenodd" fill="#F6BB43"/>
    </g>
  </g>
</svg>
