<?xml version="1.0" encoding="UTF-8"?>
<!DOCTYPE svg PUBLIC "-//W3C//DTD SVG 1.1//EN" "http://www.w3.org/Graphics/SVG/1.1/DTD/svg11.dtd">
<svg version="1.1" id="Layer_1" xmlns="http://www.w3.org/2000/svg" xmlns:xlink="http://www.w3.org/1999/xlink" x="0px" y="0px" width="24px" height="24px" viewBox="0 0 24 24" enable-background="new 0 0 24 24" xml:space="preserve">
  <g id="icon">
    <path d="M22.15,16h-8.224c0.049,0.332,0.074,0.669,0.074,1.009c0,1.07,-0.243,2.084,-0.674,2.991h8.824c0.467,0,0.85,-0.383,0.85,-0.85v-2.3C23,16.383,22.617,16,22.15,16z" fill="#CCD0D9"/>
    <path d="M14.4,17c-0.143,0,-0.279,0.031,-0.402,0.085c-0.006,0.584,-0.084,1.151,-0.225,1.692c0.172,0.139,0.39,0.222,0.627,0.222c0.552,0,1,-0.448,1,-1C15.4,17.448,14.952,17,14.4,17z" fill="#AAB2BD"/>
    <path d="M14.4,17.5c-0.193,0,-0.359,0.111,-0.442,0.272c-0.012,0.113,-0.027,0.226,-0.045,0.337c0.05,0.224,0.249,0.391,0.487,0.391c0.276,0,0.5,-0.224,0.5,-0.5S14.676,17.5,14.4,17.5z" fill="#656D78"/>
    <path d="M17.7,17.25v1.5c0,0.138,-0.113,0.25,-0.25,0.25h-0.1c-0.138,0,-0.25,-0.113,-0.25,-0.25v-1.5c0,-0.138,0.113,-0.25,0.25,-0.25h0.1C17.588,17,17.7,17.113,17.7,17.25zM18.55,17h-0.1c-0.138,0,-0.25,0.113,-0.25,0.25v1.5c0,0.138,0.113,0.25,0.25,0.25h0.1c0.138,0,0.25,-0.113,0.25,-0.25v-1.5C18.8,17.113,18.688,17,18.55,17zM19.65,17h-0.1c-0.138,0,-0.25,0.113,-0.25,0.25v1.5c0,0.138,0.113,0.25,0.25,0.25h0.1c0.138,0,0.25,-0.113,0.25,-0.25v-1.5C19.9,17.113,19.788,17,19.65,17zM20.75,17h-0.1c-0.138,0,-0.25,0.113,-0.25,0.25v1.5c0,0.138,0.113,0.25,0.25,0.25h0.1c0.138,0,0.25,-0.113,0.25,-0.25v-1.5C21,17.113,20.888,17,20.75,17z" fill="#AAB2BD"/>
    <path d="M13.928,18c-0.101,0.706,-0.307,1.378,-0.603,2h8.824c0.467,0,0.85,-0.383,0.85,-0.85V18H13.928z" fill="#231F20" opacity="0.1"/>
    <path d="M15.843,14.5H15.7v-1.5h-2.969c0.624,0.892,1.036,1.92,1.195,3h2.972c0.126,0,0.229,-0.093,0.229,-0.206C17.127,15.157,16.549,14.5,15.843,14.5z" fill="#8E949C"/>
    <path d="M22.152,1H5.848C5.38,1,5,1.43,5,1.87V6.33c0.562,-0.215,1.188,-0.33,1.866,-0.33c0.457,0,0.935,0.052,1.42,0.155c2.245,0.476,3.676,2.412,3.734,5.052c0.004,0.174,0.006,0.482,0.007,0.938c0.531,0.548,0.964,1.176,1.288,1.855h8.837c0.468,0,0.848,-0.319,0.848,-0.758V1.87C23,1.43,22.62,1,22.152,1z" fill="#536880"/>
    <path d="M6.5,2.5v3.513c0.121,-0.008,0.242,-0.013,0.366,-0.013c0.457,0,0.935,0.052,1.42,0.155c2.245,0.476,3.676,2.412,3.734,5.052c0.004,0.174,0.006,0.482,0.007,0.938c0.111,0.115,0.216,0.234,0.319,0.355H21.6V2.5H6.5z" fill="#4FC0E8"/>
    <path d="M21.982,1.1h-2.345l-5.339,11.9h7.684c0.56,0,1.018,-0.342,1.018,-0.454V2.255C23,1.446,22.542,1.1,21.982,1.1z" fill="#231F20" opacity="0.1"/>
    <path d="M7,13.118c2.229,0,4.036,1.761,4.036,3.934c0,2.173,-1.807,3.934,-4.036,3.934c-2.229,0,-4.036,-1.761,-4.036,-3.934C2.965,14.88,4.771,13.118,7,13.118z" fill-rule="evenodd" fill="#F6F7FB"/>
    <path d="M7,13.118C7,13.118,7,13.118,7,13.118l0,7.868c0,0,0,0,0,0c2.229,0,4.036,-1.761,4.036,-3.934C11.036,14.88,9.229,13.118,7,13.118z" fill-rule="evenodd" fill="#24282D" opacity="0.08"/>
    <path d="M4.958,11.549c0.006,-0.232,0.015,-0.758,0.028,-0.892C5.088,9.582,5.769,8.991,6.8,8.935c1.216,-0.066,1.929,0.349,2.145,1.488c0.034,0.181,0.058,0.788,0.074,1.118c0.746,0.26,1.426,0.659,2.009,1.167c0,-0.502,-0.002,-1.263,-0.007,-1.479c-0.048,-2.164,-1.17,-3.72,-2.942,-4.096c-2.932,-0.622,-5.046,0.971,-5.07,4.007c-0.002,0.218,-0.002,1.006,-0.003,1.539C3.575,12.19,4.236,11.804,4.958,11.549z" fill="#AAB2BD"/>
    <path d="M7,11c-3.314,0,-6,2.686,-6,6s2.686,6,6,6s6,-2.686,6,-6S10.314,11,7,11zM7,20.533c-1.951,0,-3.533,-1.582,-3.533,-3.533c0,-1.951,1.582,-3.533,3.533,-3.533s3.533,1.582,3.533,3.533C10.533,18.951,8.951,20.533,7,20.533z" fill="#ED5564"/>
    <ellipse cx="7" cy="17.052" rx="1.654" ry="1.612" fill="#8E949C"/>
    <path d="M7,14.129c0.234,0,0.423,0.185,0.423,0.413c0,0.228,-0.19,0.413,-0.423,0.413c-0.234,0,-0.423,-0.185,-0.423,-0.413C6.577,14.314,6.767,14.129,7,14.129zM9.096,14.976c0.165,0.161,0.165,0.423,0,0.584c-0.165,0.161,-0.433,0.161,-0.599,0c-0.165,-0.161,-0.165,-0.423,0,-0.584C8.663,14.814,8.931,14.814,9.096,14.976zM9.949,17.037c0,0.228,-0.19,0.413,-0.423,0.413c-0.234,0,-0.423,-0.185,-0.423,-0.413c0,-0.228,0.19,-0.413,0.423,-0.413C9.759,16.625,9.949,16.809,9.949,17.037zM9.08,19.08c-0.165,0.161,-0.433,0.161,-0.599,0c-0.165,-0.161,-0.165,-0.423,0,-0.584c0.165,-0.161,0.433,-0.161,0.599,0C9.246,18.658,9.246,18.919,9.08,19.08zM7.019,19.958c-0.234,0,-0.423,-0.185,-0.423,-0.413c0,-0.228,0.19,-0.413,0.423,-0.413c0.234,0,0.423,0.185,0.423,0.413C7.443,19.773,7.253,19.958,7.019,19.958zM4.923,19.112c-0.165,-0.161,-0.165,-0.423,0,-0.584c0.165,-0.161,0.433,-0.161,0.599,0c0.165,0.161,0.165,0.423,0,0.584C5.357,19.273,5.089,19.273,4.923,19.112zM4.071,17.05c0,-0.228,0.19,-0.413,0.423,-0.413s0.423,0.185,0.423,0.413c0,0.228,-0.19,0.413,-0.423,0.413S4.071,17.278,4.071,17.05zM4.939,15.007c0.165,-0.161,0.433,-0.161,0.599,0c0.165,0.161,0.165,0.423,0,0.584c-0.165,0.161,-0.433,0.161,-0.599,0C4.774,15.43,4.774,15.168,4.939,15.007z" fill-rule="evenodd" fill="#656D78"/>
    <path d="M7,18.664C7,18.664,7,18.664,7,18.664l0,-3.224c0,0,0,0,0,0c0.913,0,1.654,0.722,1.654,1.612C8.654,17.942,7.914,18.664,7,18.664zM11.027,12.552c-0.001,-0.491,-0.003,-1.129,-0.007,-1.324c-0.048,-2.164,-1.17,-3.72,-2.942,-4.096c-0.374,-0.079,-0.734,-0.122,-1.078,-0.131v1.926c1.094,-0.011,1.741,0.419,1.945,1.494c0.028,0.149,0.049,0.588,0.065,0.923C8.381,11.122,7.705,11,7,11v2.467c1.951,0,3.533,1.582,3.533,3.533c0,1.951,-1.582,3.533,-3.533,3.533V23c3.314,0,6,-2.686,6,-6C13,15.236,12.239,13.65,11.027,12.552z" fill="#24282D" opacity="0.15"/>
  </g>
</svg>
