<?xml version="1.0" encoding="UTF-8"?>
<!DOCTYPE svg PUBLIC "-//W3C//DTD SVG 1.1//EN" "http://www.w3.org/Graphics/SVG/1.1/DTD/svg11.dtd">
<svg version="1.1" id="Layer_1" xmlns="http://www.w3.org/2000/svg" xmlns:xlink="http://www.w3.org/1999/xlink" x="0px" y="0px" width="24px" height="24px" viewBox="0 0 24 24" enable-background="new 0 0 24 24" xml:space="preserve">
  <g id="icon">
    <path d="M21.491,4.179c-4.705,0.671,-8.254,-1.83,-9.491,-3.14c-1.659,1.412,-5.352,3.71,-9.582,3.14c-0.742,0.662,-0.846,9.204,2.697,13.879C6.86,20.362,9.088,22.343,12,23c2.912,-0.657,4.977,-2.638,6.722,-4.942C22.178,13.498,22.321,4.727,21.491,4.179z" fill="#5D9CEC"/>
    <path d="M12,3.339c0,-0.026,-0.038,-0.052,-0.062,-0.077C10.563,4.431,7.8,6.364,4.294,5.892c-0.39,0.347,-0.589,3.131,0.061,6.108H12V3.339z" fill="#F6F7FB"/>
    <path d="M12,12v9.128c2.4,-0.563,3.992,-2.321,5.424,-4.208c1.052,-1.386,1.728,-3.22,2.113,-4.92H12z" fill="#F6F7FB"/>
    <path d="M21.491,4.14c-1.481,0.211,-2.846,0.107,-4.061,-0.174l-7.072,18.46c0.522,0.224,1.068,0.405,1.641,0.535c2.912,-0.657,4.977,-2.638,6.722,-4.942C22.178,13.459,22.321,4.688,21.491,4.14z" fill="#231F20" opacity="0.08"/>
  </g>
</svg>
