<?xml version="1.0" encoding="UTF-8"?>
<!DOCTYPE svg PUBLIC "-//W3C//DTD SVG 1.1//EN" "http://www.w3.org/Graphics/SVG/1.1/DTD/svg11.dtd">
<svg version="1.1" id="Layer_1" xmlns="http://www.w3.org/2000/svg" xmlns:xlink="http://www.w3.org/1999/xlink" x="0px" y="0px" width="24px" height="24px" viewBox="0 0 24 24" enable-background="new 0 0 24 24" xml:space="preserve">
  <g id="icon">
    <path d="M1,6v3.3v-0.6v12.1c0,0.663,0.537,1.2,1.2,1.2h15.379H19.2h1.8h0.8c0.66,0,1.2,-0.54,1.2,-1.2V6H1z" fill="#E6E9EE"/>
    <path d="M23,6V3.2c0,-0.66,-0.54,-1.2,-1.2,-1.2H2.2c-0.66,0,-1.2,0.54,-1.2,1.2v2.8H23z" fill="#DB4453"/>
    <path d="M23,3.2v17.6c0,0.66,-0.54,1.2,-1.2,1.2H10.2l7.826,-20H21.8C22.46,2,23,2.54,23,3.2z" fill="#231F20" opacity="0.06"/>
    <path d="M17.365,11.116c-0.138,-0.138,-0.138,-0.364,0,-0.502l0.293,-0.293c0.067,-0.067,0.156,-0.104,0.251,-0.104c0.095,0,0.184,0.037,0.251,0.104l0.97,0.97l2.07,-2.07c0.067,-0.067,0.156,-0.104,0.251,-0.104c0.095,0,0.184,0.037,0.251,0.104l0.293,0.293c0.138,0.139,0.138,0.364,0,0.502l-2.614,2.614c-0.067,0.067,-0.156,0.104,-0.251,0.104c-0.095,0,-0.184,-0.037,-0.251,-0.104L17.365,11.116z" fill="#39BB9A"/>
    <path d="M17.365,17.116c-0.138,-0.138,-0.138,-0.364,0,-0.502l0.293,-0.293c0.067,-0.067,0.156,-0.104,0.251,-0.104c0.095,0,0.184,0.037,0.251,0.104l0.97,0.97l2.07,-2.07c0.067,-0.067,0.156,-0.104,0.251,-0.104c0.095,0,0.184,0.037,0.251,0.104l0.293,0.293c0.138,0.139,0.138,0.364,0,0.502l-2.614,2.614c-0.067,0.067,-0.156,0.104,-0.251,0.104c-0.095,0,-0.184,-0.037,-0.251,-0.104L17.365,17.116z" fill="#39BB9A"/>
    <path d="M15.5,12.5H3.5V9.5h12V12.5zM15.5,15.5H3.5v3h12V15.5z" fill="#F6F7FB"/>
    <path d="M15.5,13H3.5c-0.276,0,-0.5,-0.224,-0.5,-0.5V9.5c0,-0.276,0.224,-0.5,0.5,-0.5h12c0.276,0,0.5,0.224,0.5,0.5v3C16,12.776,15.776,13,15.5,13zM4,12h11v-2H4V12zM15.5,19H3.5c-0.276,0,-0.5,-0.224,-0.5,-0.5v-3c0,-0.276,0.224,-0.5,0.5,-0.5h12c0.276,0,0.5,0.224,0.5,0.5v3C16,18.776,15.776,19,15.5,19zM4,18h11v-2H4V18z" fill="#8E949C"/>
  </g>
</svg>
