<?xml version="1.0" encoding="UTF-8"?>
<!DOCTYPE svg PUBLIC "-//W3C//DTD SVG 1.1//EN" "http://www.w3.org/Graphics/SVG/1.1/DTD/svg11.dtd">
<svg version="1.1" id="Layer_1" xmlns="http://www.w3.org/2000/svg" xmlns:xlink="http://www.w3.org/1999/xlink" x="0px" y="0px" width="24px" height="24px" viewBox="0 0 24 24" enable-background="new 0 0 24 24" xml:space="preserve">
  <g id="main">
    <clipPath id="clip_mask">
      <path d="M14,19.5c0,-3.0327,2.4673,-5.5,5.5,-5.5c1.8588,0,3.5039,0.9278,4.5,2.3436V0H0v24h16.3436C14.9278,23.0039,14,21.3588,14,19.5z"/>
    </clipPath>
    <g id="icon" clip-path="url(#clip_mask)">
      <g id="transformed_icon" transform="translate(-1 -1)">
        <path d="M21.491,4.179c-4.705,0.671,-8.254,-1.83,-9.491,-3.14c-1.659,1.412,-5.352,3.71,-9.582,3.14c-0.742,0.662,-0.846,9.204,2.697,13.879C6.86,20.362,9.088,22.343,12,23c2.912,-0.657,4.977,-2.638,6.722,-4.942C22.178,13.498,22.321,4.727,21.491,4.179z" fill="#5D9CEC"/>
        <path d="M12,3.339c0,-0.026,-0.038,-0.052,-0.062,-0.077C10.563,4.431,7.8,6.364,4.294,5.892c-0.39,0.347,-0.589,3.131,0.061,6.108H12V3.339z" fill="#F6F7FB"/>
        <path d="M12,12v9.128c2.4,-0.563,3.992,-2.321,5.424,-4.208c1.052,-1.386,1.728,-3.22,2.113,-4.92H12z" fill="#F6F7FB"/>
        <path d="M21.491,4.14c-1.481,0.211,-2.846,0.107,-4.061,-0.174l-7.072,18.46c0.522,0.224,1.068,0.405,1.641,0.535c2.912,-0.657,4.977,-2.638,6.722,-4.942C22.178,13.459,22.321,4.688,21.491,4.14z" fill="#231F20" opacity="0.08"/>
      </g>
    </g>
    <g id="overlay">
      <circle cx="19.5" cy="19.5" r="4.4899" fill="#5D9CEC"/>
      <path d="M22.6826,16.37c-0.0061,-0.0061,-0.0124,-0.012,-0.0185,-0.0181l-6.3121,6.3121c0.0061,0.0061,0.0119,0.0124,0.0181,0.0185c1.7432,1.7432,4.5694,1.7432,6.3126,0S24.4257,18.1131,22.6826,16.37z" fill="#4B89DC" opacity="0.7"/>
      <path d="M19.2,19h0.6c0.1105,0,0.2,0.0895,0.2,0.2v2.9c0,0.1105,-0.0895,0.2,-0.2,0.2h-0.6c-0.1105,0,-0.2,-0.0895,-0.2,-0.2v-2.9C19,19.0895,19.0895,19,19.2,19zM19,16.9v0.9c0,0.1105,0.0895,0.2,0.2,0.2h0.6c0.1105,0,0.2,-0.0895,0.2,-0.2v-0.9c0,-0.1105,-0.0895,-0.2,-0.2,-0.2h-0.6C19.0895,16.7,19,16.7895,19,16.9z" fill="#FFFFFF"/>
    </g>
  </g>
</svg>
