<?xml version="1.0" encoding="UTF-8"?>
<!DOCTYPE svg PUBLIC "-//W3C//DTD SVG 1.1//EN" "http://www.w3.org/Graphics/SVG/1.1/DTD/svg11.dtd">
<svg version="1.1" id="Layer_1" xmlns="http://www.w3.org/2000/svg" xmlns:xlink="http://www.w3.org/1999/xlink" x="0px" y="0px" width="24px" height="24px" viewBox="0 0 24 24" enable-background="new 0 0 24 24" xml:space="preserve">
  <g id="main">
    <clipPath id="clip_mask">
      <path d="M14,19.5c0,-3.0327,2.4673,-5.5,5.5,-5.5c1.8588,0,3.5039,0.9278,4.5,2.3436V0H0v24h16.3436C14.9278,23.0039,14,21.3588,14,19.5z"/>
    </clipPath>
    <g id="icon" clip-path="url(#clip_mask)">
      <g id="transformed_icon" transform="translate(-1 -1)">
        <path d="M8.334,3.2c0,1.215,-0.97,2.2,-2.167,2.2S4,4.415,4,3.2s0.97,-2.2,2.167,-2.2S8.334,1.985,8.334,3.2zM11.945,1c-1.197,0,-2.167,0.985,-2.167,2.2s0.97,2.2,2.167,2.2s2.167,-0.985,2.167,-2.2S13.142,1,11.945,1zM17.723,1c-1.197,0,-2.167,0.985,-2.167,2.2s0.97,2.2,2.167,2.2s2.167,-0.985,2.167,-2.2S18.92,1,17.723,1zM8.334,9.067c0,1.215,-0.97,2.2,-2.167,2.2S4,10.282,4,9.067s0.97,-2.2,2.167,-2.2S8.334,7.852,8.334,9.067zM17.723,6.867c-1.197,0,-2.167,0.985,-2.167,2.2s0.97,2.2,2.167,2.2s2.167,-0.985,2.167,-2.2S18.92,6.867,17.723,6.867z" fill="#5D9CEC"/>
        <path d="M13.182,12.053c0,-0.874,0.01,-2.802,-0.002,-3.366c-0.021,-0.996,-0.57,-1.706,-1.285,-1.683c-0.685,0.022,-1.242,0.821,-1.245,1.758c-0.006,1.743,0.013,3.387,-0.057,5.127c-0.021,0.519,0.007,1.531,-0.469,1.537c-0.4,-0.179,-0.801,-0.356,-1.2,-0.537c-0.071,-0.033,-0.137,-0.082,-0.203,-0.127c-0.768,-0.529,-1.361,-0.541,-1.812,0.066c-0.444,0.597,-0.334,1.264,0.013,1.881c0.857,1.52,1.99,2.704,3.508,3.467c0.703,0.353,1.29,0.936,1.248,1.871c-0.035,0.793,0.323,0.963,0.944,0.955c1.434,-0.018,3.287,-0.015,4.721,-0.01c0.576,0.002,0.801,-0.253,0.865,-0.904c0.057,-0.572,0.33,-1.131,0.561,-1.669c0.346,-0.806,1.005,-1.275,1.114,-2.108c0.192,-1.464,0.081,-1.51,0.116,-3c-0.066,-2.496,-1.616,-3.165,-2.189,-1.759c-0.313,-1.631,-1.585,-2.003,-2.282,-1.086C15.007,11.001,13.849,10.661,13.182,12.053z" fill-rule="evenodd" fill="#DEBDAD"/>
        <path d="M19.999,15.309c-0.066,-2.496,-1.616,-3.165,-2.189,-1.759c-0.184,-0.962,-0.703,-1.486,-1.24,-1.566l-3.541,11.011c1.366,-0.013,3.012,-0.01,4.315,-0.005c0.576,0.002,0.801,-0.253,0.865,-0.904c0.057,-0.572,0.33,-1.131,0.561,-1.669c0.346,-0.806,1.005,-1.275,1.114,-2.108C20.075,16.844,19.964,16.798,19.999,15.309z" fill-rule="evenodd" fill="#24282D" opacity="0.1"/>
        <path d="M8.334,3.2c0,1.215,-0.97,2.2,-2.167,2.2c-0.222,0,-0.437,-0.034,-0.639,-0.097l1.365,-4.176C7.732,1.43,8.334,2.244,8.334,3.2zM12.693,1.127l-1.365,4.176c0.202,0.063,0.416,0.097,0.639,0.097c1.197,0,2.167,-0.985,2.167,-2.2C14.134,2.244,13.532,1.43,12.693,1.127zM18.393,1.127l-1.365,4.176c0.202,0.063,0.416,0.097,0.639,0.097c1.197,0,2.167,-0.985,2.167,-2.2C19.834,2.244,19.232,1.43,18.393,1.127zM18.393,7.027l-1.365,4.176c0.202,0.063,0.416,0.097,0.639,0.097c1.197,0,2.167,-0.985,2.167,-2.2C19.834,8.144,19.232,7.33,18.393,7.027zM6.893,7.027l-1.365,4.176c0.202,0.063,0.416,0.097,0.639,0.097c1.197,0,2.167,-0.985,2.167,-2.2C8.334,8.144,7.732,7.33,6.893,7.027z" fill="#24282D" opacity="0.12"/>
      </g>
    </g>
    <g id="overlay">
      <circle cx="19.5" cy="19.5" r="4.4899" fill="#5D9CEC"/>
      <path d="M22.6826,16.37c-0.0061,-0.0061,-0.0124,-0.012,-0.0185,-0.0181l-6.3121,6.3121c0.0061,0.0061,0.0119,0.0124,0.0181,0.0185c1.7432,1.7432,4.5694,1.7432,6.3126,0S24.4257,18.1131,22.6826,16.37z" fill="#4B89DC" opacity="0.7"/>
      <path d="M19.2,19h0.6c0.1105,0,0.2,0.0895,0.2,0.2v2.9c0,0.1105,-0.0895,0.2,-0.2,0.2h-0.6c-0.1105,0,-0.2,-0.0895,-0.2,-0.2v-2.9C19,19.0895,19.0895,19,19.2,19zM19,16.9v0.9c0,0.1105,0.0895,0.2,0.2,0.2h0.6c0.1105,0,0.2,-0.0895,0.2,-0.2v-0.9c0,-0.1105,-0.0895,-0.2,-0.2,-0.2h-0.6C19.0895,16.7,19,16.7895,19,16.9z" fill="#FFFFFF"/>
    </g>
  </g>
</svg>
