<?xml version="1.0" encoding="UTF-8"?>
<!DOCTYPE svg PUBLIC "-//W3C//DTD SVG 1.1//EN" "http://www.w3.org/Graphics/SVG/1.1/DTD/svg11.dtd">
<svg version="1.1" id="Layer_1" xmlns="http://www.w3.org/2000/svg" xmlns:xlink="http://www.w3.org/1999/xlink" x="0px" y="0px" width="24px" height="24px" viewBox="0 0 24 24" enable-background="new 0 0 24 24" xml:space="preserve">
  <g id="main">
    <clipPath id="clip_mask">
      <path d="M17.2877,23.7612c-0.1662,-0.0172,-0.3327,-0.0359,-0.4969,-0.0567c-1.7181,-0.2175,-2.424,-0.5199,-2.6978,-1.1558c-0.1767,-0.4104,-0.0992,-0.8736,0.2005,-1.2245c0.0964,-0.1247,0.1976,-0.2479,0.3043,-0.3778c0.5644,-0.6869,1.1479,-1.3972,1.1479,-2.4428c0,-1.3466,0.7584,-2.5517,1.9429,-3.1718c0.2378,-0.7979,0.9637,-1.3801,1.8198,-1.3801c0.8829,0,1.6272,0.6189,1.8407,1.4553c1.1039,0.6422,1.8093,1.8172,1.8093,3.0966c0,0.4992,0.3702,1.2624,0.8416,1.9482V0H0v24h17.4305C17.3784,23.9236,17.3302,23.8443,17.2877,23.7612z"/>
    </clipPath>
    <g id="icon" clip-path="url(#clip_mask)">
      <g id="transformed_icon" transform="translate(-1 -1)">
        <path d="M21.491,4.179c-4.705,0.671,-8.254,-1.83,-9.491,-3.14c-1.659,1.412,-5.352,3.71,-9.582,3.14c-0.742,0.662,-0.846,9.204,2.697,13.879C6.86,20.362,9.088,22.343,12,23c2.912,-0.657,4.977,-2.638,6.722,-4.942C22.178,13.498,22.321,4.727,21.491,4.179z" fill="#5D9CEC"/>
        <path d="M12,3.339c0,-0.026,-0.038,-0.052,-0.062,-0.077C10.563,4.431,7.8,6.364,4.294,5.892c-0.39,0.347,-0.589,3.131,0.061,6.108H12V3.339z" fill="#F6F7FB"/>
        <path d="M12,12v9.128c2.4,-0.563,3.992,-2.321,5.424,-4.208c1.052,-1.386,1.728,-3.22,2.113,-4.92H12z" fill="#F6F7FB"/>
        <path d="M21.491,4.14c-1.481,0.211,-2.846,0.107,-4.061,-0.174l-7.072,18.46c0.522,0.224,1.068,0.405,1.641,0.535c2.912,-0.657,4.977,-2.638,6.722,-4.942C22.178,13.459,22.321,4.688,21.491,4.14z" fill="#231F20" opacity="0.08"/>
      </g>
    </g>
    <g id="overlay">
      <path d="M20.7962,22.7039c0,0.7847,-0.6445,1.2961,-1.3909,1.2961c-0.7463,0,-1.3711,-0.5115,-1.3711,-1.2961C19.1173,22.8083,19.6508,22.8083,20.7962,22.7039z" fill-rule="evenodd" fill="#C18F36"/>
      <path d="M23.8836,21.9314c-0.6454,-0.7084,-1.7348,-2.2438,-1.7348,-3.4277c0,-1.1189,-0.7321,-2.0727,-1.7598,-2.4415c0.0088,-0.0531,0.0143,-0.1075,0.0143,-0.1632c0,-0.5231,-0.4034,-0.9472,-0.9009,-0.9472c-0.4976,0,-0.9009,0.4241,-0.9009,0.9472c0,0.0433,0.0037,0.0857,0.0091,0.1275c-1.0836,0.3392,-1.8672,1.3198,-1.8672,2.4773c0,1.6576,-1.0749,2.668,-1.6781,3.4574c-0.6086,0.6438,3.1831,0.929,4.409,0.929C20.7001,22.89,24.529,22.6398,23.8836,21.9314z" fill-rule="evenodd" fill="#FFCE55"/>
      <path d="M23.8836,21.9314c-0.6454,-0.7084,-1.7348,-2.2438,-1.7348,-3.4277c0,-1.1189,-0.7321,-2.0727,-1.7598,-2.4415c0.0088,-0.0531,0.0143,-0.1075,0.0143,-0.1632c0,-0.5231,-0.3752,-0.9472,-0.8728,-0.9472c-0.0197,0,-0.0305,0.0009,-0.0305,0.0022v7.936c0,0,-0.0075,0.0001,0.0024,0.0001C20.7282,22.89,24.529,22.6398,23.8836,21.9314z" fill-rule="evenodd" fill="#F6BB43"/>
    </g>
  </g>
</svg>
