<?xml version="1.0" encoding="UTF-8"?>
<!DOCTYPE svg PUBLIC "-//W3C//DTD SVG 1.1//EN" "http://www.w3.org/Graphics/SVG/1.1/DTD/svg11.dtd">
<svg version="1.1" id="Layer_1" xmlns="http://www.w3.org/2000/svg" xmlns:xlink="http://www.w3.org/1999/xlink" x="0px" y="0px" width="24px" height="24px" viewBox="0 0 24 24" enable-background="new 0 0 24 24" xml:space="preserve">
  <g id="main">
    <clipPath id="clip_mask">
      <path d="M17.2877,23.7612c-0.1662,-0.0172,-0.3327,-0.0359,-0.4969,-0.0567c-1.7181,-0.2175,-2.424,-0.5199,-2.6978,-1.1558c-0.1767,-0.4104,-0.0992,-0.8736,0.2005,-1.2245c0.0964,-0.1247,0.1976,-0.2479,0.3043,-0.3778c0.5644,-0.6869,1.1479,-1.3972,1.1479,-2.4428c0,-1.3466,0.7584,-2.5517,1.9429,-3.1718c0.2378,-0.7979,0.9637,-1.3801,1.8198,-1.3801c0.8829,0,1.6272,0.6189,1.8407,1.4553c1.1039,0.6422,1.8093,1.8172,1.8093,3.0966c0,0.4992,0.3702,1.2624,0.8416,1.9482V0H0v24h17.4305C17.3784,23.9236,17.3302,23.8443,17.2877,23.7612z"/>
    </clipPath>
    <g id="icon" clip-path="url(#clip_mask)">
      <g id="transformed_icon" transform="translate(-1 -1)">
        <path d="M19,5l-2,-4H7.2c-0.66,0,-1.2,0.54,-1.2,1.2v5.291c3.254,0.016,5.896,2.668,5.896,5.925c0,1.794,-0.801,3.404,-2.064,4.491l1.696,3.025c0.012,0.022,0.021,0.045,0.032,0.068H21.8c0.66,0,1.2,-0.54,1.2,-1.2V7L19,5z" fill="#E6E9EE"/>
        <path d="M19.663,5.332c0,0,-7.286,13.235,-8.261,15.377l0.125,0.224c0.012,0.022,0.021,0.045,0.032,0.068H21.8c0.66,0,1.2,-0.54,1.2,-1.2V7L19.663,5.332z" fill="#CCD0D9" opacity="0.5"/>
        <path d="M17,1v4.8c0,0.66,0.54,1.2,1.2,1.2h4.8L17,1z" fill="#AAB2BD"/>
        <path d="M15.5,9H9.917c-0.45,-0.403,-0.963,-0.737,-1.521,-0.989C8.43,8.004,8.464,8,8.5,8h7c0.276,0,0.5,0.224,0.5,0.5S15.776,9,15.5,9zM8.5,5h7c0.276,0,0.5,-0.224,0.5,-0.5s-0.224,-0.5,-0.5,-0.5H8.5c-0.276,0,-0.5,0.224,-0.5,0.5S8.224,5,8.5,5zM11.379,11H20.5c0.276,0,0.5,-0.224,0.5,-0.5s-0.224,-0.5,-0.5,-0.5h-9.692C11.029,10.312,11.221,10.647,11.379,11zM8.5,7h7c0.276,0,0.5,-0.224,0.5,-0.5s-0.224,-0.5,-0.5,-0.5H8.5c-0.276,0,-0.5,0.224,-0.5,0.5S8.224,7,8.5,7zM20.5,12h-8.776c0.08,0.324,0.132,0.658,0.156,1H20.5c0.276,0,0.5,-0.224,0.5,-0.5S20.776,12,20.5,12zM17.5,18H9.884l0.56,1H17.5c0.276,0,0.5,-0.224,0.5,-0.5S17.776,18,17.5,18zM20.5,14h-8.635c-0.034,0.343,-0.096,0.677,-0.186,1H20.5c0.276,0,0.5,-0.224,0.5,-0.5S20.776,14,20.5,14zM20.5,16h-9.2c-0.172,0.354,-0.378,0.689,-0.614,1H20.5c0.276,0,0.5,-0.224,0.5,-0.5S20.776,16,20.5,16z" fill="#5D9CEC"/>
        <path d="M5.97,8.49c2.72,0,4.926,2.205,4.926,4.926S8.69,18.341,5.97,18.341s-4.926,-2.205,-4.926,-4.926S3.25,8.49,5.97,8.49zM8.948,18.375c-0.773,0.467,-1.666,0.756,-2.621,0.811l1.013,3.607c0.059,0.21,0.321,0.28,0.477,0.128l1.081,-1.054l1.509,-0.018c0.218,-0.003,0.354,-0.238,0.247,-0.428L8.948,18.375zM5.612,19.182l-1.014,3.611c-0.059,0.21,-0.321,0.28,-0.477,0.128l-1.081,-1.054l-1.509,-0.018c-0.218,-0.003,-0.354,-0.238,-0.247,-0.428l1.72,-3.07C3.771,18.824,4.659,19.119,5.612,19.182z" fill="#E9573E"/>
        <path d="M6.007,8.491C8.767,8.508,10.9,10.706,10.9,13.415c0,2.71,-2.133,4.907,-4.893,4.925V8.491zM8.948,18.375c-0.773,0.467,-1.666,0.756,-2.621,0.811l1.013,3.607c0.059,0.21,0.321,0.28,0.477,0.128l1.081,-1.054l1.509,-0.018c0.218,-0.003,0.354,-0.238,0.247,-0.428L8.948,18.375z" fill="#24282D" opacity="0.08"/>
      </g>
    </g>
    <g id="overlay">
      <path d="M20.7962,22.7039c0,0.7847,-0.6445,1.2961,-1.3909,1.2961c-0.7463,0,-1.3711,-0.5115,-1.3711,-1.2961C19.1173,22.8083,19.6508,22.8083,20.7962,22.7039z" fill-rule="evenodd" fill="#C18F36"/>
      <path d="M23.8836,21.9314c-0.6454,-0.7084,-1.7348,-2.2438,-1.7348,-3.4277c0,-1.1189,-0.7321,-2.0727,-1.7598,-2.4415c0.0088,-0.0531,0.0143,-0.1075,0.0143,-0.1632c0,-0.5231,-0.4034,-0.9472,-0.9009,-0.9472c-0.4976,0,-0.9009,0.4241,-0.9009,0.9472c0,0.0433,0.0037,0.0857,0.0091,0.1275c-1.0836,0.3392,-1.8672,1.3198,-1.8672,2.4773c0,1.6576,-1.0749,2.668,-1.6781,3.4574c-0.6086,0.6438,3.1831,0.929,4.409,0.929C20.7001,22.89,24.529,22.6398,23.8836,21.9314z" fill-rule="evenodd" fill="#FFCE55"/>
      <path d="M23.8836,21.9314c-0.6454,-0.7084,-1.7348,-2.2438,-1.7348,-3.4277c0,-1.1189,-0.7321,-2.0727,-1.7598,-2.4415c0.0088,-0.0531,0.0143,-0.1075,0.0143,-0.1632c0,-0.5231,-0.3752,-0.9472,-0.8728,-0.9472c-0.0197,0,-0.0305,0.0009,-0.0305,0.0022v7.936c0,0,-0.0075,0.0001,0.0024,0.0001C20.7282,22.89,24.529,22.6398,23.8836,21.9314z" fill-rule="evenodd" fill="#F6BB43"/>
    </g>
  </g>
</svg>
