<?xml version="1.0" encoding="UTF-8"?>
<!DOCTYPE svg PUBLIC "-//W3C//DTD SVG 1.1//EN" "http://www.w3.org/Graphics/SVG/1.1/DTD/svg11.dtd">
<svg version="1.1" id="Layer_1" xmlns="http://www.w3.org/2000/svg" xmlns:xlink="http://www.w3.org/1999/xlink" x="0px" y="0px" width="24px" height="24px" viewBox="0 0 24 24" enable-background="new 0 0 24 24" xml:space="preserve">
  <g id="main">
    <clipPath id="clip_mask">
      <path d="M14,19.5c0,-3.0327,2.4673,-5.5,5.5,-5.5c1.8588,0,3.5039,0.9278,4.5,2.3436V0H0v24h16.3436C14.9278,23.0039,14,21.3588,14,19.5z"/>
    </clipPath>
    <g id="icon" clip-path="url(#clip_mask)">
      <g id="transformed_icon" transform="translate(-1 -1)">
        <path d="M7.3,11.4V8.038C7.3,5.48,9.443,3.3,12,3.3s4.7,2.18,4.7,4.738V11.4h2.3V8.038c0,-3.844,-3.156,-6.971,-7,-6.971c-3.844,0,-7,3.127,-7,6.971V11.4H7.3z" fill="#AAB2BD"/>
        <path d="M12,1.067V3.3c2.557,0,4.7,2.18,4.7,4.738V11.4h2.3V8.038C19,4.194,15.844,1.067,12,1.067z" fill="#24282D" opacity="0.15"/>
        <path d="M20.3,11H3.6c-0.345,0,-0.6,0.255,-0.6,0.6v10.775c0,0.345,0.28,0.625,0.625,0.625h16.75c0.345,0,0.625,-0.28,0.625,-0.625V11.6C21,11.255,20.645,11,20.3,11z" fill="#FFCE55"/>
        <path d="M20.3,11h-8.3v12h8.375c0.345,0,0.625,-0.28,0.625,-0.625V11.6C21,11.255,20.645,11,20.3,11z" fill="#F6BB43"/>
        <path d="M13.8,16.06c0,-0.972,-0.806,-1.76,-1.8,-1.76s-1.8,0.788,-1.8,1.76c0,0.651,0.4,1.218,0.9,1.523v1.557c0,0.484,0.405,0.88,0.9,0.88s0.9,-0.396,0.9,-0.88v-1.557C13.5,17.278,13.8,16.711,13.8,16.06z" fill="#C18F36"/>
        <path d="M13.8,16.06c0,-0.972,-0.806,-1.76,-1.8,-1.76s-1.8,0.788,-1.8,1.76c0,0.651,0.4,1.218,0.9,1.523v1.557c0,0.484,0.405,0.88,0.9,0.88s0.9,-0.396,0.9,-0.88v-1.557C13.5,17.278,13.8,16.711,13.8,16.06z" fill="#24282D" opacity="0.2"/>
      </g>
    </g>
    <g id="overlay">
      <circle cx="19.5" cy="19.5" r="4.4899" fill="#48CFAE"/>
      <path d="M22.6749,16.3251c-0.0061,-0.0061,-0.0124,-0.0121,-0.0186,-0.0182l-6.3493,6.3493c0.0061,0.0062,0.012,0.0125,0.0182,0.0186c1.7534,1.7534,4.5963,1.7534,6.3497,0S24.4283,18.0786,22.6749,16.3251z" fill="#36BC9B" opacity="0.7"/>
      <path d="M21.8,19h-1.8v-1.8c0,-0.1105,-0.0895,-0.2,-0.2,-0.2h-0.6c-0.1105,0,-0.2,0.0895,-0.2,0.2v1.8h-1.8c-0.1105,0,-0.2,0.0895,-0.2,0.2v0.6c0,0.1105,0.0895,0.2,0.2,0.2h1.8v1.8c0,0.1105,0.0895,0.2,0.2,0.2h0.6c0.1105,0,0.2,-0.0895,0.2,-0.2v-1.8h1.8c0.1105,0,0.2,-0.0895,0.2,-0.2v-0.6C22,19.0895,21.9105,19,21.8,19z" fill="#FFFFFF"/>
    </g>
  </g>
</svg>
