<?xml version="1.0" encoding="UTF-8"?>
<!DOCTYPE svg PUBLIC "-//W3C//DTD SVG 1.1//EN" "http://www.w3.org/Graphics/SVG/1.1/DTD/svg11.dtd">
<svg version="1.1" id="Layer_1" xmlns="http://www.w3.org/2000/svg" xmlns:xlink="http://www.w3.org/1999/xlink" x="0px" y="0px" width="24px" height="24px" viewBox="0 0 24 24" enable-background="new 0 0 24 24" xml:space="preserve">
  <g id="main">
    <clipPath id="clip_mask">
      <path d="M14,19.5c0,-3.0327,2.4673,-5.5,5.5,-5.5c1.8588,0,3.5039,0.9278,4.5,2.3436V0H0v24h16.3436C14.9278,23.0039,14,21.3588,14,19.5z"/>
    </clipPath>
    <g id="icon" clip-path="url(#clip_mask)">
      <g id="transformed_icon" transform="translate(-1 -1)">
        <path d="M19,5l-2,-4H7.2c-0.66,0,-1.2,0.54,-1.2,1.2v5.291c3.254,0.016,5.896,2.668,5.896,5.925c0,1.794,-0.801,3.404,-2.064,4.491l1.696,3.025c0.012,0.022,0.021,0.045,0.032,0.068H21.8c0.66,0,1.2,-0.54,1.2,-1.2V7L19,5z" fill="#E6E9EE"/>
        <path d="M19.663,5.332c0,0,-7.286,13.235,-8.261,15.377l0.125,0.224c0.012,0.022,0.021,0.045,0.032,0.068H21.8c0.66,0,1.2,-0.54,1.2,-1.2V7L19.663,5.332z" fill="#CCD0D9" opacity="0.5"/>
        <path d="M17,1v4.8c0,0.66,0.54,1.2,1.2,1.2h4.8L17,1z" fill="#AAB2BD"/>
        <path d="M15.5,9H9.917c-0.45,-0.403,-0.963,-0.737,-1.521,-0.989C8.43,8.004,8.464,8,8.5,8h7c0.276,0,0.5,0.224,0.5,0.5S15.776,9,15.5,9zM8.5,5h7c0.276,0,0.5,-0.224,0.5,-0.5s-0.224,-0.5,-0.5,-0.5H8.5c-0.276,0,-0.5,0.224,-0.5,0.5S8.224,5,8.5,5zM11.379,11H20.5c0.276,0,0.5,-0.224,0.5,-0.5s-0.224,-0.5,-0.5,-0.5h-9.692C11.029,10.312,11.221,10.647,11.379,11zM8.5,7h7c0.276,0,0.5,-0.224,0.5,-0.5s-0.224,-0.5,-0.5,-0.5H8.5c-0.276,0,-0.5,0.224,-0.5,0.5S8.224,7,8.5,7zM20.5,12h-8.776c0.08,0.324,0.132,0.658,0.156,1H20.5c0.276,0,0.5,-0.224,0.5,-0.5S20.776,12,20.5,12zM17.5,18H9.884l0.56,1H17.5c0.276,0,0.5,-0.224,0.5,-0.5S17.776,18,17.5,18zM20.5,14h-8.635c-0.034,0.343,-0.096,0.677,-0.186,1H20.5c0.276,0,0.5,-0.224,0.5,-0.5S20.776,14,20.5,14zM20.5,16h-9.2c-0.172,0.354,-0.378,0.689,-0.614,1H20.5c0.276,0,0.5,-0.224,0.5,-0.5S20.776,16,20.5,16z" fill="#5D9CEC"/>
        <path d="M5.97,8.49c2.72,0,4.926,2.205,4.926,4.926S8.69,18.341,5.97,18.341s-4.926,-2.205,-4.926,-4.926S3.25,8.49,5.97,8.49zM8.948,18.375c-0.773,0.467,-1.666,0.756,-2.621,0.811l1.013,3.607c0.059,0.21,0.321,0.28,0.477,0.128l1.081,-1.054l1.509,-0.018c0.218,-0.003,0.354,-0.238,0.247,-0.428L8.948,18.375zM5.612,19.182l-1.014,3.611c-0.059,0.21,-0.321,0.28,-0.477,0.128l-1.081,-1.054l-1.509,-0.018c-0.218,-0.003,-0.354,-0.238,-0.247,-0.428l1.72,-3.07C3.771,18.824,4.659,19.119,5.612,19.182z" fill="#E9573E"/>
        <path d="M6.007,8.491C8.767,8.508,10.9,10.706,10.9,13.415c0,2.71,-2.133,4.907,-4.893,4.925V8.491zM8.948,18.375c-0.773,0.467,-1.666,0.756,-2.621,0.811l1.013,3.607c0.059,0.21,0.321,0.28,0.477,0.128l1.081,-1.054l1.509,-0.018c0.218,-0.003,0.354,-0.238,0.247,-0.428L8.948,18.375z" fill="#24282D" opacity="0.08"/>
      </g>
    </g>
    <g id="overlay">
      <circle cx="19.5" cy="19.5" r="4.4899" fill="#48CFAE"/>
      <path d="M22.6749,16.3251c-0.0061,-0.0061,-0.0124,-0.0121,-0.0186,-0.0182l-6.3493,6.3493c0.0061,0.0062,0.012,0.0125,0.0182,0.0186c1.7534,1.7534,4.5963,1.7534,6.3497,0S24.4283,18.0786,22.6749,16.3251z" fill="#36BC9B" opacity="0.7"/>
      <path d="M21.8,19h-1.8v-1.8c0,-0.1105,-0.0895,-0.2,-0.2,-0.2h-0.6c-0.1105,0,-0.2,0.0895,-0.2,0.2v1.8h-1.8c-0.1105,0,-0.2,0.0895,-0.2,0.2v0.6c0,0.1105,0.0895,0.2,0.2,0.2h1.8v1.8c0,0.1105,0.0895,0.2,0.2,0.2h0.6c0.1105,0,0.2,-0.0895,0.2,-0.2v-1.8h1.8c0.1105,0,0.2,-0.0895,0.2,-0.2v-0.6C22,19.0895,21.9105,19,21.8,19z" fill="#FFFFFF"/>
    </g>
  </g>
</svg>
