<?xml version="1.0" encoding="UTF-8"?>
<!DOCTYPE svg PUBLIC "-//W3C//DTD SVG 1.1//EN" "http://www.w3.org/Graphics/SVG/1.1/DTD/svg11.dtd">
<svg version="1.1" id="Layer_1" xmlns="http://www.w3.org/2000/svg" xmlns:xlink="http://www.w3.org/1999/xlink" x="0px" y="0px" width="24px" height="24px" viewBox="0 0 24 24" enable-background="new 0 0 24 24" xml:space="preserve">
  <g id="main">
    <clipPath id="clip_mask">
      <path d="M14.7207,23.9925c-0.5738,-0.6097,-0.6845,-0.9473,-0.7137,-1.1971c-0.0744,-0.6281,0.3924,-0.9527,0.6167,-1.1087c0.1577,-0.1098,0.3738,-0.2601,0.6071,-0.5021c0.0619,-0.0643,0.0954,-0.1019,0.1116,-0.1208c0.1002,-0.1807,0.2162,-0.3173,0.4884,-0.581c0.2072,-0.2008,0.3844,-0.3622,0.5428,-0.4925c-0.5537,-0.0737,-1.0516,-0.3039,-1.4038,-0.6561c-0.6199,-0.6198,-1.1922,-1.8251,-0.7641,-3.1813c0.0165,-0.0523,0.0374,-0.1033,0.0623,-0.1523c0.0283,-0.0558,0.0567,-0.0995,0.072,-0.1229c0.1592,-0.2454,0.4198,-0.412,0.709,-0.4508c0.0529,-0.2906,0.2319,-0.544,0.4901,-0.6906c0.0303,-0.0173,0.0771,-0.044,0.1358,-0.0699c0.0455,-0.0201,0.0924,-0.0367,0.1403,-0.0498c0.2837,-0.0773,0.5734,-0.1166,0.8614,-0.1166c0.7796,0,1.4448,0.2887,1.9027,0.6258c0.0011,-0.0008,0.0023,-0.0014,0.0034,-0.0022c0.4908,-0.3397,1.4191,-0.5173,2.1188,-0.5173c0.8392,0,1.5095,0.2376,1.94,0.6873l0.9027,0.9025c0.0736,0.0738,0.1354,0.1551,0.1854,0.2413c0.0962,0.0378,0.1865,0.0897,0.2702,0.1523V0H0v24h14.7271C14.7251,23.9974,14.7227,23.9951,14.7207,23.9925z"/>
    </clipPath>
    <g id="icon" clip-path="url(#clip_mask)">
      <g id="transformed_icon" transform="translate(-1 -1)">
        <path d="M22.576,13.733h-0.661L19.362,5.56l-0.347,0.111l-0.347,-0.111l-2.553,8.173h-0.611c-0.267,0,-0.467,0.252,-0.416,0.522c0.29,1.54,1.949,1.392,3.952,1.392c2.003,0,3.662,0.148,3.952,-1.392C23.043,13.985,22.843,13.733,22.576,13.733zM16.879,13.733l2.136,-6.847l2.136,6.847H16.879zM8.56,13.733h-0.661L5.346,5.56l-0.347,0.111l-0.347,-0.111l-2.553,8.173h-0.611c-0.267,0,-0.467,0.252,-0.416,0.522c0.29,1.54,1.949,1.392,3.952,1.392c2.003,0,3.662,0.148,3.952,-1.392C9.027,13.985,8.827,13.733,8.56,13.733zM2.863,13.733l2.136,-6.847l2.136,6.847H2.863z" fill="#83888E"/>
        <path d="M19.398,4.674c-0.461,-0.185,-0.972,-0.032,-1.264,0.342l-5.158,0v-0.376v-0.018c0,-0.042,0,-0.178,0,-0.564c0,-0.737,-0.28,-2.062,-0.957,-2.062c-0.676,0,-1.029,1.375,-1.029,2.062s0,0.678,0,0.678c0,0.002,0.004,0.005,0,0.008v0.271l-5.036,0c-0.119,-0.19,-0.295,-0.345,-0.518,-0.435c-0.56,-0.225,-1.196,0.049,-1.42,0.613C3.792,5.76,4.065,6.4,4.626,6.625c0.497,0.2,1.053,0.006,1.329,-0.435l5.035,0v0.907c0.004,0.003,0,0.006,0,0.008v12.228h-0.058h-0.612h-0.364c-0.775,0,-0.909,0.887,-0.909,1.667H7.196c-0.375,0,-0.678,0.306,-0.678,0.683v0.958c0,0.198,0.16,0.359,0.357,0.359h10.216c0.197,0,0.357,-0.161,0.357,-0.359v-0.958c0,-0.377,-0.304,-0.683,-0.678,-0.683h-1.893c0,-0.78,-0.134,-1.667,-0.909,-1.667h-0.264h-0.727V7.105V6.19l5.042,0c0.116,0.232,0.312,0.424,0.57,0.527c0.56,0.225,1.196,-0.049,1.42,-0.613C20.231,5.539,19.958,4.9,19.398,4.674z" fill="#5D9CEC"/>
        <path d="M19.398,4.674c-0.461,-0.185,-0.972,-0.032,-1.264,0.342l-5.158,0v-0.376v-0.018c0,-0.042,0,-0.178,0,-0.564c0,-0.737,-0.28,-2.062,-0.957,-2.062c-0.007,0,-0.013,0.001,-0.019,0.001V23h5.091c0.197,0,0.357,-0.161,0.357,-0.359v-0.958c0,-0.377,-0.304,-0.683,-0.678,-0.683h-1.893c0,-0.78,-0.134,-1.667,-0.909,-1.667h-0.264h-0.727V7.105V6.19l5.042,0c0.116,0.232,0.312,0.424,0.57,0.527c0.56,0.225,1.196,-0.049,1.42,-0.613C20.231,5.539,19.958,4.9,19.398,4.674z" fill="#231F20" opacity="0.12"/>
      </g>
    </g>
    <g id="overlay">
      <path d="M16.9638,21.2337l3.8088,-3.7678l0.6982,0.6982l-3.8088,3.7678L16.9638,21.2337z" fill-rule="evenodd" fill="#A38671"/>
      <polygon points="17.3059,21.5738 17.6621,21.9299 21.4709,18.1621 21.0827,17.7739" fill-rule="evenodd" fill="#8E725E" stroke-linejoin="miter" opacity="0.7"/>
      <polygon points="19.0995,19.121 18.071,20.1375 18.7606,20.8443 19.8615,19.7561" fill-rule="evenodd" fill="#231F20" stroke-linejoin="miter" opacity="0.2"/>
      <path d="M15.0001,22.6791c-0.0095,-0.0809,0.4365,-0.2671,0.9508,-0.8007c0.4287,-0.4448,0.085,-0.202,0.5758,-0.6775c0.7639,-0.7401,0.8785,-0.6867,0.9433,-0.7021c0.1416,0.0968,0.8498,0.8057,0.9317,0.9622c0.0175,0.0335,0.0583,0.1805,-0.6895,0.9813c-0.4659,0.4988,-0.1944,0.1144,-0.6316,0.5429c-0.5218,0.5116,-0.7296,1.0052,-0.8279,0.9771C15.9399,23.873,15.0299,22.9325,15.0001,22.6791z" fill-rule="evenodd" fill="#5D9CEC"/>
      <path d="M16.2529,23.9624c0.0983,0.0281,0.3061,-0.4656,0.8279,-0.9771c0.4372,-0.4286,0.1657,-0.0441,0.6316,-0.5429c0.7478,-0.8007,0.707,-0.9478,0.6895,-0.9813c-0.0423,-0.0808,-0.2514,-0.3087,-0.4634,-0.5236l-2.424,2.4388C15.7862,23.6565,16.0952,23.9174,16.2529,23.9624z" fill-rule="evenodd" fill="#4B89DC"/>
      <path d="M23.966,17.9506l-0.5429,-0.5429c-0.068,-0.068,-0.1783,-0.068,-0.2463,0l-0.0625,0.0625c-0.1873,-0.1108,-0.3768,-0.2208,-0.3566,-0.2409c0.0588,-0.0588,0.0755,-0.0755,0.0796,-0.0796c0.068,-0.068,0.068,-0.1783,0,-0.2463c0,0,-0.8012,-0.8012,-0.9119,-0.9119c-0.6397,-0.6826,-2.4537,-0.3039,-2.7896,-0.0347c0.6549,0.2093,0.7702,-0.1191,1.7282,0.9082c-0.078,0.1948,-0.2535,0.2535,-0.2535,0.2535c-0.068,0.068,-0.068,0.1783,0,0.2463l0.8826,0.8826c0.068,0.068,0.1783,0.068,0.2463,0l0.2065,-0.2252l0.2719,0.3443l-0.0646,0.0646c-0.068,0.068,-0.068,0.1783,0,0.2463l0.5429,0.5429c0.068,0.068,0.1783,0.068,0.2463,0l1.0235,-1.0235C24.034,18.1289,24.034,18.0186,23.966,17.9506z" fill-rule="evenodd" fill="#CCD0D9"/>
      <path d="M21.1842,16.401c-0.1331,-0.1331,-0.2969,-0.256,-0.4915,-0.3276c-0.1945,-0.0717,-0.3379,-0.1024,-0.5324,-0.1229c-0.143,-0.015,-0.7169,-0.008,-1.0113,-0.0032c-0.0043,0.0031,-0.0093,0.0063,-0.0132,0.0094c0.6549,0.2093,0.7702,-0.1191,1.7282,0.9082c-0.078,0.1948,-0.2535,0.2535,-0.2535,0.2535c-0.068,0.068,-0.068,0.1783,0,0.2463l0.8826,0.8826c0.068,0.068,0.1783,0.068,0.2463,0l0.2065,-0.2252l0.2719,0.3443l-0.0646,0.0646c-0.068,0.068,-0.068,0.1783,0,0.2463l0.5429,0.5429c0.068,0.068,0.1783,0.068,0.2463,0l0.513,-0.513C22.7653,18.0061,21.286,16.5028,21.1842,16.401z" fill-rule="evenodd" fill="#231F20" opacity="0.1"/>
      <path d="M22.7808,17.2616l-0.8021,0.8021l0.2136,0.2705l0.8725,-0.8933C22.9435,17.3692,22.8294,17.3013,22.7808,17.2616z" fill-rule="evenodd" fill="#231F20" opacity="0.1"/>
      <path d="M23.2205,23.282l-0.3981,0.3975c-0.179,0.179,-0.4693,0.179,-0.6483,0l-4.7335,-4.7756c-0.7755,0.2559,-1.4517,0.0351,-1.7635,-0.2767c-0.4088,-0.4088,-0.8127,-1.2388,-0.5176,-2.1732c0.0055,-0.0109,0.0155,-0.0258,0.0245,-0.0397l1.3185,1.3185c0.2847,0.2847,0.4848,0.1881,0.7281,-0.0553c0.2434,-0.2434,0.2893,-0.5848,0.107,-0.767L16.033,15.606c0.0158,-0.009,0.0323,-0.0187,0.0455,-0.0246c0.9739,-0.2656,1.7743,0.1744,2.1162,0.5283c0.4303,0.4455,0.4888,1.0029,0.2357,1.7989l4.7901,4.7252C23.3995,22.8128,23.3995,23.103,23.2205,23.282zM22.6821,22.6884c-0.1274,-0.1274,-0.334,-0.1274,-0.4614,0c-0.1274,0.1274,-0.1274,0.334,0,0.4614c0.1274,0.1274,0.334,0.1274,0.4614,0C22.8095,23.0224,22.8095,22.8158,22.6821,22.6884z" fill-rule="evenodd" fill="#CCD0D9"/>
      <path d="M22.198,23.6795c0.179,0.179,0.4693,0.179,0.6483,0l0.1885,-0.1885l-0.3409,-0.3425c-0.0007,0.0008,-0.0014,0.0016,-0.0021,0.0024c-0.1274,0.1274,-0.334,0.1274,-0.4614,0c-0.1274,-0.1274,-0.1274,-0.334,0,-0.4614c0.0011,-0.0011,0.0024,-0.0021,0.0035,-0.0032l-4.989,-5.0128c-0.0016,0.0017,-0.0031,0.0035,-0.0048,0.0051c-0.2434,0.2434,-0.5254,0.2581,-0.81,-0.0266l-1.2366,-1.2366c-0.0089,0.0139,-0.019,0.0288,-0.0244,0.0397c-0.295,0.9345,0.1088,1.7644,0.5176,2.1732c0.3118,0.3118,1.0022,0.5315,1.7776,0.2756L22.198,23.6795z" fill-rule="evenodd" fill="#AAB2BD" opacity="0.6"/>
    </g>
  </g>
</svg>
